<?xml version="1.0" encoding="utf-8"?>
<!-- Generator: Adobe Illustrator 18.1.1, SVG Export Plug-In . SVG Version: 6.00 Build 0)  -->
<svg version="1.1" id="图层_1" xmlns="http://www.w3.org/2000/svg" xmlns:xlink="http://www.w3.org/1999/xlink" x="0px" y="0px"
	 viewBox="0 0 120 120" enable-background="new 0 0 120 120" xml:space="preserve">
<g>
	<linearGradient id="SVGID_1_" gradientUnits="userSpaceOnUse" x1="1.036" y1="75.0678" x2="70.1842" y2="5.9197">
		<stop  offset="0" style="stop-color:#FFD62B"/>
		<stop  offset="1" style="stop-color:#FF9641"/>
	</linearGradient>
	<path fill-rule="evenodd" clip-rule="evenodd" fill="url(#SVGID_1_)" d="M27.2,100.4C-12.9,69.2,7.4,28.7,13.7,21.5
		c3.6-4-1-4.4-3.4-6c-1.1-0.7,2.3-4.5,7.8-5.7C23.7,8.5,26,9.2,26,9.2S36.8,0,51.6,0s17,6.3,17.7,8.9c2.6,0,7,1.8,7,3.7
		c0,1.9-5,2.4-15,2.4s-25.7,4.9-38,17.2S1.6,74.7,27.2,100.4z"/>
	<linearGradient id="SVGID_2_" gradientUnits="userSpaceOnUse" x1="58.5915" y1="53.6999" x2="110.1221" y2="105.2306">
		<stop  offset="0" style="stop-color:#FFD62B"/>
		<stop  offset="1" style="stop-color:#FF9641"/>
	</linearGradient>
	<path fill-rule="evenodd" clip-rule="evenodd" fill="url(#SVGID_2_)" d="M92.7,19.5c40.2,31.1,19.9,71.8,13.5,78.9
		c-3.6,4,1,4.4,3.4,6c1.1,0.7-2.3,4.5-7.8,5.7c-5.5,1.3-7.9,0.6-7.9,0.6S83.2,120,68.4,120s-17.1-6.3-17.7-8.9c-2.6,0-7-1.8-7-3.7
		c0-1.9,5-2.4,15-2.4s25.7-4.9,38-17.2C109.1,75.4,118.4,45.2,92.7,19.5z"/>
</g>
</svg>
