<?xml version="1.0" encoding="utf-8"?>
<!-- Generator: Adobe Illustrator 18.1.1, SVG Export Plug-In . SVG Version: 6.00 Build 0)  -->
<svg version="1.1" id="图层_1" xmlns="http://www.w3.org/2000/svg" xmlns:xlink="http://www.w3.org/1999/xlink" x="0px" y="0px"
	 viewBox="0 0 34.9 22.8" enable-background="new 0 0 34.9 22.8" xml:space="preserve">
<path fill="#FFFFFF" d="M11.4,12.7h19.2l-7.9,8c-0.5,0.5-0.5,1.3,0,1.8c0.5,0.5,1.3,0.5,1.8,0l10.1-10.2c0.5-0.5,0.5-1.3,0-1.8
	L24.4,0.4C24.1,0.1,23.8,0,23.5,0s-0.6,0.1-0.9,0.4c-0.5,0.5-0.5,1.3,0,1.8l7.9,8H11.4c-4.9,0-8.8-4-8.8-8.9C2.5,0.6,2,0,1.3,0
	C0.6,0,0,0.6,0,1.3C0,7.6,5.1,12.7,11.4,12.7z"/>
</svg>
