<?xml version="1.0" encoding="utf-8"?>
<!-- Generator: Adobe Illustrator 18.1.1, SVG Export Plug-In . SVG Version: 6.00 Build 0)  -->
<svg version="1.2" baseProfile="tiny" id="图层_1"
	 xmlns="http://www.w3.org/2000/svg" xmlns:xlink="http://www.w3.org/1999/xlink" x="0px" y="0px" viewBox="0 0 19.5 19.5"
	 xml:space="preserve">
<g>
	<path fill="#808080" d="M18.5,19.5c-0.3,0-0.5-0.1-0.7-0.3L0.3,1.7c-0.4-0.4-0.4-1,0-1.4c0.4-0.4,1-0.4,1.4,0l17.5,17.5
		c0.4,0.4,0.4,1,0,1.4C19,19.4,18.8,19.5,18.5,19.5z"/>
	<path fill="#808080" d="M1,19.5c-0.3,0-0.5-0.1-0.7-0.3c-0.4-0.4-0.4-1,0-1.4L17.8,0.3c0.4-0.4,1-0.4,1.4,0c0.4,0.4,0.4,1,0,1.4
		L1.7,19.2C1.5,19.4,1.3,19.5,1,19.5z"/>
</g>
</svg>
