<?xml version="1.0" encoding="utf-8"?>
<!-- Generator: Adobe Illustrator 18.1.1, SVG Export Plug-In . SVG Version: 6.00 Build 0)  -->
<svg version="1.1" id="图层_1" xmlns="http://www.w3.org/2000/svg" xmlns:xlink="http://www.w3.org/1999/xlink" x="0px" y="0px"
	 viewBox="0 0 60 60" enable-background="new 0 0 60 60" xml:space="preserve">
<path fill="#FFFFFF" d="M38.1,20c-0.3-0.2-0.6-0.4-1-0.4c-0.5,0-1,0.2-1.3,0.6c-0.3,0.3-0.4,0.8-0.4,1.2c0,0.4,0.3,0.8,0.6,1.1
	c2.3,1.9,3.7,4.6,3.7,7.6c0,2.6-1,5-2.9,6.9c-1.8,1.8-4.3,2.8-6.9,2.8c-2.6,0-5-1-6.9-2.8c-1.8-1.8-2.9-4.3-2.9-6.9
	c0-3,1.3-5.7,3.7-7.6c0.3-0.3,0.6-0.7,0.6-1.1c0-0.4-0.1-0.9-0.3-1.2c-0.3-0.4-0.8-0.6-1.3-0.6l0,0c-0.4,0-0.7,0.1-1,0.4
	c-1.5,1.2-2.7,2.7-3.6,4.4c-0.9,1.8-1.3,3.7-1.3,5.7c0,3.5,1.4,6.7,3.8,9.1c2.5,2.4,5.7,3.8,9.2,3.8c3.5,0,6.7-1.3,9.2-3.8
	c2.5-2.4,3.8-5.7,3.8-9.1C43,26.1,41.2,22.4,38.1,20L38.1,20z M30,32.4c0.9,0,1.7-0.6,1.7-1.5V18.7c0-0.9-0.8-1.7-1.7-1.7
	c-0.9,0-1.6,0.8-1.6,1.7v12.2C28.4,31.8,29.1,32.4,30,32.4L30,32.4z M30,32.4"/>
</svg>
