<?xml version="1.0" encoding="utf-8"?>
<!-- Generator: Adobe Illustrator 18.1.1, SVG Export Plug-In . SVG Version: 6.00 Build 0)  -->
<svg version="1.1" baseProfile="tiny" id="图层_1"
	 xmlns="http://www.w3.org/2000/svg" xmlns:xlink="http://www.w3.org/1999/xlink" x="0px" y="0px" viewBox="0 0 44 44"
	 xml:space="preserve">
<g>
	<path fill="#808080" d="M28,43.5L28,43.5c-0.5,0-1.1-0.1-1.6-0.4c-0.3-0.2-0.6-0.4-0.9-0.7L23,39c-0.7,0-1.3,0-2,0l-2.6,3.3
		c-1,1.2-2.7,1.5-4,0.8l-6.9-4c-1.3-0.8-1.9-2.4-1.4-3.8l1.6-3.9c-0.4-0.5-0.7-1.1-1-1.7L2.7,29C1.2,28.8,0,27.5,0,25.9l0-8
		c0-1.5,1.1-2.8,2.6-3.1l4.2-0.6c0.2-0.3,0.3-0.6,0.5-0.9c0.2-0.3,0.3-0.6,0.5-0.9L6.2,8.7c-0.6-1.5,0-3.1,1.3-3.8l6.9-4
		c1.3-0.7,3.1-0.4,4,0.7L21,5c0.7,0,1.3,0,2,0l2.6-3.3c1-1.2,2.7-1.5,4-0.8l6.9,4c1.3,0.8,1.9,2.4,1.4,3.8l-1.6,3.9
		c0.4,0.6,0.7,1.1,1,1.7l4.1,0.6c1.6,0.3,2.7,1.5,2.7,3.1l0,8c0,1.5-1.1,2.8-2.6,3.1l-4.2,0.6c-0.2,0.3-0.3,0.6-0.5,0.9
		c-0.2,0.3-0.3,0.6-0.5,0.9l1.6,3.9c0.6,1.5,0,3.1-1.3,3.8l-6.9,4C29.1,43.4,28.6,43.5,28,43.5z M23.9,36.9l3.3,4.2
		c0.1,0.1,0.2,0.2,0.3,0.3c0.2,0.1,0.4,0.2,0.6,0.2l0,0c0.2,0,0.4-0.1,0.6-0.1l6.9-4c0.5-0.3,0.7-0.8,0.5-1.4l-2-4.9l0.3-0.4
		c0.3-0.4,0.5-0.8,0.7-1.1c0.2-0.4,0.4-0.8,0.6-1.2l0.2-0.5l5.2-0.7C41.6,27,42,26.6,42,26l0-8c0-0.6-0.4-1-1-1.1l-5.2-0.7l-0.2-0.5
		c-0.4-0.8-0.8-1.6-1.3-2.4L34,12.9l2-4.9c0.2-0.5,0-1.1-0.5-1.3l-6.9-4c-0.5-0.3-1.1-0.2-1.4,0.3L23.9,7l-0.5,0
		c-0.9-0.1-1.8-0.1-2.7,0L20.1,7l-3.3-4.2c-0.3-0.4-1-0.5-1.4-0.3l-6.9,4C8.1,6.9,7.9,7.4,8.1,8l2,4.9l-0.3,0.4
		c-0.3,0.4-0.5,0.8-0.7,1.1c-0.2,0.4-0.4,0.8-0.6,1.2l-0.2,0.5l-5.2,0.7C2.4,17,2,17.4,2,18l0,8c0,0.5,0.4,1,1,1.1l5.2,0.7l0.2,0.5
		c0.4,0.8,0.8,1.6,1.4,2.4l0.3,0.4l-2,4.9c-0.2,0.5,0,1.1,0.5,1.3l6.9,4c0.5,0.3,1.1,0.1,1.4-0.3l3.2-4.1l0.5,0
		c0.9,0.1,1.8,0.1,2.7,0L23.9,36.9z"/>
	<path fill="#808080" d="M22,30.5c-4.7,0-8.5-3.8-8.5-8.5c0-4.7,3.8-8.5,8.5-8.5s8.5,3.8,8.5,8.5C30.5,26.7,26.7,30.5,22,30.5z
		 M22,15.5c-3.6,0-6.5,2.9-6.5,6.5c0,3.6,2.9,6.5,6.5,6.5s6.5-2.9,6.5-6.5C28.5,18.4,25.6,15.5,22,15.5z"/>
</g>
</svg>
