<?xml version="1.0" encoding="utf-8"?>
<!-- Generator: Adobe Illustrator 18.1.1, SVG Export Plug-In . SVG Version: 6.00 Build 0)  -->
<svg version="1.1" baseProfile="tiny" id="图层_1"
	 xmlns="http://www.w3.org/2000/svg" xmlns:xlink="http://www.w3.org/1999/xlink" x="0px" y="0px" viewBox="0 0 26 26"
	 xml:space="preserve">
<g>
	<path fill-rule="evenodd" fill="#FF9641" d="M20.4,3.3h-4.2C16.3,1.5,14.8,0,13,0S9.8,1.5,9.8,3.3H5.6c-1.7,0-3,1.3-3,3V23
		c0,1.7,1.3,3,3,3h14.8c1.7,0,3-1.3,3-3V6.3C23.4,4.6,22.1,3.3,20.4,3.3z M13,2.6c0.7,0,1.3,0.6,1.3,1.3c0,0.7-0.6,1.3-1.3,1.3
		s-1.3-0.6-1.3-1.3C11.7,3.2,12.3,2.6,13,2.6z M15,22.1H7.8c-0.7,0-1.3-0.6-1.3-1.3s0.6-1.3,1.3-1.3H15c0.7,0,1.3,0.6,1.3,1.3
		S15.7,22.1,15,22.1z M18.2,16.3H7.8c-0.7,0-1.3-0.6-1.3-1.3c0-0.7,0.6-1.3,1.3-1.3h10.4c0.7,0,1.3,0.6,1.3,1.3
		C19.5,15.7,18.9,16.3,18.2,16.3z M18.2,10.4H7.8c-0.7,0-1.3-0.6-1.3-1.3s0.6-1.3,1.3-1.3h10.4c0.7,0,1.3,0.6,1.3,1.3
		S18.9,10.4,18.2,10.4z"/>
</g>
</svg>
