<?xml version="1.0" encoding="utf-8"?>
<!-- Generator: Adobe Illustrator 18.1.1, SVG Export Plug-In . SVG Version: 6.00 Build 0)  -->
<svg version="1.1" id="图层_1" xmlns="http://www.w3.org/2000/svg" xmlns:xlink="http://www.w3.org/1999/xlink" x="0px" y="0px"
	 viewBox="0 0 36 31" enable-background="new 0 0 36 31" xml:space="preserve">
<g>
	<g>
		<path fill-rule="evenodd" clip-rule="evenodd" fill="#FFFFFF" d="M1.5,3h33C35.3,3,36,2.3,36,1.5C36,0.7,35.3,0,34.5,0h-33
			C0.7,0,0,0.7,0,1.5C0,2.3,0.7,3,1.5,3z M34.5,14h-33C0.7,14,0,14.7,0,15.5C0,16.3,0.7,17,1.5,17h33c0.8,0,1.5-0.7,1.5-1.5
			C36,14.7,35.3,14,34.5,14z M34.5,28h-33C0.7,28,0,28.7,0,29.5C0,30.3,0.7,31,1.5,31h33c0.8,0,1.5-0.7,1.5-1.5
			C36,28.7,35.3,28,34.5,28z"/>
	</g>
</g>
</svg>
