<?xml version="1.0" encoding="utf-8"?>
<!-- Generator: Adobe Illustrator 18.1.1, SVG Export Plug-In . SVG Version: 6.00 Build 0)  -->
<svg version="1.1" id="图层_1" xmlns="http://www.w3.org/2000/svg" xmlns:xlink="http://www.w3.org/1999/xlink" x="0px" y="0px"
	 viewBox="0 0 34 34" enable-background="new 0 0 34 34" xml:space="preserve">
<g>
	<path fill="#FFFFFF" d="M32.6,15.8c0.2,0,0.4,0,0.5,0c0.6,0.2,0.9,0.7,0.9,1.3c-0.1,0.6-0.6,1-1.2,1.1c-0.1,0-0.2,0-0.2,0
		c-10.4,0-20.8,0-31.2,0c-0.7,0-1.2-0.3-1.3-0.9c-0.2-0.7,0.3-1.4,1.1-1.5c0.1,0,0.3,0,0.4,0C8.8,15.8,23.7,15.8,32.6,15.8z"/>
	<path fill="#FFFFFF" d="M10.9,0c0.5,0,0.9,0.2,1.1,0.7c0.2,0.5,0.1,0.9-0.2,1.3c-0.2,0.3-0.6,0.4-1,0.4c-0.6,0-1.2,0-1.8,0
		c-1.8,0-3.5,0-5.3,0c-0.9,0-1.4,0.5-1.4,1.4c0,2.4,0,4.7,0,7.1c0,0.9-0.8,1.4-1.6,1.2C0.3,11.9,0,11.5,0,11c0-2.5,0-5,0-7.5
		C0,1.6,1.6,0.1,3.6,0C6.1,0,8.3,0,10.9,0z"/>
	<path fill="#FFFFFF" d="M7.2,34c-1.2,0-2.4,0-3.6,0c-1.7,0-3.1-1.2-3.5-2.8C0,30.9,0,30.6,0,30.4c0-2.4,0-4.8,0-7.2
		c0-0.7,0.5-1.3,1.2-1.3c0.7,0,1.2,0.5,1.2,1.3c0,2.3,0,4.7,0,7c0,0.9,0.5,1.4,1.4,1.4c2.3,0,4.7,0,7,0c0.7,0,1.2,0.4,1.3,1.1
		c0.1,0.7-0.5,1.3-1.2,1.3C9.7,34,8.4,34,7.2,34L7.2,34L7.2,34z M7.2,34"/>
	<path fill="#FFFFFF" d="M26.8,34c-1.3,0-2.5,0-3.8,0c-0.7,0-1.2-0.6-1.2-1.3c0-0.6,0.6-1.1,1.2-1.1c0.8,0,1.6,0,2.5,0
		c1.6,0,3.1,0,4.7,0c0.9,0,1.4-0.5,1.4-1.4c0-2.4,0-4.7,0-7.1c0-0.6,0.3-1.1,0.9-1.2c0.8-0.2,1.5,0.4,1.5,1.2c0,2.4,0,4.8,0,7.2
		c0,0.2,0,0.4,0,0.6c-0.2,1.6-1.7,3-3.4,3.1C29.3,34,28.1,34,26.8,34C26.8,34,26.8,34,26.8,34L26.8,34z"/>
	<path fill="#FFFFFF" d="M34,10.9c0,0.6-0.4,1-0.9,1.2c-0.5,0.1-1.1-0.1-1.3-0.5c-0.1-0.2-0.2-0.5-0.2-0.7c0-2.3,0-4.6,0-6.9
		c0-1-0.5-1.5-1.4-1.5c-2.3,0-4.6,0-7,0c-0.7,0-1.3-0.5-1.3-1.2c0-0.7,0.5-1.3,1.2-1.3c0.4,0,0.9,0,1.3,0c2,0,3.9,0,5.9,0
		c1.8,0,3.2,1.2,3.6,2.9C34,3.2,34,3.5,34,3.7C34,5.3,34,8.7,34,10.9z"/>
</g>
</svg>
