<?xml version="1.0" encoding="utf-8"?>
<!-- Generator: Adobe Illustrator 18.1.1, SVG Export Plug-In . SVG Version: 6.00 Build 0)  -->
<svg version="1.1" baseProfile="basic" id="图层_1"
	 xmlns="http://www.w3.org/2000/svg" xmlns:xlink="http://www.w3.org/1999/xlink" x="0px" y="0px" viewBox="0 0 18 18"
	 xml:space="preserve">
<g>
	<path fill="#FF9641" d="M17.5,7.9h-1.2c-0.3,0-0.6,0.3-0.6,0.6v7.3c0,0,0,0,0,0H2.3c0,0,0,0,0,0V8.4c0-0.3-0.3-0.6-0.6-0.6H0.6
		C0.3,7.9,0,8.1,0,8.4v9C0,17.7,0.3,18,0.6,18h16.9c0.3,0,0.6-0.3,0.6-0.6v-9C18,8.1,17.8,7.9,17.5,7.9z M7.9,11.8
		c0,0.3,0.3,0.6,0.6,0.6h1.1c0.3,0,0.6-0.3,0.6-0.6V4.5h3.4L9,0L4.5,4.5h3.4V11.8z"/>
</g>
</svg>
