<?xml version="1.0" encoding="utf-8"?>
<!-- Generator: Adobe Illustrator 18.1.1, SVG Export Plug-In . SVG Version: 6.00 Build 0)  -->
<svg version="1.1" baseProfile="basic" id="图层_1"
	 xmlns="http://www.w3.org/2000/svg" xmlns:xlink="http://www.w3.org/1999/xlink" x="0px" y="0px" viewBox="0 0 18 18"
	 xml:space="preserve">
<g>
	<path fill="#FFFFFF" d="M17.1,0.4L0.5,9.1c-0.7,0.4-0.7,0.9,0.1,1.2l2.1,0.8c0.7,0.3,1.8,0.1,2.4-0.3l9.2-7.3
		c0.6-0.5,0.7-0.4,0.1,0.2l-7.3,7.8C6.6,12,6.8,12.7,7.5,13l0.2,0.1c0.7,0.3,1.9,0.7,2.6,1l2.3,1c0.7,0.3,1.3,0.5,1.3,0.5
		c0,0,0,0,0,0c0,0,0.2-0.6,0.4-1.3l3.6-13.2C18.1,0.4,17.8,0.1,17.1,0.4z M7.2,13.9l-1.6-0.7c-0.7-0.3-1.1,0.1-0.8,0.8
		c0,0,1.5,3.6,1.5,3.8c0,0.1,1.4-2.2,1.4-2.2C8.2,14.9,7.9,14.2,7.2,13.9z"/>
</g>
</svg>
