<?xml version="1.0" encoding="utf-8"?>
<!-- Generator: Adobe Illustrator 18.1.1, SVG Export Plug-In . SVG Version: 6.00 Build 0)  -->
<svg version="1.1" id="图层_1" xmlns="http://www.w3.org/2000/svg" xmlns:xlink="http://www.w3.org/1999/xlink" x="0px" y="0px"
	 viewBox="0 0 60 60" enable-background="new 0 0 60 60" xml:space="preserve">
<g>
	<path fill="#FFFFFF" d="M37.3,44.3h5.4v3.9H60V34.8c0-1.6-1.3-2.8-2.8-2.8h-2.4v10.9h-5.5V32H34.8c-1.6,0-2.8,1.3-2.8,2.8v22.4
		c0,1.6,1.3,2.8,2.8,2.8h2.5V44.3z"/>
	<path fill="#FFFFFF" d="M48.6,53.7h-5.8V60h5.8V53.7z"/>
	<path fill="#FFFFFF" d="M54,53.7V60h3.2c1.6,0,2.8-1.3,2.8-2.8v-3.4H54z"/>
	<path fill="#FFFFFF" d="M25.2,32H2.8C1.3,32,0,33.3,0,34.8v22.4C0,58.7,1.3,60,2.8,60h22.4c1.6,0,2.8-1.3,2.8-2.8V34.8
		C28,33.3,26.7,32,25.2,32z M22.6,54.6H5.4V37.4h17.1V54.6z"/>
	<path fill="#FFFFFF" d="M14,49.6c2,0,3.6-1.6,3.6-3.6c0-2-1.6-3.6-3.6-3.6S10.4,44,10.4,46C10.4,48,12,49.6,14,49.6z"/>
	<path fill="#FFFFFF" d="M25.2,0H2.8C1.3,0,0,1.3,0,2.8v22.4C0,26.7,1.3,28,2.8,28h22.4c1.6,0,2.8-1.3,2.8-2.8V2.8
		C28,1.3,26.7,0,25.2,0z M22.6,22.6H5.4V5.4h17.1V22.6z"/>
	<path fill="#FFFFFF" d="M14,17.6c2,0,3.6-1.6,3.6-3.6c0-2-1.6-3.6-3.6-3.6S10.4,12,10.4,14C10.4,16,12,17.6,14,17.6z"/>
	<path fill="#FFFFFF" d="M57.2,0H34.8C33.3,0,32,1.3,32,2.8v22.4c0,1.6,1.3,2.8,2.8,2.8h22.4c1.6,0,2.8-1.3,2.8-2.8V2.8
		C60,1.3,58.7,0,57.2,0z M54.6,22.6H37.4V5.4h17.1V22.6z"/>
	<path fill="#FFFFFF" d="M46,17.6c2,0,3.6-1.6,3.6-3.6c0-2-1.6-3.6-3.6-3.6c-2,0-3.6,1.6-3.6,3.6C42.4,16,44,17.6,46,17.6z"/>
</g>
</svg>
