<?xml version="1.0" encoding="utf-8"?>
<!-- Generator: Adobe Illustrator 18.1.1, SVG Export Plug-In . SVG Version: 6.00 Build 0)  -->
<svg version="1.1" baseProfile="tiny" id="图层_1"
	 xmlns="http://www.w3.org/2000/svg" xmlns:xlink="http://www.w3.org/1999/xlink" x="0px" y="0px" viewBox="0 0 25 25"
	 xml:space="preserve">
<path fill="#FF9641" d="M12.5,1C18.8,1,24,6.2,24,12.5S18.8,24,12.5,24S1,18.8,1,12.5S6.2,1,12.5,1 M12.5,0C5.6,0,0,5.6,0,12.5
	S5.6,25,12.5,25S25,19.4,25,12.5S19.4,0,12.5,0L12.5,0z"/>
<g>
	<path fill-rule="evenodd" fill="#FF9641" d="M17.5,12h-10C7.2,12,7,12.2,7,12.5C7,12.8,7.2,13,7.5,13h10c0.3,0,0.5-0.2,0.5-0.5
		C18,12.2,17.8,12,17.5,12z"/>
</g>
</svg>
