<?xml version="1.0" encoding="utf-8"?>
<!-- Generator: Adobe Illustrator 18.1.1, SVG Export Plug-In . SVG Version: 6.00 Build 0)  -->
<svg version="1.1" id="图层_1" xmlns="http://www.w3.org/2000/svg" xmlns:xlink="http://www.w3.org/1999/xlink" x="0px" y="0px"
	 viewBox="0 0 100 100" enable-background="new 0 0 100 100" xml:space="preserve">
<g>
	<g>
		<path fill="#FF9641" d="M71.6,48.7c-1.2-0.4-2-0.6-1.4-2.2c1.4-3.5,1.5-6.5,0-8.6c-2.8-4-10.4-3.8-19.2-0.1c0,0-2.7,1.2-2-1
			c1.3-4.3,1.1-8-1-10.1c-4.8-4.8-17.4,0.2-28.2,11.1C11.7,45.9,7,54.6,7,62c0,14.3,18.2,23,36.1,23C66.5,85,82,71.3,82,60.5
			C82,54,76.5,50.2,71.6,48.7z M43.1,79.9c-14.2,1.4-26.5-5.1-27.5-14.4c-0.9-9.4,9.9-18.1,24.1-19.6c14.2-1.4,26.5,5.1,27.5,14.4
			C68.2,69.7,57.4,78.5,43.1,79.9z M87.1,22.6c-5.6-6.3-14-8.7-21.7-7h0c-1.8,0.4-2.9,2.1-2.5,3.9c0.4,1.8,2.1,2.9,3.9,2.5
			c5.5-1.2,11.4,0.5,15.4,5c4,4.5,5.1,10.6,3.4,15.9l0,0c-0.6,1.7,0.4,3.6,2.1,4.2c1.7,0.6,3.6-0.4,4.1-2.1c0,0,0,0,0,0
			C94.3,37.4,92.8,28.8,87.1,22.6z M77.2,43.2c1.5,0.5,3.1-0.3,3.6-1.8c1.2-3.7,0.4-7.8-2.3-10.9c-2.7-3.1-6.8-4.2-10.6-3.4
			c-1.5,0.3-2.5,1.8-2.2,3.4c0.3,1.5,1.8,2.5,3.4,2.2v0c1.8-0.4,3.8,0.2,5.2,1.7c1.3,1.5,1.7,3.5,1.1,5.3h0
			C74.9,41.1,75.7,42.7,77.2,43.2z M44.5,53.1c-6.8-1.8-14.4,1.6-17.4,7.6c-3,6.1-0.1,12.9,6.7,15.1c7.1,2.3,15.4-1.2,18.4-7.8
			C55.1,61.6,51.6,54.9,44.5,53.1z M39.4,68.7c-1.4,2.2-4.3,3.2-6.5,2.2c-2.2-1-2.8-3.6-1.5-5.7c1.4-2.1,4.2-3.1,6.4-2.2
			C40,63.9,40.7,66.5,39.4,68.7z M43.9,62.9c-0.5,0.9-1.6,1.3-2.5,0.9c-0.8-0.4-1.1-1.3-0.6-2.1c0.5-0.8,1.6-1.2,2.4-0.9
			C44.1,61,44.4,62,43.9,62.9z"/>
	</g>
</g>
</svg>
