<?xml version="1.0" encoding="utf-8"?>
<!-- Generator: Adobe Illustrator 18.1.1, SVG Export Plug-In . SVG Version: 6.00 Build 0)  -->
<svg version="1.1" id="图层_1" xmlns="http://www.w3.org/2000/svg" xmlns:xlink="http://www.w3.org/1999/xlink" x="0px" y="0px"
	 viewBox="0 0 30.3 30.3" enable-background="new 0 0 30.3 30.3" xml:space="preserve">
<g>
	<path fill-rule="evenodd" clip-rule="evenodd" fill="#808080" d="M1.7,0.3L30,28.6c0.4,0.4,0.4,1,0,1.4c-0.4,0.4-1,0.4-1.4,0
		L0.3,1.7c-0.4-0.4-0.4-1,0-1.4C0.7-0.1,1.3-0.1,1.7,0.3z"/>
	<path fill-rule="evenodd" clip-rule="evenodd" fill="#808080" d="M30,0.3c0.4,0.4,0.4,1,0,1.4L1.7,30c-0.4,0.4-1,0.4-1.4,0
		c-0.4-0.4-0.4-1,0-1.4L28.6,0.3C29-0.1,29.6-0.1,30,0.3z"/>
</g>
</svg>
