<?xml version="1.0" encoding="utf-8"?>
<!-- Generator: Adobe Illustrator 18.1.1, SVG Export Plug-In . SVG Version: 6.00 Build 0)  -->
<svg version="1.1" baseProfile="tiny" id="图层_1"
	 xmlns="http://www.w3.org/2000/svg" xmlns:xlink="http://www.w3.org/1999/xlink" x="0px" y="0px" viewBox="0 0 44 44"
	 xml:space="preserve">
<g>
	<path fill="#808080" d="M22,25.2c-6.9,0-12.6-5.6-12.6-12.6S15,0,22,0c6.9,0,12.6,5.6,12.6,12.6S28.9,25.2,22,25.2z M22,2
		c-5.8,0-10.6,4.7-10.6,10.6c0,5.8,4.7,10.6,10.6,10.6c5.8,0,10.6-4.7,10.6-10.6C32.6,6.7,27.8,2,22,2z"/>
	<path fill="#808080" d="M3.1,44c-0.6,0-1-0.4-1-1C2.1,32.1,11,23.2,22,23.2c0.6,0,1,0.4,1,1s-0.4,1-1,1c-9.8,0-17.8,8-17.8,17.8
		C4.1,43.6,3.7,44,3.1,44z"/>
	<path fill="#808080" d="M40.9,31.1h-16c-0.6,0-1-0.4-1-1s0.4-1,1-1h16c0.6,0,1,0.4,1,1S41.4,31.1,40.9,31.1z"/>
	<path fill="#808080" d="M40.9,37.4h-16c-0.6,0-1-0.4-1-1s0.4-1,1-1h16c0.6,0,1,0.4,1,1S41.4,37.4,40.9,37.4z"/>
	<path fill="#808080" d="M40.9,43.7h-16c-0.6,0-1-0.4-1-1s0.4-1,1-1h16c0.6,0,1,0.4,1,1S41.4,43.7,40.9,43.7z"/>
</g>
</svg>
