<?xml version="1.0" encoding="utf-8"?>
<!-- Generator: Adobe Illustrator 18.1.1, SVG Export Plug-In . SVG Version: 6.00 Build 0)  -->
<svg version="1.1" id="图层_1" xmlns="http://www.w3.org/2000/svg" xmlns:xlink="http://www.w3.org/1999/xlink" x="0px" y="0px"
	 viewBox="0 0 60 52" enable-background="new 0 0 60 52" xml:space="preserve">
<g>
	<path fill="#FFFFFF" d="M30,19.4c-5.5,0-9.9,4.6-9.6,10.2c0.2,4.9,4.2,8.9,9.1,9.1c0.2,0,0.3,0,0.5,0c5.5,0,9.9-4.6,9.6-10.2
		c-0.2-4.9-4.2-8.9-9.1-9.1C30.3,19.4,30.2,19.4,30,19.4"/>
	<path fill="#FFFFFF" d="M30,44.1c-8.4,0-15.3-7-15-15.5c0.3-7.9,6.6-14.3,14.5-14.5c0.2,0,0.3,0,0.5,0c8.4,0,15.3,7,15,15.5
		c-0.3,7.9-6.6,14.3-14.5,14.5C30.3,44.1,30.2,44.1,30,44.1 M37.6,0H22.4c-0.9,0-1.7,0.4-2.3,1l-3.8,4c-0.6,0.7-1.6,1.1-2.5,1.1H6.4
		C2.9,6.1,0,9,0,12.5v33C0,49.1,2.9,52,6.4,52h47.1c3.6,0,6.4-2.9,6.4-6.4v-33c0-3.6-2.9-6.4-6.4-6.4h-7.3c-0.9,0-1.8-0.4-2.5-1.1
		L40,1C39.3,0.4,38.5,0,37.6,0"/>
</g>
</svg>
