<?xml version="1.0" encoding="utf-8"?>
<!-- Generator: Adobe Illustrator 18.1.1, SVG Export Plug-In . SVG Version: 6.00 Build 0)  -->
<svg version="1.1" baseProfile="tiny" id="图层_1"
	 xmlns="http://www.w3.org/2000/svg" xmlns:xlink="http://www.w3.org/1999/xlink" x="0px" y="0px" viewBox="0 0 30 30"
	 xml:space="preserve">
<path fill="#FF9641" d="M29,16H1c-0.5,0-1-0.4-1-1v0c0-0.5,0.4-1,1-1h28c0.5,0,1,0.4,1,1v0C30,15.6,29.6,16,29,16z"/>
<path fill="#FF9641" d="M16,1v28c0,0.5-0.4,1-1,1h0c-0.5,0-1-0.4-1-1V1c0-0.5,0.4-1,1-1h0C15.6,0,16,0.4,16,1z"/>
</svg>
