<?xml version="1.0" encoding="utf-8"?>
<!-- Generator: Adobe Illustrator 18.1.1, SVG Export Plug-In . SVG Version: 6.00 Build 0)  -->
<svg version="1.1" baseProfile="tiny" id="图层_1"
	 xmlns="http://www.w3.org/2000/svg" xmlns:xlink="http://www.w3.org/1999/xlink" x="0px" y="0px" viewBox="0 0 44 44"
	 xml:space="preserve">
<g>
	<path fill="#808080" d="M17.8,42H3.5c-0.6,0-1-0.5-1-1.1V3.1c0-0.6,0.5-1.1,1-1.1h33c0.6,0,1,0.5,1,1.1v12c0,0.6,0.4,1,1,1
		s1-0.4,1-1v-12c0-1.7-1.4-3.1-3-3.1h-33c-1.7,0-3,1.4-3,3.1v37.9c0,1.7,1.4,3.1,3,3.1h14.3c0.5,0,1-0.4,1-1
		C18.8,42.4,18.3,42,17.8,42z M10.3,11.3c-0.5,0-1,0.4-1,1c0,0.6,0.4,1,1,1h19.6c0.5,0,1-0.4,1-1c0-0.6-0.4-1-1-1H10.3z M18.7,20.9
		h-8.4c-0.5,0-1,0.4-1,1c0,0.6,0.4,1,1,1h8.4c0.5,0,1-0.4,1-1C19.7,21.4,19.2,20.9,18.7,20.9z M14,32.9c0.5,0,1-0.4,1-1
		c0-0.6-0.4-1-1-1h-3.7c-0.5,0-1,0.4-1,1c0,0.6,0.4,1,1,1H14z M32.2,21c-6.2,0-11.3,5.1-11.3,11.4c0,6.3,5.1,11.4,11.3,11.4
		s11.3-5.1,11.3-11.4C43.5,26.1,38.4,21,32.2,21z M32.2,41.8c-5.2,0-9.3-4.2-9.3-9.4c0-5.2,4.2-9.4,9.3-9.4c5.2,0,9.3,4.2,9.3,9.4
		C41.5,37.6,37.3,41.8,32.2,41.8z M37.1,32.2h-4.7v-5c0-0.6-0.4-1-1-1c-0.5,0-1,0.4-1,1v6c0,0.6,0.4,1,1,1h5.7c0.5,0,1-0.4,1-1
		C38.1,32.6,37.7,32.2,37.1,32.2z"/>
</g>
</svg>
