<?xml version="1.0" encoding="utf-8"?>
<!-- Generator: Adobe Illustrator 18.1.1, SVG Export Plug-In . SVG Version: 6.00 Build 0)  -->
<svg version="1.1" baseProfile="tiny" id="图层_1"
	 xmlns="http://www.w3.org/2000/svg" xmlns:xlink="http://www.w3.org/1999/xlink" x="0px" y="0px" viewBox="0 0 18 18"
	 xml:space="preserve">
<g>
	<g>
		<path fill="#FFFFFF" d="M7.8,2.3c3,0,5.5,2.5,5.5,5.5s-2.5,5.5-5.5,5.5s-5.5-2.5-5.5-5.5S4.7,2.3,7.8,2.3 M7.8,1.3
			c-3.6,0-6.5,2.9-6.5,6.5c0,3.6,2.9,6.5,6.5,6.5c3.6,0,6.5-2.9,6.5-6.5C14.3,4.2,11.4,1.3,7.8,1.3L7.8,1.3z"/>
	</g>
	<path fill="#FFFFFF" d="M16.2,16.7c-0.1,0-0.3,0-0.4-0.1l-4.2-4.2c-0.2-0.2-0.2-0.5,0-0.7s0.5-0.2,0.7,0l4.2,4.2
		c0.2,0.2,0.2,0.5,0,0.7C16.5,16.7,16.3,16.7,16.2,16.7z"/>
</g>
</svg>
