<?xml version="1.0" encoding="utf-8"?>
<!-- Generator: Adobe Illustrator 18.1.1, SVG Export Plug-In . SVG Version: 6.00 Build 0)  -->
<svg version="1.1" id="图层_1" xmlns="http://www.w3.org/2000/svg" xmlns:xlink="http://www.w3.org/1999/xlink" x="0px" y="0px"
	 viewBox="0 0 30 30" enable-background="new 0 0 30 30" xml:space="preserve">
<g>
	<path fill-rule="evenodd" clip-rule="evenodd" fill="#FF9641" d="M15,7c0.6,0,1,0.4,1,1v21c0,0.6-0.4,1-1,1s-1-0.4-1-1V8
		C14,7.4,14.4,7,15,7z"/>
	<path fill-rule="evenodd" clip-rule="evenodd" fill="#FF9641" d="M2,0h26c0.6,0,1,0.4,1,1s-0.4,1-1,1H2C1.4,2,1,1.6,1,1S1.4,0,2,0z
		"/>
	<path fill-rule="evenodd" clip-rule="evenodd" fill="#FF9641" d="M13.6,6.3c0.8-0.8,2-0.8,2.8,0l12,12c0.4,0.4,0.4,1,0,1.4
		c-0.4,0.4-1,0.4-1.4,0L13.6,6.3z"/>
	<path fill-rule="evenodd" clip-rule="evenodd" fill="#FF9641" d="M1.6,18.3l12-12c0.8-0.8,2-0.8,2.8,0L3,19.7c-0.4,0.4-1,0.4-1.4,0
		C1.2,19.3,1.2,18.7,1.6,18.3z"/>
</g>
</svg>
