<?xml version="1.0" encoding="utf-8"?>
<!-- Generator: Adobe Illustrator 18.1.1, SVG Export Plug-In . SVG Version: 6.00 Build 0)  -->
<svg version="1.1" id="图层_1" xmlns="http://www.w3.org/2000/svg" xmlns:xlink="http://www.w3.org/1999/xlink" x="0px" y="0px"
	 viewBox="0 0 31 34" enable-background="new 0 0 31 34" xml:space="preserve">
<path fill-rule="evenodd" clip-rule="evenodd" fill="#FFFFFF" d="M28,27.8h-2.2V9.2c0-2.2-1.8-4-4-4H6.2V3c0-1.7,1.3-3,3-3H28
	c1.7,0,3,1.3,3,3v21.8C31,26.4,29.6,27.8,28,27.8z M24.8,9.2V31c0,1.7-1.3,3-3,3H3c-1.7,0-3-1.3-3-3V9.2c0-1.7,1.3-3,3-3h18.8
	C23.4,6.2,24.8,7.5,24.8,9.2z M18.5,13.5h-12C6.2,13.5,6,13.8,6,14c0,0.3,0.2,0.5,0.5,0.5h12c0.3,0,0.5-0.2,0.5-0.5
	C19,13.8,18.8,13.5,18.5,13.5z M18.5,19.5h-12C6.2,19.5,6,19.8,6,20s0.2,0.5,0.5,0.5h12c0.3,0,0.5-0.2,0.5-0.5S18.8,19.5,18.5,19.5z
	 M18.5,25.5h-12C6.2,25.5,6,25.8,6,26s0.2,0.5,0.5,0.5h12c0.3,0,0.5-0.2,0.5-0.5S18.8,25.5,18.5,25.5z"/>
</svg>
