<?xml version="1.0" encoding="utf-8"?>
<!-- Generator: Adobe Illustrator 18.1.1, SVG Export Plug-In . SVG Version: 6.00 Build 0)  -->
<svg version="1.1" baseProfile="tiny" id="图层_1"
	 xmlns="http://www.w3.org/2000/svg" xmlns:xlink="http://www.w3.org/1999/xlink" x="0px" y="0px" viewBox="0 0 26 26"
	 xml:space="preserve">
<path fill-rule="evenodd" fill="#FF9641" d="M23.5,16.8h-4.7l-2.5,2.6v-2.6h-1.1c-1,0-1.8-0.8-1.8-1.8V9.5c0-1,0.8-1.8,1.8-1.8h8.3
	c1,0,1.8,0.8,1.8,1.8V15C25.4,16,24.5,16.8,23.5,16.8z M16,10.8c-0.6,0-1.1,0.5-1.1,1.1c0,0.6,0.5,1.1,1.1,1.1
	c0.6,0,1.1-0.5,1.1-1.1C17.1,11.3,16.6,10.8,16,10.8z M19.4,10.8c-0.6,0-1.1,0.5-1.1,1.1c0,0.6,0.5,1.1,1.1,1.1
	c0.6,0,1.1-0.5,1.1-1.1C20.5,11.3,20,10.8,19.4,10.8z M22.8,10.8c-0.6,0-1.1,0.5-1.1,1.1c0,0.6,0.5,1.1,1.1,1.1
	c0.6,0,1.1-0.5,1.1-1.1C23.9,11.3,23.4,10.8,22.8,10.8z M12.2,8.4v7.5c0,1,0.8,1.8,1.8,1.8h1.3v4.2l4.1-4.2h0.7v5.5
	c0,1-0.8,1.8-1.8,1.8H2.5c-1,0-1.8-0.8-1.8-1.8V2.8c0-1,0.8-1.8,1.8-1.8h15.9c1,0,1.8,0.8,1.8,1.8v3.8H14C13,6.6,12.2,7.4,12.2,8.4z
	 M9.5,7H4.1C3.6,7,3.2,7.4,3.2,7.9s0.4,0.9,0.9,0.9h5.4c0.5,0,0.9-0.4,0.9-0.9S10,7,9.5,7z M9.5,11.4H4.1c-0.5,0-0.9,0.4-0.9,0.9
	c0,0.5,0.4,0.9,0.9,0.9h5.4c0.5,0,0.9-0.4,0.9-0.9C10.4,11.8,10,11.4,9.5,11.4z M9.5,15.7H4.1c-0.5,0-0.9,0.4-0.9,0.9
	c0,0.5,0.4,0.9,0.9,0.9h5.4c0.5,0,0.9-0.4,0.9-0.9C10.4,16.1,10,15.7,9.5,15.7z"/>
</svg>
