<?xml version="1.0" encoding="utf-8"?>
<!-- Generator: Adobe Illustrator 18.1.1, SVG Export Plug-In . SVG Version: 6.00 Build 0)  -->
<svg version="1.1" baseProfile="tiny" id="图层_1"
	 xmlns="http://www.w3.org/2000/svg" xmlns:xlink="http://www.w3.org/1999/xlink" x="0px" y="0px" viewBox="0 0 26 26"
	 xml:space="preserve">
<path fill-rule="evenodd" fill="#FF9641" d="M21.5,24.7H4.6c-1.8,0-3.3-1.5-3.3-3.3V4.6c0-1.8,1.5-3.3,3.3-3.3h16.9
	c1.8,0,3.3,1.5,3.3,3.3v16.9C24.7,23.2,23.2,24.7,21.5,24.7z M19.8,18.9c-0.6-2-2-3.6-3.9-4.4c1.3-0.9,2.1-2.4,2.1-4
	c0-2.7-2.2-4.9-5-4.9c-2.7,0-5,2.2-5,4.9c0,1.7,0.8,3.1,2.1,4c-1.9,0.8-3.3,2.4-3.9,4.4c-0.3,0.9,0.5,1.7,1.4,1.6
	c1.5-0.2,3.3-0.4,5.4-0.4c2,0,3.9,0.1,5.4,0.4C19.3,20.6,20,19.8,19.8,18.9z"/>
</svg>
