<?xml version="1.0" encoding="utf-8"?>
<!-- Generator: Adobe Illustrator 18.1.1, SVG Export Plug-In . SVG Version: 6.00 Build 0)  -->
<svg version="1.1" id="图层_1" xmlns="http://www.w3.org/2000/svg" xmlns:xlink="http://www.w3.org/1999/xlink" x="0px" y="0px"
	 viewBox="0 0 36 36" enable-background="new 0 0 36 36" xml:space="preserve">
<g>
	<g>
		<path fill="#2AAD1C" d="M18,0C8.1,0,0,8.1,0,18c0,9.9,8.1,18,18,18s18-8.1,18-18C36,8.1,27.9,0,18,0z M18,34C9.2,34,2,26.8,2,18
			C2,9.2,9.2,2,18,2s16,7.2,16,16C34,26.8,26.8,34,18,34z M23.5,17.1l-9-5.3C13.8,11.5,13,12,13,12.7v10.5c0,0.8,0.8,1.3,1.5,0.9
			l9-5.3C24.2,18.5,24.2,17.5,23.5,17.1z"/>
	</g>
</g>
</svg>
