<?xml version="1.0" encoding="utf-8"?>
<!-- Generator: Adobe Illustrator 18.1.1, SVG Export Plug-In . SVG Version: 6.00 Build 0)  -->
<svg version="1.1" id="图层_1" xmlns="http://www.w3.org/2000/svg" xmlns:xlink="http://www.w3.org/1999/xlink" x="0px" y="0px"
	 viewBox="11.8 8.4 60.5 67.1" enable-background="new 11.8 8.4 60.5 67.1" xml:space="preserve">
<g>
	<g>
		<path fill="#338EFF" d="M63.9,38.1c0-0.3,0.1-0.5,0.1-0.8v-6.6c0-12.3-9.8-22.3-22-22.3s-22,9.9-22,22.2v6.6
			c0,0.3,0.1,0.5,0.1,0.8c-4.6,0.4-8.3,4.3-8.3,9.1v19.3c0,5,4,9.2,9.1,9.2h42.3c5,0,9.1-4.1,9.1-9.2V47
			C72.2,42.3,68.5,38.5,63.9,38.1z M42,68.2c-3.3,0-6-2.7-6-6c0-2.6,1.7-4.9,3.9-5.7v-7.7c0-1.1,0.9-2,2-2l0,0c1.1,0,2,0.9,2,2v7.8
			c2.3,0.8,3.9,3,3.9,5.7C48,65.5,45.3,68.2,42,68.2z M55.8,37.5c0,0.2,0,0.3-0.1,0.4H28.3c0-0.2-0.1-0.3-0.1-0.4v-7.1
			c0-7.7,6.2-13.9,13.8-13.9s13.8,6.2,13.8,13.9V37.5z"/>
	</g>
</g>
</svg>
