<?xml version="1.0" encoding="utf-8"?>
<!-- Generator: Adobe Illustrator 18.1.1, SVG Export Plug-In . SVG Version: 6.00 Build 0)  -->
<svg version="1.0" id="图层_1" xmlns="http://www.w3.org/2000/svg" xmlns:xlink="http://www.w3.org/1999/xlink" x="0px" y="0px"
	 viewBox="0 0 18 18" enable-background="new 0 0 18 18" xml:space="preserve">
<path fill="#FF9641" d="M9,2.1c0.1,0,0.2,0,0.3,0.1l7.5,6.3C17.1,8.7,17,9,17,9.1c0,0.1-0.2,0.3-0.4,0.3h-1.2c-0.6,0-1,0.4-1,1v5.5
	h-3.3v-1.4c0-1-0.8-1.8-1.8-1.8H8.8c-1,0-1.8,0.8-1.8,1.8v1.4H3.6v-5.5c0-0.6-0.4-1-1-1H1.5C1.2,9.4,1.1,9.2,1,9.1
	C1,9,0.9,8.7,1.2,8.5l7.5-6.3C8.8,2.2,8.9,2.1,9,2.1 M9,1.1c-0.3,0-0.7,0.1-0.9,0.3L0.5,7.7c-1.1,0.9-0.5,2.7,0.9,2.7h1.2V16
	c0,0.5,0.4,0.9,0.8,0.9h3.6c0.5,0,0.8-0.4,0.8-0.9v-1.5c0-0.5,0.4-0.8,0.8-0.8h0.5c0.5,0,0.8,0.4,0.8,0.8V16c0,0.5,0.4,0.9,0.8,0.9
	h3.6c0.5,0,0.8-0.4,0.8-0.9v-5.6h1.2c1.4,0,2-1.8,0.9-2.7L9.9,1.5C9.7,1.2,9.3,1.1,9,1.1L9,1.1z"/>
</svg>
