<?xml version="1.0" encoding="utf-8"?>
<!-- Generator: Adobe Illustrator 18.1.1, SVG Export Plug-In . SVG Version: 6.00 Build 0)  -->
<svg version="1.0" id="图层_1" xmlns="http://www.w3.org/2000/svg" xmlns:xlink="http://www.w3.org/1999/xlink" x="0px" y="0px"
	 viewBox="0 0 24 24" enable-background="new 0 0 24 24" xml:space="preserve">
<g>
	<path fill="#808080" d="M7.7,18c-0.3,0-0.5-0.2-0.5-0.5v-11C7.2,6.2,7.5,6,7.7,6s0.5,0.2,0.5,0.5v11C8.2,17.8,8,18,7.7,18z"/>
	<path fill="#808080" d="M16.3,18c-0.1,0-0.3-0.1-0.4-0.2l-5-5.5c-0.2-0.2-0.2-0.5,0-0.7l5-5.5c0.2-0.2,0.5-0.2,0.7,0
		c0.2,0.2,0.2,0.5,0,0.7L11.9,12l4.7,5.2c0.2,0.2,0.2,0.5,0,0.7C16.5,18,16.4,18,16.3,18z"/>
</g>
</svg>
