<?xml version="1.0" encoding="utf-8"?>
<!-- Generator: Adobe Illustrator 18.1.1, SVG Export Plug-In . SVG Version: 6.00 Build 0)  -->
<svg version="1.1" baseProfile="basic" id="图层_1"
	 xmlns="http://www.w3.org/2000/svg" xmlns:xlink="http://www.w3.org/1999/xlink" x="0px" y="0px" viewBox="0 0 18 18"
	 xml:space="preserve">
<g>
	<path fill="#FF9641" d="M12.3,8.3H9.7V5.7C9.7,5.3,9.4,5,9,5S8.3,5.3,8.3,5.7v2.6H5.7C5.3,8.3,5,8.6,5,9c0,0.4,0.3,0.7,0.7,0.7h2.6
		v2.6C8.3,12.7,8.6,13,9,13s0.7-0.3,0.7-0.7V9.7h2.6C12.7,9.7,13,9.4,13,9C13,8.6,12.7,8.3,12.3,8.3z M15.7,0H2.3C1.1,0,0,1.1,0,2.3
		v13.3C0,16.9,1.1,18,2.3,18h13.3c1.3,0,2.3-1.1,2.3-2.3V2.3C18,1.1,16.9,0,15.7,0z M16.6,15.7c0,0.5-0.4,1-1,1H2.3
		c-0.5,0-1-0.4-1-1V2.3c0-0.5,0.4-1,1-1h13.3c0.5,0,1,0.4,1,1V15.7z"/>
</g>
</svg>
