<?xml version="1.0" encoding="utf-8"?>
<!-- Generator: Adobe Illustrator 18.1.1, SVG Export Plug-In . SVG Version: 6.00 Build 0)  -->
<svg version="1.1" id="图层_1" xmlns="http://www.w3.org/2000/svg" xmlns:xlink="http://www.w3.org/1999/xlink" x="0px" y="0px"
	 viewBox="0 0 60 70" enable-background="new 0 0 60 70" xml:space="preserve">
<path fill-rule="evenodd" clip-rule="evenodd" fill="#FFFFFF" d="M50,0H10C4.5,0,0,4.5,0,10v50c0,5.5,4.5,10,10,10h40
	c5.5,0,10-4.5,10-10V10C60,4.5,55.5,0,50,0z M17.5,53.2l-2.3,2.3c-0.6,0.6-1.7,0.6-2.3,0l-2.3-2.3c-0.6-0.6-0.6-1.7,0-2.3l2.3-2.3
	c0.6-0.6,1.7-0.6,2.3,0l2.3,2.3C18.1,51.5,18.1,52.5,17.5,53.2z M17.5,36.2l-2.3,2.3c-0.6,0.6-1.7,0.6-2.3,0l-2.3-2.3
	c-0.6-0.6-0.6-1.7,0-2.3l2.3-2.3c0.6-0.6,1.7-0.6,2.3,0l2.3,2.3C18.1,34.5,18.1,35.5,17.5,36.2z M17.5,19.2l-2.3,2.3
	c-0.6,0.6-1.7,0.6-2.3,0l-2.3-2.3c-0.6-0.6-0.6-1.7,0-2.3l2.3-2.3c0.6-0.6,1.7-0.6,2.3,0l2.3,2.3C18.1,17.5,18.1,18.5,17.5,19.2z
	 M47,55H27c-1.7,0-3-1.3-3-3s1.3-3,3-3h20c1.7,0,3,1.3,3,3S48.7,55,47,55z M47,38H27c-1.7,0-3-1.3-3-3s1.3-3,3-3h20c1.7,0,3,1.3,3,3
	S48.7,38,47,38z M47,21H27c-1.7,0-3-1.3-3-3s1.3-3,3-3h20c1.7,0,3,1.3,3,3S48.7,21,47,21z"/>
</svg>
