<?xml version="1.0" encoding="utf-8"?>
<!-- Generator: Adobe Illustrator 18.1.1, SVG Export Plug-In . SVG Version: 6.00 Build 0)  -->
<svg version="1.1" id="图层_1" xmlns="http://www.w3.org/2000/svg" xmlns:xlink="http://www.w3.org/1999/xlink" x="0px" y="0px"
	 viewBox="0 0 100 100" enable-background="new 0 0 100 100" xml:space="preserve">
<path fill="#FF9641" d="M87.5,57.4c0,2.6-0.7,4.8-2,7.4c-1.3,2.3-2.9,4.8-4.9,7.1c-2,2.3-4.3,4.5-6.9,6.5c-2.6,1.9-5.2,3.9-7.9,5.5
	c-2.6,1.6-5.2,2.9-7.9,3.9c-2.6,1-4.6,1.6-6.5,2.3h-1h-1c-2-0.3-4.3-1-6.9-2.3c-2.6-1-5.2-2.3-7.9-3.9c-2.6-1.6-5.6-3.2-8.2-5.5
	c-2.6-1.9-4.9-4.2-7.2-6.5c-2-2.3-3.9-4.5-4.9-7.1c-1.3-2.3-2-4.8-2-7.4V26.1c0-5.5,3.9-10,9.5-11L50.2,10l27.5,4.8
	c5.6,1,9.8,5.5,9.8,11L87.5,57.4z M50.2,16.1h-0.3L25.3,20c-2.9,0.6-4.9,2.9-4.9,5.5v21h29.8V16.1L50.2,16.1L50.2,16.1L50.2,16.1z
	 M50.2,46.5v36.5c2-0.3,3.9-1,6.2-1.9c2.3-1,4.6-1.9,6.5-3.2c2.3-1.3,4.3-2.6,6.2-3.9c2-1.6,3.9-2.9,5.2-4.8
	c1.6-1.6,2.9-3.5,3.6-5.2c1-1.9,1.3-3.5,1.3-5.5V46.5H50.2z"/>
</svg>
