<?xml version="1.0" encoding="utf-8"?>
<!-- Generator: Adobe Illustrator 18.1.1, SVG Export Plug-In . SVG Version: 6.00 Build 0)  -->
<svg version="1.1" baseProfile="tiny" id="图层_1"
	 xmlns="http://www.w3.org/2000/svg" xmlns:xlink="http://www.w3.org/1999/xlink" x="0px" y="0px" viewBox="0 0 18 18"
	 xml:space="preserve">
<g>
	<path fill="#FFFFFF" d="M9.1,11.5c-0.7,0-1.4-0.3-1.9-0.8L1.6,5.1c-0.2-0.2-0.2-0.5,0-0.7c0.2-0.2,0.5-0.2,0.7,0L7.9,10
		c0.6,0.6,1.7,0.6,2.4,0l5.5-5.6c0.2-0.2,0.5-0.2,0.7,0c0.2,0.2,0.2,0.5,0,0.7l-5.5,5.6C10.4,11.3,9.8,11.5,9.1,11.5z"/>
	<path fill="#FFFFFF" d="M15.4,16.1H2.6c-1.4,0-2.6-1.2-2.6-2.7V4.6c0-1,0.6-2,1.5-2.4c0.2-0.1,0.8-0.3,1.1-0.3h12.8
		c0.4,0,0.8,0.1,1.1,0.3C17.4,2.6,18,3.6,18,4.6v8.8C18,14.9,16.8,16.1,15.4,16.1z M2.6,2.9C2.5,2.9,2.1,3,1.9,3.1
		C1.4,3.3,1,3.9,1,4.6v8.8c0,0.9,0.7,1.7,1.6,1.7h12.8c0.9,0,1.6-0.8,1.6-1.7V4.6c0-0.6-0.4-1.3-0.9-1.5c-0.2-0.1-0.5-0.2-0.7-0.2
		H2.6z"/>
</g>
</svg>
