<?xml version="1.0" encoding="utf-8"?>
<!-- Generator: Adobe Illustrator 18.1.1, SVG Export Plug-In . SVG Version: 6.00 Build 0)  -->
<svg version="1.1" id="图层_1" xmlns="http://www.w3.org/2000/svg" xmlns:xlink="http://www.w3.org/1999/xlink" x="0px" y="0px"
	 viewBox="0 0 30 30" enable-background="new 0 0 30 30" xml:space="preserve">
<path fill-rule="evenodd" clip-rule="evenodd" fill="#FF9641" d="M8,9h14c0.6,0,1,0.4,1,1c0,0.6-0.4,1-1,1H8c-0.6,0-1-0.4-1-1
	C7,9.4,7.4,9,8,9z"/>
<path fill-rule="evenodd" clip-rule="evenodd" fill="#FF9641" d="M8,15h14c0.6,0,1,0.4,1,1c0,0.6-0.4,1-1,1H8c-0.6,0-1-0.4-1-1
	C7,15.4,7.4,15,8,15z"/>
<path fill-rule="evenodd" clip-rule="evenodd" fill="#FF9641" d="M8,21h14c0.6,0,1,0.4,1,1s-0.4,1-1,1H8c-0.6,0-1-0.4-1-1
	S7.4,21,8,21z"/>
<path fill-rule="evenodd" clip-rule="evenodd" fill="#FF9641" d="M11.5,0h7C19.3,0,20,0.7,20,1.5C20,2.3,19.3,3,18.5,3h-7
	C10.7,3,10,2.3,10,1.5C10,0.7,10.7,0,11.5,0z"/>
<path fill="#FF9641" d="M24.3,30H5.7C3.1,30,1,27.8,1,25.3V5.8C1,3.2,3.1,1,5.7,1h1.9c0.6,0,1,0.4,1,1s-0.4,1-1,1H5.7
	C4.2,3,3,4.3,3,5.8v19.5C3,26.7,4.2,28,5.7,28h18.6c1.5,0,2.7-1.2,2.7-2.7V5.8C27,4.3,25.8,3,24.3,3h-1.9c-0.6,0-1-0.4-1-1
	s0.4-1,1-1h1.9C26.9,1,29,3.2,29,5.8v19.5C29,27.8,26.9,30,24.3,30z"/>
</svg>
