<?xml version="1.0" encoding="utf-8"?>
<!-- Generator: Adobe Illustrator 18.1.1, SVG Export Plug-In . SVG Version: 6.00 Build 0)  -->
<svg version="1.1" id="图层_1" xmlns="http://www.w3.org/2000/svg" xmlns:xlink="http://www.w3.org/1999/xlink" x="0px" y="0px"
	 viewBox="0 0 100 100" enable-background="new 0 0 100 100" xml:space="preserve">
<path fill-rule="evenodd" clip-rule="evenodd" fill="#FF9641" d="M84.2,62.4H69l-8.2,8.3v-8.3h-3.5c-3.2,0-5.8-2.6-5.8-5.9V38.8
	c0-3.3,2.6-5.9,5.8-5.9h26.9c3.2,0,5.8,2.6,5.8,5.9v17.7C90,59.8,87.4,62.4,84.2,62.4z M59.6,42.9c-1.9,0-3.5,1.6-3.5,3.5
	c0,2,1.6,3.5,3.5,3.5c1.9,0,3.5-1.6,3.5-3.5C63.1,44.5,61.6,42.9,59.6,42.9z M70.7,42.9c-1.9,0-3.5,1.6-3.5,3.5c0,2,1.6,3.5,3.5,3.5
	c1.9,0,3.5-1.6,3.5-3.5C74.2,44.5,72.7,42.9,70.7,42.9z M81.8,42.9c-1.9,0-3.5,1.6-3.5,3.5c0,2,1.6,3.5,3.5,3.5
	c1.9,0,3.5-1.6,3.5-3.5C85.3,44.5,83.8,42.9,81.8,42.9z M47.4,35.2v24.2c0,3.3,2.6,5.9,5.8,5.9h4.3V79l13.4-13.6h2.1v17.7
	c0,3.3-2.6,5.9-5.8,5.9H15.8c-3.2,0-5.8-2.6-5.8-5.9V16.9c0-3.3,2.6-5.9,5.8-5.9h51.4c3.2,0,5.8,2.6,5.8,5.9v12.4H53.2
	C50,29.3,47.4,32,47.4,35.2z M38.6,30.5H21.1c-1.6,0-2.9,1.3-2.9,3c0,1.6,1.3,3,2.9,3h17.5c1.6,0,2.9-1.3,2.9-3
	C41.5,31.8,40.2,30.5,38.6,30.5z M38.6,44.7H21.1c-1.6,0-2.9,1.3-2.9,3c0,1.6,1.3,3,2.9,3h17.5c1.6,0,2.9-1.3,2.9-3
	C41.5,46,40.2,44.7,38.6,44.7z M38.6,58.9H21.1c-1.6,0-2.9,1.3-2.9,3c0,1.6,1.3,3,2.9,3h17.5c1.6,0,2.9-1.3,2.9-3
	C41.5,60.2,40.2,58.9,38.6,58.9z"/>
</svg>
