<?xml version="1.0" encoding="utf-8"?>
<!-- Generator: Adobe Illustrator 18.1.1, SVG Export Plug-In . SVG Version: 6.00 Build 0)  -->
<svg version="1.1" baseProfile="tiny" id="图层_1"
	 xmlns="http://www.w3.org/2000/svg" xmlns:xlink="http://www.w3.org/1999/xlink" x="0px" y="0px" viewBox="0 0 18 18"
	 xml:space="preserve">
<g>
	<g>
		<path fill="#FFFFFF" d="M3.9,7.7c0.4,0.8,0.9,1.8,1.4,2.9l0.5-0.2C5.3,9.1,4.8,8.2,4.4,7.5L3.9,7.7z M2.7,10.9
			c0,0.3-0.1,0.4-0.5,0.4c-0.4,0-0.6,0-0.8,0c0,0.2,0.1,0.4,0.1,0.5v0.1H2c0.2,0,0.4,0,0.4,0c0.6,0,0.8-0.2,0.8-0.8V6.2H2.7
			L2.7,10.9L2.7,10.9z M1.3,7.5C0.9,8.6,0.5,9.5,0,10.4c0.1,0.1,0.3,0.2,0.5,0.3c0.5-0.9,0.9-1.9,1.3-3L1.3,7.5z M8.6,8.7V8.3h-1
			l0.2-0.2C7.8,8,7.7,8,7.6,7.9l0.8-1.1V6.4H6.3v0.4h1.6L7.3,7.6C7.2,7.5,7,7.3,6.9,7.2L6.6,7.5C6.8,7.7,7.1,8,7.4,8.3H6.2v0.4h1V11
			c0,0.2-0.1,0.4-0.3,0.3c-0.2,0-0.4,0-0.6,0c0,0,0,0.1,0,0.1c0,0.2,0.1,0.3,0.1,0.4H7c0.4,0,0.7-0.3,0.7-0.7V8.7h0.6L7.9,9.6
			c0,0,0.1,0,0.2,0.1c0.1,0,0.1,0,0.2,0L8.6,8.7z M11,10.6c-0.3-0.2-0.5-0.4-0.6-0.5c0.1-0.2,0.1-0.6,0.1-0.9V8.3h-0.4v0.8
			c0,0.6-0.1,1.1-0.4,1.4c-0.2,0.3-0.7,0.6-1.5,1c0,0,0.1,0.1,0.2,0.2c0,0.1,0.1,0.1,0.1,0.2c0.9-0.5,1.5-0.9,1.7-1.4
			c0.2,0.2,0.3,0.2,0.2,0.2c0.7,0.6,1.1,1,1.2,1.1l0.3-0.4C11.9,11.3,11.6,11,11,10.6z M8.7,6.8H10L9.9,7.6h-1v2.9h0.4V8h2v2.4h0.4
			V7.6h-1.4l0.2-0.8H12V6.4H8.7V6.8z M16.7,9.8c-0.3-0.4-0.6-0.9-1-1.4l-0.4,0.2c0.3,0.4,0.6,0.9,0.9,1.4L16.7,9.8z M12.6,8.6
			c0.4,0,0.8-0.1,1-0.1c-0.4,0.6-0.8,1-1,1.2l0.1,0.4c0.4-0.1,1-0.2,1.8-0.2c0-0.1,0-0.1,0-0.2c0-0.1,0-0.2,0-0.2
			c-0.5,0-0.9,0.1-1.4,0.2c0.5-0.6,1-1.3,1.5-2.1l-0.4-0.2c0,0,0,0.1-0.1,0.1c-0.2,0.3-0.3,0.5-0.4,0.7c-0.2,0-0.5,0-0.9,0
			c0.4-0.6,0.8-1.2,1.2-1.8l-0.5-0.2c-0.5,1-0.9,1.7-1.3,2.1L12.6,8.6C12.5,8.6,12.6,8.6,12.6,8.6z M12.4,11l0.1,0.4
			c0.9-0.2,1.7-0.3,2.3-0.3c0,0,0-0.1,0-0.2c0-0.1,0-0.2,0-0.2c-0.3,0-0.9,0.1-1.6,0.2C12.8,10.9,12.5,11,12.4,11z M15.8,7.1
			c0.1-0.3,0.2-0.6,0.3-0.8l-0.5-0.1C15.4,7,15,7.7,14.5,8.4c0,0,0,0,0.1,0.1c0.1,0.1,0.2,0.1,0.3,0.2c0.2-0.3,0.4-0.7,0.6-1.1h1.9
			c0,1.6-0.1,2.6-0.1,3.1c0,0.5-0.2,0.7-0.7,0.6c-0.4,0-0.8,0-1.2-0.1c0,0.2,0.1,0.4,0.1,0.5h1c0.8,0,1.1-0.3,1.1-1
			c0-0.4,0.1-1.6,0.1-3.6L15.8,7.1L15.8,7.1z"/>
	</g>
</g>
</svg>
