<?xml version="1.0" encoding="utf-8"?>
<!-- Generator: Adobe Illustrator 18.1.1, SVG Export Plug-In . SVG Version: 6.00 Build 0)  -->
<svg version="1.1" baseProfile="basic" id="图层_1"
	 xmlns="http://www.w3.org/2000/svg" xmlns:xlink="http://www.w3.org/1999/xlink" x="0px" y="0px" viewBox="0 0 18 18"
	 xml:space="preserve">
<path fill="#FFFFFF" d="M9,15c-4.1,0-7.6-3.8-8.8-5.4c-0.3-0.4-0.3-0.9,0-1.2C1.4,6.8,4.9,3,9,3c4.1,0,7.6,3.8,8.8,5.4
	c0.3,0.4,0.3,0.9,0,1.2C16.6,11.2,13.1,15,9,15L9,15L9,15L9,15z M9,4.9c-2.2,0-3.9,1.8-3.9,4c0,2.2,1.7,4,3.9,4c2.2,0,3.9-1.8,3.9-4
	C12.9,6.7,11.1,4.9,9,4.9L9,4.9L9,4.9L9,4.9z M9,10.7c-1,0-1.9-0.9-1.9-1.9c0-1,0.8-1.9,1.9-1.9c1,0,1.8,0.8,1.8,1.9
	C10.8,9.8,10,10.7,9,10.7L9,10.7L9,10.7L9,10.7z M9,10.7"/>
</svg>
