<?xml version="1.0" encoding="utf-8"?>
<!-- Generator: Adobe Illustrator 18.1.1, SVG Export Plug-In . SVG Version: 6.00 Build 0)  -->
<svg version="1.1" id="图层_1" xmlns="http://www.w3.org/2000/svg" xmlns:xlink="http://www.w3.org/1999/xlink" x="0px" y="0px"
	 viewBox="0 0 66 65" enable-background="new 0 0 66 65" xml:space="preserve">
<path fill="#FFFFFF" d="M63.2,22.8l-7.3-1c-0.6-1.4-1.4-2.8-2.2-4l2.8-7c0.6-1.5,0-3.3-1.4-4.1L44.2,0.4C42.8-0.4,41,0,40,1.3
	l-4.6,5.9c-1.5-0.1-3-0.1-4.6,0l-4.5-5.9c-1-1.2-2.9-1.6-4.2-0.8L11.2,6.9c-1.4,0.8-2,2.5-1.4,4.1l2.7,6.9c-0.4,0.6-0.9,1.3-1.3,1.9
	c-0.4,0.7-0.7,1.4-1,2.1L2.8,23c-1.6,0.3-2.8,1.7-2.8,3.3L0,39c0,1.6,1.2,3.1,2.8,3.3l7.3,1c0.6,1.4,1.4,2.8,2.2,4l-2.8,7
	c-0.6,1.5,0,3.3,1.4,4.1l10.8,6.3c1.4,0.8,3.2,0.5,4.3-0.8l4.6-5.9c1.5,0.1,3,0.1,4.6,0l4.5,5.9c0.3,0.3,0.6,0.6,0.9,0.8
	c1,0.6,2.3,0.6,3.3,0l10.8-6.4c1.4-0.8,2-2.5,1.4-4.1l-2.7-6.9c0.4-0.6,0.9-1.3,1.3-1.9c0.4-0.7,0.7-1.4,1-2.1l7.4-1.1
	c1.6-0.3,2.8-1.7,2.8-3.3L66,26.1C66,24.5,64.9,23,63.2,22.8z M44.3,39.1c-3.6,6.3-11.7,8.5-17.9,4.9c-6.2-3.6-8.4-11.7-4.7-18.1
	c3.6-6.3,11.7-8.5,17.9-4.9C45.8,24.7,48,32.8,44.3,39.1z"/>
</svg>
