<?xml version="1.0" encoding="utf-8"?>
<!-- Generator: Adobe Illustrator 18.1.1, SVG Export Plug-In . SVG Version: 6.00 Build 0)  -->
<svg version="1.1" baseProfile="basic" id="图层_1"
	 xmlns="http://www.w3.org/2000/svg" xmlns:xlink="http://www.w3.org/1999/xlink" x="0px" y="0px" viewBox="0 0 44 44"
	 xml:space="preserve">
<g>
	<path fill="#808080" d="M39.8,23H12.5c-0.6,0-1-0.4-1-1s0.4-1,1-1h27.3c0.6,0,1,0.4,1,1S40.4,23,39.8,23z"/>
	<path fill="#808080" d="M36.7,28.3c-0.3,0-0.5-0.1-0.7-0.3c-0.4-0.4-0.4-1,0-1.4l4.5-4.5L36,17.5c-0.4-0.4-0.4-1,0-1.4s1-0.4,1.4,0
		l5.3,5.3c0.4,0.4,0.4,1,0,1.4L37.4,28C37.2,28.2,37,28.3,36.7,28.3z"/>
	<path fill="#808080" d="M28.3,44h-21C3.9,44,1,41.2,1,37.8V6.3C1,2.8,3.9,0,7.3,0h21c3.4,0,6.3,2.8,6.3,6.3v5.3c0,0.6-0.4,1-1,1
		s-1-0.4-1-1V6.3c0-2.3-1.9-4.3-4.3-4.3h-21C5,2,3,3.9,3,6.3v31.5C3,40.1,5,42,7.3,42h21c2.3,0,4.3-1.9,4.3-4.3v-5.3
		c0-0.6,0.4-1,1-1s1,0.4,1,1v5.3C34.5,41.2,31.7,44,28.3,44z"/>
</g>
</svg>
