<?xml version="1.0" encoding="utf-8"?>
<!-- Generator: Adobe Illustrator 18.1.1, SVG Export Plug-In . SVG Version: 6.00 Build 0)  -->
<svg version="1.0" id="图层_1" xmlns="http://www.w3.org/2000/svg" xmlns:xlink="http://www.w3.org/1999/xlink" x="0px" y="0px"
	 viewBox="0 0 40 40" enable-background="new 0 0 40 40" xml:space="preserve">
<g>
	<g>
		<path fill-rule="evenodd" clip-rule="evenodd" fill="#FFFFFF" d="M14,9h-4c-0.6,0-1,0.4-1,1v4c0,0.6,0.4,1,1,1h4c0.6,0,1-0.4,1-1
			v-4C15,9.4,14.6,9,14,9z M22,9h-4c-0.6,0-1,0.4-1,1v4c0,0.6,0.4,1,1,1h4c0.6,0,1-0.4,1-1v-4C23,9.4,22.6,9,22,9z M30,9h-4
			c-0.6,0-1,0.4-1,1v4c0,0.6,0.4,1,1,1h4c0.6,0,1-0.4,1-1v-4C31,9.4,30.6,9,30,9z M14,17h-4c-0.6,0-1,0.4-1,1v4c0,0.6,0.4,1,1,1h4
			c0.6,0,1-0.4,1-1v-4C15,17.4,14.6,17,14,17z M22,17h-4c-0.6,0-1,0.4-1,1v4c0,0.6,0.4,1,1,1h4c0.6,0,1-0.4,1-1v-4
			C23,17.4,22.6,17,22,17z M30,17h-4c-0.6,0-1,0.4-1,1v4c0,0.6,0.4,1,1,1h4c0.6,0,1-0.4,1-1v-4C31,17.4,30.6,17,30,17z M14,25h-4
			c-0.6,0-1,0.4-1,1v4c0,0.6,0.4,1,1,1h4c0.6,0,1-0.4,1-1v-4C15,25.4,14.6,25,14,25z M22,25h-4c-0.6,0-1,0.4-1,1v4c0,0.6,0.4,1,1,1
			h4c0.6,0,1-0.4,1-1v-4C23,25.4,22.6,25,22,25z M30,25h-4c-0.6,0-1,0.4-1,1v4c0,0.6,0.4,1,1,1h4c0.6,0,1-0.4,1-1v-4
			C31,25.4,30.6,25,30,25z"/>
	</g>
</g>
</svg>
