<?xml version="1.0" encoding="utf-8"?>
<!-- Generator: Adobe Illustrator 18.1.1, SVG Export Plug-In . SVG Version: 6.00 Build 0)  -->
<svg version="1.1" baseProfile="basic" id="图层_1"
	 xmlns="http://www.w3.org/2000/svg" xmlns:xlink="http://www.w3.org/1999/xlink" x="0px" y="0px" viewBox="0 0 18 18"
	 xml:space="preserve">
<g>
	<path fill="#FF9641" d="M7.5,0.2L7.5,0.2c0.7,0,1.3,0.3,1.9,0.8C9.7,1.3,9.9,1.7,10,2.2h2.1c0.2,0,0.4,0.2,0.4,0.4l0,0v0.3h1.8
		c0.4,0,0.7,0.3,0.7,0.7l0,0v2.2c0.8,0.1,1.5,0.5,2,1.1v0C17.6,7.6,18,8.5,18,9.5c0,1-0.4,2-1.1,2.6l0,0c-0.5,0.5-1.2,0.9-2,1.1v3.9
		c0,0.4-0.3,0.7-0.7,0.7l0,0H0.7c-0.4,0-0.7-0.3-0.7-0.7l0,0V3.7C0,3.3,0.3,3,0.7,3l0,0h1.8V2.6c0-0.2,0.2-0.4,0.4-0.4l0,0H5
		C5.1,1.8,5.3,1.3,5.6,1C6.1,0.5,6.8,0.2,7.5,0.2L7.5,0.2L7.5,0.2z M6.3,14.3L6.3,14.3c-0.2,0-0.4-0.2-0.4-0.4s0.2-0.4,0.4-0.4h4.2
		c0.2,0,0.4,0.2,0.4,0.4s-0.2,0.4-0.4,0.4H6.3L6.3,14.3L6.3,14.3z M6.3,11.1L6.3,11.1c-0.2,0-0.4-0.2-0.4-0.4c0-0.2,0.2-0.4,0.4-0.4
		h2.1c0.2,0,0.4,0.2,0.4,0.4c0,0.3-0.2,0.4-0.4,0.4H6.3L6.3,11.1L6.3,11.1z M6.3,8L6.3,8C6.1,8,5.9,7.8,5.9,7.6
		c0-0.2,0.2-0.4,0.4-0.4h2.6c0.2,0,0.4,0.2,0.4,0.4C9.2,7.8,9,8,8.8,8H6.3L6.3,8L6.3,8z M13.7,5.8L13.7,5.8V4.2h-1.1v0.4
		c0,0.2-0.2,0.4-0.4,0.4l0,0H7.5H2.9C2.7,5,2.5,4.9,2.5,4.6l0,0V4.3H1.3v12.2h12.3v-3.2c-0.8-0.2-1.5-0.5-2-1.1l0,0l0,0
		c-0.7-0.7-1.1-1.6-1.1-2.6c0-1.1,0.4-2,1.1-2.6C12.2,6.3,12.9,6,13.7,5.8L13.7,5.8L13.7,5.8z M16.4,7.4L16.4,7.4
		c-0.5-0.5-1.3-0.9-2.1-0.9c-0.8,0-1.6,0.3-2.1,0.9c-0.5,0.5-0.9,1.3-0.9,2.1c0,0.8,0.3,1.6,0.9,2.1c0.5,0.5,1.3,0.9,2.1,0.9
		c0.8,0,1.6-0.3,2.1-0.9c0.5-0.5,0.8-1.3,0.8-2.1C17.3,8.7,16.9,7.9,16.4,7.4L16.4,7.4L16.4,7.4L16.4,7.4z M2.6,12.6L2.6,12.6
		L2.6,12.6h1.9c0.2,0,0.4,0.2,0.4,0.4l0,0v1.9c0,0.2-0.2,0.4-0.4,0.4l0,0H2.6c-0.2,0-0.4-0.2-0.4-0.4l0,0V13
		C2.2,12.7,2.4,12.6,2.6,12.6L2.6,12.6L2.6,12.6z M4.1,13.4L4.1,13.4H3v1.1h1.1V13.4L4.1,13.4L4.1,13.4z M2.6,9.4L2.6,9.4L2.6,9.4
		h1.9c0.2,0,0.4,0.2,0.4,0.4l0,0v1.9c0,0.2-0.2,0.4-0.4,0.4l0,0H2.6c-0.2,0-0.4-0.2-0.4-0.4l0,0V9.8C2.2,9.6,2.4,9.4,2.6,9.4
		L2.6,9.4L2.6,9.4z M4.1,10.2L4.1,10.2H3v1.1h1.1V10.2L4.1,10.2L4.1,10.2z M2.6,6.3L2.6,6.3L2.6,6.3h1.9c0.2,0,0.4,0.2,0.4,0.4l0,0
		v1.9c0,0.2-0.2,0.4-0.4,0.4l0,0H2.6c-0.2,0-0.4-0.2-0.4-0.4l0,0V6.6C2.2,6.4,2.4,6.3,2.6,6.3L2.6,6.3L2.6,6.3z M4.1,7.1L4.1,7.1H3
		v1.1h1.1V7.1L4.1,7.1L4.1,7.1z M15.9,8L15.9,8c0.2-0.2,0.4-0.2,0.5,0c0.2,0.2,0.2,0.4,0,0.5L13.9,11c-0.2,0.2-0.4,0.2-0.5,0l0,0
		l-1.1-1.1c-0.2-0.1-0.2-0.4,0-0.5c0.2-0.2,0.4-0.2,0.5,0l0.9,0.8L15.9,8L15.9,8L15.9,8z M9.2,2.2L9.2,2.2C9.1,1.9,9,1.7,8.8,1.5
		C8.5,1.2,8,1,7.5,1l0,0C7,1,6.6,1.2,6.3,1.5C6.1,1.7,5.9,1.9,5.8,2.2h1.7H9.2L9.2,2.2L9.2,2.2z M7.5,3L7.5,3H3.3v0.6v0.6h4.2h4.2
		V3.6V3H7.5L7.5,3L7.5,3z M7.5,3"/>
</g>
</svg>
