<?xml version="1.0" encoding="utf-8"?>
<!-- Generator: Adobe Illustrator 21.0.0, SVG Export Plug-In . SVG Version: 6.00 Build 0)  -->
<svg version="1.1" id="图层_1" xmlns="http://www.w3.org/2000/svg" xmlns:xlink="http://www.w3.org/1999/xlink" x="0px" y="0px"
	 viewBox="0 0 34 34" style="enable-background:new 0 0 34 34;" xml:space="preserve">
<style type="text/css">
	.st0{fill:#338EFF;}
</style>
<g>
	<path class="st0" d="M28.7,14.6c-0.6,0-1.1,0.5-1.1,1.1v1.1v10v2.5c0,1.5-1.1,2.7-2.6,2.7H5.3c-1.5,0-3.1-1.2-3.1-2.7V9.4
		c0-1.5,1.7-3,3.1-3h1.4h6.6h3.3c0.6,0,1.1-0.5,1.1-1.1s-0.5-1.1-1.1-1.1h-3.3H6.6H5.3C2.4,4.3,0,6.5,0,9.4v19.8
		C0,32.1,2.4,34,5.3,34H25c2.9,0,4.7-1.9,4.7-4.8v-2.5v-10v-1.1C29.7,15,29.3,14.6,28.7,14.6z"/>
	<path class="st0" d="M33,2.5l-1.6-1.6c-1.2-1.2-3.4-1.2-4.6,0l-3.1,3.6L7.4,20.1v0.4l0,0.1l-2,7l1.5,1.3l6.6-2.3l0.1,0h0.3
		l15.6-16.3L33,7.3C34.3,6,34.3,3.8,33,2.5z M8.3,26l1-3.1l1.9,1.9L8.3,26z M13.1,23.7l-2.8-2.8L24.8,6.4l2.7,2.7L13.1,23.7z
		 M31.5,5.6l-2.2,2.2l-3.2-3.2l2.2-2.2c0.2-0.2,0.5-0.3,0.8-0.3c0.3,0,0.6,0.1,0.8,0.3l1.6,1.6C31.9,4.5,31.9,5.2,31.5,5.6z"/>
</g>
</svg>
