<?xml version="1.0" encoding="utf-8"?>
<!-- Generator: Adobe Illustrator 18.1.1, SVG Export Plug-In . SVG Version: 6.00 Build 0)  -->
<svg version="1.1" id="图层_1" xmlns="http://www.w3.org/2000/svg" xmlns:xlink="http://www.w3.org/1999/xlink" x="0px" y="0px"
	 viewBox="0 0 34 38" enable-background="new 0 0 34 38" xml:space="preserve">
<g>
	<path fill="#FFFFFF" d="M29,0H10C8.2,0,6.7,1.1,6.2,2.7C6,3.4,6.5,4,7.1,4h0c0.4,0,0.8-0.2,1-0.6C8.4,2.6,9.1,2,10,2h19
		c1.6,0,3,1.3,3,3v23c0,0.9-0.6,1.6-1.4,1.9C30.2,30,30,30.4,30,30.8l0,0c0,0.7,0.7,1.2,1.3,0.9c1.2-0.4,2.2-1.4,2.6-2.8
		c0.1-0.3,0.1-0.6,0.1-1V5C34,2.2,31.8,0,29,0z"/>
	<path fill="#FFFFFF" d="M24,8c1.1,0,2,0.9,2,2v24c0,1.1-0.9,2-2,2H4c-1.1,0-2-0.9-2-2V10c0-1.1,0.9-2,2-2H24 M24,6H4
		c-2.2,0-4,1.8-4,4v24c0,2.2,1.8,4,4,4h20c2.2,0,4-1.8,4-4V10C28,7.8,26.2,6,24,6L24,6z"/>
	<path fill-rule="evenodd" clip-rule="evenodd" fill="#FFFFFF" d="M8,14h12c0.6,0,1,0.4,1,1c0,0.6-0.4,1-1,1H8c-0.6,0-1-0.4-1-1
		C7,14.4,7.4,14,8,14z"/>
	<path fill-rule="evenodd" clip-rule="evenodd" fill="#FFFFFF" d="M8,21h12c0.6,0,1,0.4,1,1s-0.4,1-1,1H8c-0.6,0-1-0.4-1-1
		S7.4,21,8,21z"/>
	<path fill-rule="evenodd" clip-rule="evenodd" fill="#FFFFFF" d="M8,28h12c0.6,0,1,0.4,1,1c0,0.6-0.4,1-1,1H8c-0.6,0-1-0.4-1-1
		C7,28.4,7.4,28,8,28z"/>
</g>
</svg>
