<?xml version="1.0" encoding="utf-8"?>
<!-- Generator: Adobe Illustrator 18.1.1, SVG Export Plug-In . SVG Version: 6.00 Build 0)  -->
<svg version="1.1" id="图层_1" xmlns="http://www.w3.org/2000/svg" xmlns:xlink="http://www.w3.org/1999/xlink" x="0px" y="0px"
	 viewBox="0 0 30 30" enable-background="new 0 0 30 30" xml:space="preserve">
<path fill="#B2B2B2" d="M29.2,11.9l-4-3.3c0-0.1,0-0.2,0-0.2V3.8c0-1.2-0.9-2.1-2.1-2.1h-1.6c-1.2,0-2.1,0.9-2.1,2.1v0.1l-3.2-2.6
	c-0.8-0.7-2-0.7-2.8,0L0.8,11.5c-0.9,0.8-1.1,2.1-0.3,3.1c0.8,0.9,2.1,1.1,3.1,0.3l11.3-9.1l11.5,9.5c0.9,0.8,2.3,0.6,3.1-0.3
	C30.3,14,30.1,12.7,29.2,11.9L29.2,11.9z M4.2,15.6v11.5c0,1.2,0.9,2.1,2.1,2.1h17c1.2,0,2.1-0.9,2.1-2.1V15.9L14.8,7.4L4.2,15.6
	L4.2,15.6z M4.2,15.6"/>
</svg>
