<?xml version="1.0" encoding="utf-8"?>
<!-- Generator: Adobe Illustrator 18.1.1, SVG Export Plug-In . SVG Version: 6.00 Build 0)  -->
<svg version="1.1" id="图层_1" xmlns="http://www.w3.org/2000/svg" xmlns:xlink="http://www.w3.org/1999/xlink" x="0px" y="0px"
	 viewBox="17.2 8.4 49.6 67.2" enable-background="new 17.2 8.4 49.6 67.2" xml:space="preserve">
<path fill="#338EFF" d="M61.5,75.6h-39c-2.9,0-5.3-2.4-5.3-5.4V13.8c0-2.9,2.4-5.4,5.3-5.4h39.1c2.9,0,5.3,2.4,5.3,5.4v56.4
	C66.8,73.2,64.4,75.6,61.5,75.6z M41.5,71.9c2,0,3.6-1.7,3.6-3.7c0-2-1.6-3.7-3.6-3.7c-2,0-3.6,1.7-3.6,3.7
	C37.9,70.3,39.5,71.9,41.5,71.9z M59.1,19.5c0-1.8-1.4-3.2-3.2-3.2H28.1c-1.8,0-3.2,1.4-3.2,3.2v37.6c0,1.8,1.4,3.2,3.2,3.2h27.7
	c1.8,0,3.2-1.4,3.2-3.2V19.5z"/>
</svg>
