<?xml version="1.0" encoding="utf-8"?>
<!-- Generator: Adobe Illustrator 18.1.1, SVG Export Plug-In . SVG Version: 6.00 Build 0)  -->
<svg version="1.1" id="图层_1" xmlns="http://www.w3.org/2000/svg" xmlns:xlink="http://www.w3.org/1999/xlink" x="0px" y="0px"
	 viewBox="0 0 30 30" enable-background="new 0 0 30 30" xml:space="preserve">
<path fill-rule="evenodd" clip-rule="evenodd" fill="#FF9641" d="M11.5,10.1l8.5,8.5c0.4,0.4,0.4,1,0,1.4c-0.4,0.4-1,0.4-1.4,0
	l-8.5-8.5c-0.4-0.4-0.4-1,0-1.4C10.4,9.7,11.1,9.7,11.5,10.1z"/>
<path fill-rule="evenodd" clip-rule="evenodd" fill="#FF9641" d="M19.9,10.1c0.4,0.4,0.4,1,0,1.4l-8.5,8.5c-0.4,0.4-1,0.4-1.4,0
	c-0.4-0.4-0.4-1,0-1.4l8.5-8.5C18.9,9.7,19.6,9.7,19.9,10.1z"/>
<path fill="#FF9641" d="M15,2c7.2,0,13,5.8,13,13s-5.8,13-13,13S2,22.2,2,15S7.8,2,15,2 M15,0C6.7,0,0,6.7,0,15c0,8.3,6.7,15,15,15
	c8.3,0,15-6.7,15-15C30,6.7,23.3,0,15,0L15,0z"/>
</svg>
