<?xml version="1.0" encoding="utf-8"?>
<!-- Generator: Adobe Illustrator 18.1.1, SVG Export Plug-In . SVG Version: 6.00 Build 0)  -->
<svg version="1.1" id="图层_1" xmlns="http://www.w3.org/2000/svg" xmlns:xlink="http://www.w3.org/1999/xlink" x="0px" y="0px"
	 viewBox="0 0 26 30" enable-background="new 0 0 26 30" xml:space="preserve">
<path fill="#B2B2B2" d="M21.7,0H4.3C1.9,0,0,2,0,4.4v21.2C0,28,1.9,30,4.3,30h17.3c2.4,0,4.3-2,4.3-4.4V4.4C26,2,24,0,21.7,0z
	 M19.5,23.4h-13c-0.7,0-1.3-0.6-1.3-1.3c0-0.7,0.6-1.3,1.3-1.3h13c0.7,0,1.3,0.6,1.3,1.3C20.8,22.8,20.2,23.4,19.5,23.4z M19.5,16.3
	h-13c-0.7,0-1.3-0.6-1.3-1.3c0-0.7,0.6-1.3,1.3-1.3h13c0.7,0,1.3,0.6,1.3,1.3C20.8,15.7,20.2,16.3,19.5,16.3z M19.5,9.3h-13
	c-0.7,0-1.3-0.6-1.3-1.3s0.6-1.3,1.3-1.3h13c0.7,0,1.3,0.6,1.3,1.3S20.2,9.3,19.5,9.3z"/>
</svg>
