<?xml version="1.0" encoding="utf-8"?>
<!-- Generator: Adobe Illustrator 18.1.1, SVG Export Plug-In . SVG Version: 6.00 Build 0)  -->
<svg version="1.0" id="图层_1" xmlns="http://www.w3.org/2000/svg" xmlns:xlink="http://www.w3.org/1999/xlink" x="0px" y="0px"
	 viewBox="0 0 18 18" enable-background="new 0 0 18 18" xml:space="preserve">
<path fill="#FF9641" d="M5.6,9.9C5.6,9.9,5.6,9.9,5.6,9.9l-0.9,3.3c-0.1,0.2,0,0.4,0.1,0.5c0.1,0.1,0.2,0.2,0.4,0.2
	c0.1,0,0.1,0,0.1,0L8.7,13c0,0,0,0,0,0c0,0,0.1,0,0.1,0l8.8-8.6c0.3-0.3,0.4-0.6,0.4-1c0-0.4-0.2-0.9-0.5-1.2l-0.8-0.8
	c-0.3-0.3-0.8-0.5-1.2-0.5c-0.4,0-0.7,0.1-1,0.4L5.6,9.9C5.6,9.9,5.6,9.9,5.6,9.9 M16.7,3.5l-0.9,0.9L14.4,3l0.9-0.8
	c0.1-0.1,0.4-0.1,0.6,0L16.7,3c0.1,0.1,0.1,0.2,0.1,0.3C16.8,3.4,16.8,3.5,16.7,3.5 M7.2,10.1l6.4-6.2L15,5.3l-6.4,6.2L7.2,10.1
	L7.2,10.1L7.2,10.1L7.2,10.1z M6,12.6l0.5-1.6l1.2,1.2L6,12.6L6,12.6L6,12.6L6,12.6z M17.3,6.9c-0.3,0-0.6,0.3-0.6,0.6v8
	c0,0.4-0.3,0.8-0.8,0.8H2c-0.4,0-0.8-0.3-0.8-0.8V2.5C1.2,2,1.6,1.7,2,1.7h9c0.3,0,0.6-0.3,0.6-0.6c0-0.3-0.3-0.6-0.6-0.6h-9
	C0.9,0.5,0,1.3,0,2.4v13.3c0,1,0.9,1.9,1.9,1.9H16c1.1,0,1.9-0.8,1.9-1.9V7.5C17.9,7.2,17.6,6.9,17.3,6.9"/>
</svg>
