<?xml version="1.0" encoding="utf-8"?>
<!-- Generator: Adobe Illustrator 18.1.1, SVG Export Plug-In . SVG Version: 6.00 Build 0)  -->
<svg version="1.1" baseProfile="tiny" id="图层_1"
	 xmlns="http://www.w3.org/2000/svg" xmlns:xlink="http://www.w3.org/1999/xlink" x="0px" y="0px" viewBox="0 0 81.4 102.8"
	 xml:space="preserve">
<g>
	<path fill="#FFFFFF" d="M52.5,48.3V75c0,8.7-7.1,15.8-15.8,15.8h0c-6.4,0-11.9-3.8-14.4-9.3c-1.5-3.2-4.1-5.7-7.5-6.8
		c-5.9-1.8-11-5-14.9-9.1C2.4,76.9,9.5,86.4,19.1,92c0.2,0.1,0.3,0.2,0.5,0.3c1.5,0.9,3.1,1.6,4.8,2.3c0.2,0.1,0.4,0.2,0.6,0.2
		c0.8,0.3,1.7,0.6,2.5,0.9h0c0.9,0.3,1.7,0.5,2.6,0.7c0.2,0.1,0.4,0.1,0.6,0.1c0.9,0.2,1.8,0.4,2.7,0.5c0,0,0,0,0,0
		c0.9,0.1,1.8,0.2,2.7,0.3c0.2,0,0.5,0,0.7,0.1c0.9,0.1,1.8,0.1,2.8,0.1h1.2c22.4,0,40.5-18.1,40.5-40.5V0C66,0,53.5,17.3,52.5,48.3
		z"/>
	<path fill="#FFFFFF" d="M52.5,69.1c0,1,0,10.3,0,11.3v-0.1c0,4.4-2,8.6-5.1,11.5c0,0-0.3,0.2-0.7,0.6c-0.2,0.2-0.5,0.4-0.7,0.5
		c-2.9,2.2-14.3,8.2-29,2.9l0,0c6.5,4.4,14.3,6.9,22.7,6.9l1.2,0c12.4-0.5,42.8-7.9,40.5-48.8l0-33.6C59.9,20.5,53,45.9,52.5,69.1z"
		/>
	<path fill="#FFFFFF" d="M43.1,40v22.2c0,1.3-1,2.3-2.3,2.3l0,0c-11.3,0-20.4-8.7-20.4-20V0C32.9,0,43.1,13.5,43.1,40z"/>
</g>
</svg>
