<?xml version="1.0" encoding="utf-8"?>
<!-- Generator: Adobe Illustrator 18.1.1, SVG Export Plug-In . SVG Version: 6.00 Build 0)  -->
<svg version="1.1" baseProfile="tiny" id="图层_1"
	 xmlns="http://www.w3.org/2000/svg" xmlns:xlink="http://www.w3.org/1999/xlink" x="0px" y="0px" viewBox="0 0 44 44"
	 xml:space="preserve">
<g>
	<path fill="#FF9641" d="M40.1,23.3h-1.6v7.2h-3.6v-7.2h-9.7c-1,0-1.9,0.8-1.9,1.9v14.9c0,1,0.8,1.9,1.9,1.9h1.7V31.6h3.6v2.6H42v-9
		C42,24.2,41.2,23.3,40.1,23.3z M30.5,42h3.9v-4.2h-3.9V42z M38,42h2.1c1,0,1.9-0.8,1.9-1.9v-2.3h-4V42z M18.8,23.3H3.9
		c-1,0-1.9,0.8-1.9,1.9v14.9c0,1,0.8,1.9,1.9,1.9h14.9c1,0,1.9-0.8,1.9-1.9V25.2C20.7,24.2,19.8,23.3,18.8,23.3z M17,38.4H5.6V27H17
		V38.4z M11.3,35.1c1.3,0,2.4-1.1,2.4-2.4c0-1.3-1.1-2.4-2.4-2.4c-1.3,0-2.4,1.1-2.4,2.4C8.9,34,10,35.1,11.3,35.1z M18.8,2H3.9
		C2.8,2,2,2.8,2,3.9v14.9c0,1,0.8,1.9,1.9,1.9h14.9c1,0,1.9-0.8,1.9-1.9V3.9C20.7,2.8,19.8,2,18.8,2z M17,17H5.6V5.6H17V17z
		 M11.3,13.7c1.3,0,2.4-1.1,2.4-2.4c0-1.3-1.1-2.4-2.4-2.4c-1.3,0-2.4,1.1-2.4,2.4C8.9,12.7,10,13.7,11.3,13.7z M40.1,2H25.2
		c-1,0-1.9,0.8-1.9,1.9v14.9c0,1,0.8,1.9,1.9,1.9h14.9c1,0,1.9-0.8,1.9-1.9V3.9C42,2.8,41.2,2,40.1,2z M38.4,17H27V5.6h11.4V17z
		 M32.7,13.7c1.3,0,2.4-1.1,2.4-2.4c0-1.3-1.1-2.4-2.4-2.4c-1.3,0-2.4,1.1-2.4,2.4C30.3,12.7,31.3,13.7,32.7,13.7z"/>
</g>
</svg>
