<?xml version="1.0" encoding="utf-8"?>
<!-- Generator: Adobe Illustrator 18.1.1, SVG Export Plug-In . SVG Version: 6.00 Build 0)  -->
<svg version="1.1" baseProfile="tiny" id="图层_1"
	 xmlns="http://www.w3.org/2000/svg" xmlns:xlink="http://www.w3.org/1999/xlink" x="0px" y="0px" viewBox="0 0 30 33"
	 xml:space="preserve">
<path fill-rule="evenodd" fill="#B2B2B2" d="M29.9,29.5c0.6,1.9-1.1,3.8-3.1,3.4c-3.2-0.5-7.3-0.9-11.8-0.9c-4.5,0-8.6,0.3-11.8,0.9
	c-2,0.3-3.6-1.5-3.1-3.4c1.3-4.4,4.5-7.9,8.6-9.8c-2.8-2-4.6-5.2-4.6-8.9C4.1,4.9,9,0,15,0c6,0,10.9,4.9,10.9,10.9
	c0,3.7-1.8,6.9-4.6,8.9C25.4,21.6,28.6,25.2,29.9,29.5z"/>
</svg>
