<?xml version="1.0" encoding="utf-8"?>
<!-- Generator: Adobe Illustrator 18.1.1, SVG Export Plug-In . SVG Version: 6.00 Build 0)  -->
<svg version="1.1" baseProfile="tiny" id="图层_1"
	 xmlns="http://www.w3.org/2000/svg" xmlns:xlink="http://www.w3.org/1999/xlink" x="0px" y="0px" viewBox="0 0 44 44"
	 xml:space="preserve">
<path fill="#FF9641" d="M22,5c0.3,0,0.6,0.1,1,0.4l18.4,15.1c0.8,0.7,0.6,1.6,0.5,1.8c-0.1,0.3-0.5,1.1-1.5,1.1h-2.9
	c-1.1,0-2,0.9-2,2v13.5c0,0.1,0,0.1-0.1,0.1h-8.8c0,0-0.1,0-0.1-0.1v-3.7c0-2.2-1.8-4-4-4h-1.1c-2.2,0-4,1.8-4,4v3.7
	c0,0.1,0,0.1-0.1,0.1H8.5c0,0-0.1,0-0.1-0.1V25.4c0-1.1-0.9-2-2-2H3.6c-1,0-1.4-0.8-1.5-1.1c-0.1-0.3-0.3-1.1,0.5-1.8L21,5.3
	C21.4,5,21.7,5,22,5 M22,3c-0.8,0-1.6,0.3-2.3,0.8L1.3,18.9c-2.6,2.2-1.1,6.4,2.3,6.4h2.9v13.5c0,1.2,0.9,2.1,2.1,2.1h8.8
	c1.1,0,2.1-0.9,2.1-2.1v-3.7c0-1.1,0.9-2,2-2h1.1c1.1,0,2,0.9,2,2v3.7c0,1.2,0.9,2.1,2.1,2.1h8.8c1.1,0,2.1-0.9,2.1-2.1V25.4h2.9
	c3.4,0,4.9-4.3,2.3-6.4L24.3,3.8C23.6,3.3,22.8,3,22,3L22,3z"/>
</svg>
