<?xml version="1.0" encoding="utf-8"?>
<!-- Generator: Adobe Illustrator 18.1.1, SVG Export Plug-In . SVG Version: 6.00 Build 0)  -->
<svg version="1.1" baseProfile="basic" id="图层_1"
	 xmlns="http://www.w3.org/2000/svg" xmlns:xlink="http://www.w3.org/1999/xlink" x="0px" y="0px" viewBox="0 0 18 18"
	 xml:space="preserve">
<path fill="#FFFFFF" d="M9,0C4,0,0,4,0,9s4,9,9,9c5,0,9-4,9-9S14,0,9,0L9,0z M9,16.6c-4.2,0-7.6-3.4-7.6-7.6S4.8,1.4,9,1.4
	c4.2,0,7.6,3.4,7.6,7.6S13.2,16.6,9,16.6L9,16.6z M11.9,5.7l-4.4,5.6L5.4,9.2c-0.3-0.3-0.7-0.3-1,0c-0.3,0.3-0.3,0.7,0,1l2.7,2.7
	c0.1,0.1,0.3,0.2,0.5,0.2c0.2,0,0.4-0.1,0.5-0.2l4.8-6.2c0.3-0.3,0.3-0.7,0-1C12.7,5.5,12.2,5.5,11.9,5.7L11.9,5.7z M11.9,5.7"/>
</svg>
