<?xml version="1.0" encoding="utf-8"?>
<!-- Generator: Adobe Illustrator 18.1.1, SVG Export Plug-In . SVG Version: 6.00 Build 0)  -->
<svg version="1.1" baseProfile="basic" id="图层_1"
	 xmlns="http://www.w3.org/2000/svg" xmlns:xlink="http://www.w3.org/1999/xlink" x="0px" y="0px" viewBox="0 0 18 18"
	 xml:space="preserve">
<g>
	<path fill="#FFFFFF" d="M13,5L13,5L13,5c-0.2-0.2-0.3-0.2-0.5-0.2c-0.2,0-0.3,0.1-0.5,0.2L9,8.1L6,5C5.8,4.9,5.6,4.8,5.5,4.8
		C5.3,4.8,5.1,4.9,5,5C4.9,5.2,4.8,5.4,4.8,5.6C4.8,5.7,4.9,5.9,5,6l3,3l-3,3c-0.1,0.1-0.2,0.3-0.2,0.5c0,0.2,0.1,0.3,0.2,0.4
		c0.1,0.1,0.3,0.2,0.5,0.2c0.2,0,0.3-0.1,0.5-0.2l3-3l3,3c0.1,0.1,0.3,0.2,0.5,0.2c0.2,0,0.3-0.1,0.5-0.2c0.1-0.1,0.2-0.3,0.2-0.5
		c0-0.2-0.1-0.3-0.2-0.4l-3-3l3-3C13.2,5.7,13.3,5.3,13,5z M17.3,5.6c-0.4-1.1-1.1-2.1-2-3c-0.9-0.9-1.9-1.5-3-2
		C11.3,0.2,10.2,0,9,0S6.7,0.2,5.6,0.7c-1.1,0.4-2.1,1.1-3,2s-1.5,1.9-2,3C0.2,6.7,0,7.8,0,9c0,1.2,0.2,2.3,0.7,3.4
		c0.4,1.1,1.1,2.1,2,3c0.9,0.9,1.9,1.5,3,2C6.7,17.8,7.8,18,9,18s2.3-0.2,3.4-0.7c1.1-0.4,2.1-1.1,3-2c0.9-0.9,1.5-1.9,2-3
		C17.8,11.3,18,10.2,18,9C18,7.8,17.8,6.7,17.3,5.6z M14.4,14.4c-1.5,1.5-3.3,2.2-5.4,2.2c-2,0-3.9-0.8-5.4-2.2
		C2.1,13,1.4,11.1,1.4,9c0-2,0.8-3.9,2.2-5.4C5,2.1,6.9,1.4,9,1.4c2,0,3.9,0.8,5.4,2.2C15.9,5,16.6,6.9,16.6,9
		C16.6,11,15.9,12.9,14.4,14.4z"/>
</g>
</svg>
