<?xml version="1.0" encoding="utf-8"?>
<!-- Generator: Adobe Illustrator 18.1.1, SVG Export Plug-In . SVG Version: 6.00 Build 0)  -->
<svg version="1.1" id="图层_1" xmlns="http://www.w3.org/2000/svg" xmlns:xlink="http://www.w3.org/1999/xlink" x="0px" y="0px"
	 viewBox="0 0 30 30" enable-background="new 0 0 30 30" xml:space="preserve">
<g>
	<path fill="#B2B2B2" d="M13.2,16.8c-0.3-0.3-0.5-0.8-0.5-1.2V8.7c0-1,0.8-1.7,1.7-1.7c1,0,1.7,0.8,1.7,1.7v5.2h5.2
		c1,0,1.7,0.8,1.7,1.7c0,1-0.8,1.7-1.7,1.7h-6.9C13.9,17.3,13.5,17.1,13.2,16.8L13.2,16.8z M15,30c8.3,0,15-6.7,15-15S23.3,0,15,0
		S0,6.7,0,15S6.7,30,15,30L15,30z"/>
</g>
</svg>
