<?xml version="1.0" encoding="utf-8"?>
<!-- Generator: Adobe Illustrator 21.0.0, SVG Export Plug-In . SVG Version: 6.00 Build 0)  -->
<svg version="1.1" id="图层_1" xmlns="http://www.w3.org/2000/svg" xmlns:xlink="http://www.w3.org/1999/xlink" x="0px" y="0px"
	 viewBox="0 0 34 34" style="enable-background:new 0 0 34 34;" xml:space="preserve">
<style type="text/css">
	.st0{fill:#338EFF;}
</style>
<g>
	<path class="st0" d="M10.2,27.6c0.6,0,1.1-0.5,1.1-1.1V14.9c0-0.6-0.5-1.1-1.1-1.1s-1.1,0.5-1.1,1.1v11.7
		C9.1,27.1,9.6,27.6,10.2,27.6z"/>
	<path class="st0" d="M17,27.6c0.6,0,1.1-0.5,1.1-1.1V14.9c0-0.6-0.5-1.1-1.1-1.1c-0.6,0-1.1,0.5-1.1,1.1v11.7
		C15.9,27.1,16.4,27.6,17,27.6z"/>
	<path class="st0" d="M23.8,27.6c0.6,0,1.1-0.5,1.1-1.1V14.9c0-0.6-0.5-1.1-1.1-1.1c-0.6,0-1.1,0.5-1.1,1.1v11.7
		C22.7,27.1,23.2,27.6,23.8,27.6z"/>
	<path class="st0" d="M30.6,9.6h2.3V8.5H34V7.4c0-2.3-2-4.3-4.5-4.3h-4.7C24.3,1.4,22.5,0,20.4,0h-6.8c-2.1,0-3.9,1.4-4.4,3.2H4.5
		C2,3.2,0,5.1,0,7.4v1.1h1.1v1.1h2.3v20.2c0,2.3,2,4.3,4.5,4.3h18.1c2.5,0,4.5-1.9,4.5-4.3V9.6z M13.6,2.1h6.8c0.8,0,1.6,0.4,2,1.1
		H11.6C12,2.6,12.8,2.1,13.6,2.1z M28.3,29.8c0,1.2-1,2.1-2.3,2.1H7.9c-1.2,0-2.4-1-2.4-2.1L5.7,9.6h22.7V29.8z M29.5,5.3
		c1.2,0,2.3,1,2.3,2.1H29h-5.7H10.6H5H2.3c0-1.2,1-2.1,2.3-2.1H29.5z"/>
</g>
</svg>
