<?xml version="1.0" encoding="utf-8"?>
<!-- Generator: Adobe Illustrator 18.1.1, SVG Export Plug-In . SVG Version: 6.00 Build 0)  -->
<svg version="1.1" id="图层_1" xmlns="http://www.w3.org/2000/svg" xmlns:xlink="http://www.w3.org/1999/xlink" x="0px" y="0px"
	 viewBox="0 0 100 100" enable-background="new 0 0 100 100" xml:space="preserve">
<g>
	<g>
		<path fill-rule="evenodd" clip-rule="evenodd" fill="#FF9641" d="M76.1,45.3c0-0.3,0.1-0.6,0.1-0.9v-7.9C76.2,21.8,64.5,10,50,10
			S23.8,21.8,23.8,36.4v7.9c0,0.3,0.1,0.6,0.1,0.9c-5.5,0.5-9.9,5.1-9.9,10.8v23c0,6,4.8,10.9,10.8,10.9h50.4
			c6,0,10.8-4.9,10.8-10.9v-23C86,50.4,81.6,45.8,76.1,45.3z M50,81.2c-3.9,0-7.1-3.2-7.1-7.2c0-3.1,2-5.8,4.7-6.8V58
			c0-1.3,1.1-2.4,2.4-2.4h0c1.3,0,2.4,1.1,2.4,2.4v9.3c2.7,1,4.7,3.6,4.7,6.8C57.1,78,53.9,81.2,50,81.2z M66.4,44.7
			c0,0.2,0,0.3-0.1,0.5H33.7c0-0.2-0.1-0.3-0.1-0.5v-8.5C33.6,27,41,19.6,50,19.6c9,0,16.4,7.4,16.4,16.5V44.7z"/>
	</g>
</g>
</svg>
