<?xml version="1.0" encoding="utf-8"?>
<!-- Generator: Adobe Illustrator 18.1.1, SVG Export Plug-In . SVG Version: 6.00 Build 0)  -->
<svg version="1.1" baseProfile="tiny" id="图层_1"
	 xmlns="http://www.w3.org/2000/svg" xmlns:xlink="http://www.w3.org/1999/xlink" x="0px" y="0px" viewBox="0 0 18 18"
	 xml:space="preserve">
<g>
	<g>
		<g>
			<path fill="#808080" d="M13.4,14.5C13.4,14.5,13.4,14.5,13.4,14.5c-0.2-0.2-0.2-0.5,0-0.7c1.3-1.2,2.1-2.9,2.1-4.7
				c0-1.7-0.7-3.4-1.9-4.6S10.8,2.5,9,2.5c-0.3,0-0.5,0-0.8,0C8,2.6,7.7,2.4,7.7,2.1c0-0.3,0.2-0.5,0.4-0.6c0.3,0,0.6-0.1,0.9-0.1
				c2,0,3.9,0.8,5.3,2.2c1.4,1.4,2.2,3.3,2.2,5.3c0,2.1-0.9,4-2.4,5.4C13.9,14.7,13.6,14.7,13.4,14.5z"/>
			<path fill="#808080" d="M3.7,14.3C2.3,12.9,1.5,11,1.5,8.9c0-2.1,0.9-4,2.4-5.5c0.2-0.2,0.5-0.2,0.7,0c0.2,0.2,0.2,0.5,0,0.7
				C3.3,5.5,2.5,7.1,2.5,9c0,3.6,2.9,6.5,6.5,6.5c0.3,0,0.5,0,0.8,0c0.3,0,0.5,0.2,0.6,0.4c0,0.3-0.2,0.5-0.4,0.6
				c-0.3,0-0.6,0.1-0.9,0.1C6.9,16.5,5,15.6,3.7,14.3z"/>
		</g>
		<path fill="#808080" d="M12.7,15.3c-0.1,0-0.1-0.1-0.1-0.1l0-2.4l2.5,2.5L12.7,15.3z"/>
		<path fill="#808080" d="M5.3,3c0-0.1-0.1-0.1-0.1-0.1l-2.4,0l2.5,2.5L5.3,3z"/>
	</g>
	<g>
		<g>
			<path fill="#808080" d="M13.4,14.5C13.4,14.5,13.4,14.5,13.4,14.5c-0.2-0.2-0.2-0.5,0-0.7c1.3-1.2,2.1-2.9,2.1-4.7
				c0-1.7-0.6-3.4-1.9-4.6s-2.8-1.9-4.6-1.9c-0.3,0-0.5,0-0.8,0C8,2.6,7.8,2.4,7.7,2.1c0-0.3,0.2-0.5,0.4-0.6c0.3,0,0.6-0.1,0.9,0
				c2,0,3.9,0.8,5.3,2.2c1.4,1.4,2.2,3.3,2.1,5.3c0,2.1-0.9,4-2.4,5.4C13.9,14.7,13.6,14.7,13.4,14.5z"/>
			<path fill="#808080" d="M3.7,14.3C2.3,12.9,1.5,11,1.5,8.9c0-2.1,0.9-4,2.4-5.4c0.2-0.2,0.5-0.2,0.7,0c0.2,0.2,0.2,0.5,0,0.7
				C3.3,5.5,2.5,7.1,2.5,8.9c0,3.6,2.9,6.5,6.4,6.6c0.3,0,0.5,0,0.8,0c0.3,0,0.5,0.2,0.6,0.4c0,0.3-0.2,0.5-0.4,0.6
				c-0.3,0-0.6,0.1-0.9,0.1C6.9,16.5,5,15.6,3.7,14.3z"/>
		</g>
	</g>
</g>
</svg>
