<?xml version="1.0" encoding="utf-8"?>
<!-- Generator: Adobe Illustrator 18.1.1, SVG Export Plug-In . SVG Version: 6.00 Build 0)  -->
<svg version="1.1" id="图层_1" xmlns="http://www.w3.org/2000/svg" xmlns:xlink="http://www.w3.org/1999/xlink" x="0px" y="0px"
	 viewBox="0 0 90 90" enable-background="new 0 0 90 90" xml:space="preserve">
<g>
	<g>
		<path fill="#D30000" d="M83,21.5l0.3-0.2c-0.9-0.8-1-1.5-1.6-2.3c-0.2,0-0.5,0.4-0.6,0.2c0.2-0.8-1.3-3.1-2.4-3.5
			c0-1.1-1.4-1.7-2-2.6c0.1-0.1,0.1-0.3,0-0.3l-0.1-0.1c-0.2-0.2-0.5-0.5-0.8-0.5c-0.1,0-0.1,0-0.2,0c-0.5-0.4-1-1.3-1.8-1.9
			c-0.4-0.1-0.9,0.1-1.2-0.2c0-0.2,0.4-0.2,0.3-0.4c-0.2,0-0.4-0.4-0.6-0.5c-0.2,0.2-0.5,0.3-0.6,0.1c-0.3-0.3,0.1-0.4-0.1-0.7
			c-0.5-0.2-1-0.4-1.4-1c-0.3,0.1-0.5,0.2-0.8-0.1c-0.7-1.3-1.8-0.9-2.6-1.7c-0.2,0.1-0.3,0.3-0.5,0.1c0.2-0.1,0.2-0.2,0.3-0.3
			c-0.5-0.8-1.8-0.4-2.1-1.2C63.8,5,64,3.9,63.3,3.9c-0.2,0.2-0.3,0.3-0.5,0.2c0,0,0.1-0.1,0.1-0.1C63,4,63,3.9,63,3.8
			c0-0.1-0.2-0.1-0.3-0.1c-0.1,0.1-0.2,0.1-0.3,0.2c-0.3-0.2-0.8-0.2-0.8-0.7c-0.4,0-0.7-0.2-1.1-0.5c-0.4,0.1,0,0.5-0.2,0.6
			c-0.1-0.7-0.7,0-1-0.3c0-0.1,0-0.2,0-0.2l0.1,0c0.1,0,0.1,0,0.2,0c0.1,0,0.1-0.1,0.1-0.2c0-0.1,0-0.3-0.2-0.3l-0.3-0.1
			c-0.1,0-0.1,0-0.2,0c-0.7-0.3-1.1,0.2-1.9-0.1C57.5,1.9,57.2,2,57,1.6c-0.2,0.1-0.4-0.1-0.6,0.1l-0.1-0.1c0,0,0.1-0.1,0-0.1
			c-0.1,0-0.1,0-0.2,0c0,0-0.1,0-0.1,0c0,0-0.1,0-0.1,0c0,0-0.1,0-0.1,0.1c0,0-0.1,0.1-0.2,0.2c-0.3-0.5-1.3,0.2-1-0.3
			c-0.1,0.1-0.3,0.1-0.3-0.1c-0.3,0.1-0.5,0.7-0.8,0.5c-0.2-0.3,0.3-0.4,0.1-0.7c-0.5-0.4-1.7,0-2.4-0.4c-0.7-0.4-1.1-0.2-1.6,0.3
			c-0.3-0.3-0.1-0.2-0.3-0.6c-0.5,0.4-1.2-0.3-1.2,0.3c-0.3-0.2-0.1-0.4-0.5-0.4c-0.1,0.2,0.1,0.5,0,0.7c-0.1-0.4-0.3-0.2-0.4-0.3
			c0.1-0.1,0.1-0.2,0-0.4c-0.5,0.1-1.1-0.2-1.8,0c-0.3,0.1-0.3,0.5-0.7,0.2C45,0.2,45.1,0.1,45,0c-0.2,0.1-0.8-0.1-0.7,0.1
			c0.2-0.1,0.1,0.4-0.1,0.5C43.8,0.4,44,0.4,43.8,0c-0.7,0.2-1.5-0.1-1.9,0.4c-0.3-0.4-0.8-0.3-1,0.1c-0.6,0.1-1.1-0.2-1.7-0.1
			c0,0,0,0,0,0c0,0-0.1-0.1-0.1-0.1c-0.1-0.1-0.3-0.1-0.4,0c-0.1,0.1-0.1,0.3,0,0.4c0,0.1,0.1,0.1,0.2,0.1c-0.9,0.2-1.3,0.2-2,0
			C36.4,1,36.6,1.4,36,1.6c-0.1-0.1-0.3-0.2-0.4-0.4c-0.2,0.1-0.2,0.3-0.3,0.4c-0.1-0.2-0.3-0.3-0.4-0.3c-0.1,0-0.1-0.1-0.2-0.1
			c-0.1,0-0.2,0-0.2,0l0,0c-0.1,0-0.4,0-0.5,0.1c-0.2,0-0.4,0.2-0.4,0.4c-0.1,0.1-0.2,0.1-0.2,0.3c0.3,0.3-0.7,0.1-0.9,0.7
			c-0.2-0.1-0.3-0.2-0.2-0.4c-0.5,0.7-1.2-0.1-1.6,0.8c-0.1-0.2,0.1-0.3,0-0.4c-1.1,0.1-1.1,0.9-1.6,1.2c-0.1-0.2,0.2-0.2,0-0.4
			c-0.3,0.4-0.4-0.2-0.6,0.1c-0.1,0.4-0.9,0.6-1.5,0.6c0,0.3-0.2,0.5-0.3,0.7c-0.3-0.1-0.7-0.1-1.2,0.3c-0.1-0.1-0.5-0.4-0.4,0
			c0.1,0,0.2,0,0.2,0.1l-0.7,0.4l-0.2-0.3c-1,0.6-2.4,1.1-2.3,2c-0.2,0.1-0.7,0.3-0.7-0.3c-1,0.5-0.6,0.5-0.8,1.1
			c-0.2-0.2-0.2-0.4-0.2-0.6C20,7.8,19.4,7.9,20,8.1c-0.4,0.4-0.5-0.2-0.8,0c-0.7,0.9-2.2,1.3-2.4,2.1c0.2,0,0.4-0.1,0.5,0.2
			c-0.4,0.3-0.7-0.1-1.1,0.1c0.3,0.4-0.5,0.5-0.5,0.8c0.3,0,0.6-0.2,0.9-0.1c0,0.1,0,0.2-0.1,0.3c-0.4,0-0.9,0.1-1.2-0.2
			C14.9,11.7,15,12,14.4,12c-0.1,0.3,0.1,0.1,0.2,0.4c-0.2,0.4-0.7,0.2-1,0.5c-0.1,0-0.2,0-0.3,0.1c-0.1,0.1-0.2,0.1-0.2,0.2
			c-0.1,0.1-0.2,0.3-0.1,0.4l-0.1,0.1c-0.2,0.1-0.2,0.3-0.1,0.4c0,0,0,0,0,0.1c0,0.1,0,0.1,0,0.2c-0.7,0.4-0.8,0.3-1.5,1
			c0,0.4,0.1,0.5-0.2,0.9c-1,0-1.5,1.3-1.9,2c-0.1,0-0.2,0-0.3,0c-0.2,0.1-0.3,0.3-0.4,0.6c0,0,0,0.1,0,0.1
			c-0.1,0.3,0.1,0.6-0.3,0.7c0,0-0.1,0-0.1,0c-0.4,0-0.6,0.4-0.6,0.8c0,0,0,0,0,0.1c-0.1,0.3-0.1,0.6,0.2,0.6c0,0.3-0.2,0.6-0.6,0.8
			l-0.2-0.3c-0.3,0.4-0.7,0.7-0.5,1.2c0.1,0.2,0.3,0,0.4,0.3l-0.2,0.1c0,0,0,0,0-0.1l0-0.1c-0.1-0.1-0.1-0.2-0.2-0.3
			c0,0,0,0-0.1-0.1c-0.1-0.1-0.3,0-0.4,0.1c-0.1,0.2-0.2,0.4-0.2,0.5c0,0,0,0,0,0.1c-0.3,0.4-0.1,1-0.5,1.1c0.1,0.3,0.1,0.6,0.4,0.5
			C5.5,25,5.4,25,5.4,25.1c0.1,0,0.2-0.1,0.3,0c-0.4,0.4-0.5-0.4-0.9-0.3c0.3,0.3,0.1,0.4-0.2,0.5c0.3,0.4,0.2,0.3,0.4,0.7
			c-0.4,0.1-0.2,0.4-0.3,0.6c-0.3,0.3-0.5,0.1-0.9,0.4c0,0.2,0.1,0.4,0.1,0.6c0.1,0.1,0.4-0.2,0.5,0c-0.6,0.4-0.6,1-1.4,1.3
			c0.1,0.2,0.2,0.3,0.1,0.5c-0.7,0.4-0.3,1-0.8,1.4c0.1,0.1,0.2,0.2,0.2,0.3c-0.1,0.1-0.1,0.3,0,0.4c0,0.1,0.1,0.2,0.1,0.2
			c0,0,0,0,0,0C2.7,32.1,3,32.5,3,32.6l-0.3,0.2l-0.3-0.5c-1.3,0.4,0,1.4-0.9,1.9C1.6,34.5,2,34,2.1,34.5c-0.8,0.4-0.8,1.1-0.7,1.4
			c0,0,0-0.1,0.1-0.1c0.2,0.3,0.3,0.5,0.1,0.7c-0.9-0.1-0.8,0.9-0.8,1.6c0.2,0.1,0.4-0.2,0.5,0.1c-0.2,0.5-0.1,1-0.8,1.1
			c0.1,0.3,0,0.8,0.5,0.8c-0.3,0.1-0.5,0.3-0.4,0.5c0.2,0,0.4,0.2,0.5,0.5c-0.6,0.2-0.2,0.3-0.8,0.5c0,0.7-0.1,1.4-0.1,2.1
			c-0.1,0-0.1,0.1-0.1,0.2l0,0.1c0,0.1,0,0.2,0,0.3c0,0.1,0.1,0.2,0.2,0.3c0,0.3,0.3,0.6,0.6,0.7c-0.3,0-0.2,0.6-0.5,0.8
			c0.1,0,0.2-0.1,0.3,0c-0.3,0.4,0,1-0.3,1.4c0.1,0.3,0.3,0.1,0.4,0.3c-0.9,0.3,0.2,1.3-0.4,1.7c0.3,0.8,0.6,1,0.9,1.5
			c0.2-0.2,0.2-0.4,0.5-0.1c-0.2,0.2-0.3,0.3-0.4,0.5l0,0c0,0,0,0,0,0c-0.1-0.1-0.2,0-0.2,0c0,0.1,0,0.2,0,0.2c0,0,0.1,0.1,0.2,0.1
			c0.1,0.4,0.4,0.9,0,1.1c0.3,0.4,0.2,0.3,0.4,0.7c-0.5,0.2-0.2,0.6,0,0.9c-0.3,0-0.2,0.1-0.6,0.2c0.1,0.2,0,0.4,0.2,0.7
			c0.3-0.3,0.4,0,0.6,0.1c-0.2,0.3-0.1,0.7-0.4,0.9c0.6,0.8,0.9,1.4,0.6,2.2c0.3-0.1,0.5,0.3,0.3,0.5c0.2-0.2,0.4,0.1,0.6,0.1
			c-0.2,0.4-0.6,1.2,0.1,1.4c-0.1-0.3,0.3-0.1,0.4,0.2c-0.3-0.1-0.1,0.2-0.5,0.3c0.4,0.3,0,0.2,0.2,0.6c0.6,0.1,0.4,1.3,1.3,1.6
			c-0.2,0.1-0.2,0.2-0.2,0.3c-0.1,0.1-0.1,0.1-0.1,0.1c-0.2,0.1-0.2,0.3-0.1,0.5C4.3,64,4.5,64.1,4.6,64c0,0,0,0,0,0
			c0.1,0,0.2-0.1,0.3-0.2c0,0,0,0,0-0.1c0.1,0,0,0.1,0,0.2c0,0.3,0.5,0.7,0.4,1c0,0-0.1-0.1-0.1-0.1c-0.2-0.1-0.5-0.1-0.6,0.1
			c-0.1,0.2-0.1,0.5,0.1,0.6c0.1,0,0.1,0.1,0.2,0.1c0.1,0.1,0.2,0.1,0.3,0.1c0.5,1,1.1,1.4,1.3,2.2c0.2-0.1,0.4-0.2,0.5-0.1
			c-0.3,0.2-0.5,0.4-0.1,0.6c0.2-0.2,0.1-0.2,0.3-0.4c0.3,0.4-0.1,0.5,0.3,0.9C7.3,69,7.3,69.1,7.1,69c0.2,0.2,0.3,0.8,0.5,0.6
			c0,0.2,0.2,0.4,0.3,0.5c0,0,0.1,0,0.1,0c0.4,0.7,1,1.7,1.6,2.5c0.6-0.2,0.5,0.6,1,0.4c-0.1,0.2-0.2,0.4-0.2,0.6
			c0.4-0.1,0.4,0.5,0.5,0.6c0,0.3,0.3,0.6,0.5,0.7l0,0l0,0c0.1,0,0.1,0,0.2,0c0,0,0.1,0,0.1,0c0.2,0.3,0.6,0.3,0.9,0.7
			c-0.1-0.3,0.3-0.2,0.4-0.1c0.1,1,0.7,2.2,1.7,2.1c0,0,0,0-0.1,0.1c-0.1,0.1-0.1,0.2-0.1,0.3l0,0.1l0,0.1c0,0.1,0.1,0.2,0.2,0.3
			l0,0c0.1,0.2,0.3,0.2,0.5,0.1l0,0c0.2-0.1,0.2-0.3,0.1-0.5l0,0l0,0c0.1-0.1,0.1-0.2,0.3-0.2c0.1,0.3,0.3,0.2,0.5,0.5
			c-0.2,0.3-0.3,0.3-0.6,0.3c0.3,0.3,0.5,0.5,0.8,0.7c0.1-0.1,0.2-0.2,0.2-0.3c0.2,0.6,0.3-0.1,0.6,0.2l-0.4,0.2
			c0.2,0.3,0.4,0.7,0.7,0.7c-0.1-0.3,0.4-0.2,0.5-0.1c0,0.2,0,0.3,0.1,0.5c0.3,0,0.6,0,0.9,0c-0.1,0.3-0.4,0.5,0,0.9
			c0.2-0.2,0.4-0.2,0.5,0c0,0.7,1.2,1.1,1.8,1.5c0.3,0,0.2-0.5,0.4-0.2c0,0.4,0.6,0.7,1.1,0.6c-0.1,0.1-0.2,0.2-0.3,0.4l0,0.1l0,0.1
			c0,0.2,0.2,0.2,0.4,0.2c0,0,0,0,0.1,0c0.1-0.1,0.2-0.2,0.1-0.3c0,0,0,0,0,0c0,0,0,0,0,0c0.1,0.5,0.7,0.8,1,0.6
			c0.2,0.1,0.6,0.8,1.1,0.8c-0.3-0.3,0.5-0.4,0.7-0.2c0.3,0.8,1,1,1.6,1.5c0.3-0.3,0.8-0.1,1.2-0.2c0.1,0.1,0,0.2,0.1,0.4
			c0.4-0.3,0.9,0.2,1.4,0.3c-0.1,0.1-0.1,0.3,0,0.5c0.2,0,0.3,0,0.5,0.1c0,0.1,0.1,0.2,0.2,0.3c0.4,0.3,0.9,0.3,1.2,0.1
			c0.1-0.1,0.2-0.1,0.3-0.2c0,0,0,0,0,0c0.2,0.1,0.3,0.3,0.4,0.6c1,0.3,1.7,0,2.6,0.1c0.2,0.2,0,0.3,0.2,0.6
			c0.5-0.1,1.7,0.6,1.6-0.3c0.2,0.2,0.6,0.4,0.5,0.6c0.6-0.2,1.1-0.2,1.5,0.1c0.4-0.1,0.1-0.4,0.5-0.6c0.3,0.1,0.6,0.1,0.8,0.3
			c-0.1,0.2-0.2,0.3-0.2,0.5c0.7-0.4,0.7,0.4,1.6-0.3c0.1,0.2,0.2,0.4,0.4,0.4c0.6-0.3,1.3-0.3,1.2,0c0.5-0.2,0.5-0.4,0.8,0.1
			l0.6-0.3c0.4,0.5,1.2,0.4,1.3-0.1c0.3,0.1,0.1,0.1,0.2,0.4c0.6-0.4,1.8,0.3,2.2-0.6c0.8,0.4,1.9,0.1,2.9,0.1
			c0.1-0.7,0.2-0.3,0.4-0.1c0.5-0.9,1.4,0.3,1.6-0.8c0.3,0.3,0.1,0.3,0.4,0.4c0.2-0.3,0.7,0,0.7-0.4c-0.2,0.1-0.2-0.2-0.2-0.3
			c-0.1,0.1-0.3,0.2-0.4,0.1c0-0.2,0.1-0.3,0.1-0.5c0.1,0.3,0.4,0.3,0.5,0.6c0.5-0.2,1.1,0.3,1.4-0.4c0.1,0.1,0.2,0.1,0.2,0.3
			c0.3-0.5,0.9-0.2,0.8-0.6c0.3,0.1,0.5,0.4,0.8,0.1c-0.4-0.6,0.7-0.9,0.8-0.2c0.9-0.4,1.9-0.5,2.2-1.3c0.2,0.3,0,0.3,0.2,0.4
			c0.7-0.1,1-0.7,1.4-0.9c0,0.1,0,0.2,0,0.3c0.1,0.2,0.3,0.2,0.5,0.1c0,0,0,0,0,0c0.1,0,0.2-0.1,0.3-0.3c0.1-0.1,0.1-0.2,0.1-0.3
			c1.3-0.9,2.6-1.1,4.1-2c0,0,0.1,0,0.1,0c0,0,0.1,0,0.1,0c0,0,0.1,0,0.1,0c0.1,0,0.1,0,0.2,0c0.1,0,0.1-0.1,0.2-0.2
			c0-0.2-0.1-0.3-0.3-0.3c-0.1,0-0.1,0-0.2,0c0,0,0,0-0.1,0c0.1-0.2,0.8-0.3,0.9,0c0.4-0.6,1.1-0.6,1.6-1.2
			c-0.4-0.5,0.2-1.1,0.6-0.9c0,0.1-0.1,0.1-0.1,0.2c-0.1,0.1-0.1,0.2,0,0.3c0.1,0.1,0.2,0.1,0.2,0c0,0,0,0,0,0
			c0.1-0.1,0.1-0.2,0.2-0.3l0,0c0.3-0.1,0.4-0.1,0.9-0.4c-0.2-0.2-0.3-0.3-0.2-0.6c0.3-0.2,0.4,0.3,0.7,0.1c0.4-0.6,1.3-1,2-1.7
			c0-0.4-0.6,0.1-0.3-0.2c0.6,0.1,1.2-0.6,1.6-1.1c0,0,0,0,0,0c0.1,0,0.2,0,0.3-0.1c0.1-0.1,0.2-0.2,0.3-0.3c0,0,0-0.1,0-0.1
			c0.2-0.2,0.3-0.4,0.6-0.6c-0.1-0.2-0.3-0.3-0.1-0.5c0.2-0.1,0.3-0.2,0.3-0.3l0.2,0.3c0.4-0.6,0.9-1.1,1.3-1.6c0.1,0,0.2,0,0.3-0.1
			c0,0,0.1-0.1,0.1-0.1c0,0,0.1,0,0.1-0.1c0.1-0.1,0.2-0.2,0.3-0.3l0-0.1l0-0.2c0.2-0.2-0.1-0.6,0.1-0.8c0.8-0.2,1.1-0.9,1.3-1.4
			c0.9-0.8,1.3-1.8,1.7-2.7c-0.2,0-0.4-0.3-0.2-0.5c0,0.1,0,0.1,0,0.2c0,0.2,0.1,0.3,0.3,0.3c0.1,0,0.1,0,0.2,0
			c0.1-0.1,0.2-0.2,0.2-0.3c0,0,0-0.1,0-0.1c0.1,0,0.3,0.1,0.2-0.2c-0.5-0.2,0.6-0.2,0-0.5c0.2-0.3,0.3-0.3,0.6-0.2
			c0.1-0.5,0.2-0.6-0.1-1c0.4,0.1,0-0.2,0.2-0.4c0.1,0.3,0.3,0.3,0.6,0.1c0.3-0.3-0.3-0.4,0-0.7c0.4,0,0.8-0.9,0.8-1.6
			c0.4,0,0.4-0.8,0.7-1.1c-0.4-0.4-0.2-1.1,0.5-1.2c0.4-1.8,1.2-3.4,1.5-5.2c0,0,0,0,0,0c0,0,0,0,0,0c0.2-0.1,0.2-0.4,0.2-0.5
			c0,0,0-0.1,0-0.1c0.2-0.4-0.1-1,0-1.5c0.1,0.1,0.1,0.3,0.3,0.2c0-0.3,0.2-0.6,0.1-1c-0.2,0.3-0.6,0-0.4-0.2c0.2,0.4,0.2-0.2,0.5,0
			c0-0.8,0.3-1.6,0.4-2.4c-0.2,0.2-0.4,0.2-0.5,0c0.1-0.1,0.1-0.2,0-0.3c0.2,0,0.4-0.1,0.6-0.1c-0.1-0.6,0.3-1.1-0.1-1.8
			c-0.3,0.1-0.2,1-0.6,0.5c0.5,0,0.2-0.8,0.9-0.9c-0.2-0.6-0.3-0.7-0.4-1.2c0.7-0.9,0.7-2.2,0.1-3.7c0.5-0.6,0.1-1.1,0.2-1.7
			c-0.3,0.1-0.4-0.2-0.6-0.5c0.6-0.7,0.5-1.9-0.2-2.7c0.1-0.2,0.2-0.3,0.4-0.2c-0.4-0.8-0.3-1.5-0.4-2.2c-0.5-0.1-0.4-0.5-0.7-1
			c0.2-0.1,0.4-0.2,0.4-0.4c-0.3-0.3-0.1-0.5-0.3-0.8c-0.2,0.2-0.4,0.2-0.5,0c0.3-0.2,0.2-0.5,0.4-0.7c-0.3-0.4-0.1-0.6-0.5-0.5
			c0.2-0.9-0.4-1.9-1.1-3c0.1-0.1,0.2-0.2,0.2-0.3c-0.4-0.4-0.4-0.9-0.8-1.2c0,0,0,0,0,0c0.1-0.1,0.2-0.2,0.2-0.4
			c0-0.1-0.1-0.2-0.2-0.2c-0.4-0.7-0.5-1.2-1.1-1.2c-0.1-0.1,0.1-0.6-0.1-0.5c0.1,0.1-0.1,0.2-0.2,0.1c0.2-0.1,0.2-0.3,0.5-0.4
			C84.5,24,84.1,21.9,83,21.5 M8.3,69.9C8.3,70,8.3,70,8.3,69.9c-0.1,0-0.1-0.1-0.1-0.1c-0.1,0-0.1-0.2-0.1-0.2c0,0,0,0,0-0.1
			C8.2,69.5,8.2,69.8,8.3,69.9 M11.8,74.6C11.8,74.6,11.8,74.6,11.8,74.6c-0.1,0-0.1,0-0.2,0c-0.2-0.1-0.3-0.3-0.3-0.4
			c0.1-0.1,0.1-0.2,0.3-0.3c0.1,0.2,0.2,0.2,0.3,0.3C11.9,74.3,11.8,74.4,11.8,74.6 M78.7,19.2c0.1,0.4-0.1,0.3-0.4,0.3c0,0,0,0,0,0
			c-0.1,0-0.2-0.2-0.3-0.4l0,0C78.2,19.2,78.5,19.1,78.7,19.2 M55.8,2.1C55.9,2,55.9,2,55.8,2.1C56,2,56,1.9,56.1,1.9l0,0
			c0,0.1-0.1,0.2-0.3,0.2C55.8,2.1,55.9,2.1,55.8,2.1 M55,4.3C55,4.3,55,4.3,55,4.3L55,4.3C55,4.2,55,4.2,55,4.3 M43.2,2.7
			c0.2,0.4,0.1,0,0.4-0.1c0.2,0.2,0.1,0.2,0,0.3c0,0-0.1,0-0.1,0c-0.1,0-0.2,0.1-0.3,0.1C43,3,42.9,3,42.9,3C43,2.9,43,2.8,43.2,2.7
			 M39.8,1.4c-0.2,0.1-0.3,0-0.4-0.3C39.6,0.9,39.8,1.2,39.8,1.4 M37.9,3.7c0,0-0.1,0-0.1,0c0,0,0,0-0.1,0
			C37.8,3.6,37.8,3.7,37.9,3.7 M34.5,2.2L34.5,2.2C34.6,2.2,34.6,2.2,34.5,2.2c0.1,0,0.1,0,0.1,0c-0.1,0.1-0.1,0.1-0.2,0.2
			c-0.1-0.1-0.2-0.1-0.2-0.1C34.3,2.2,34.4,2.2,34.5,2.2 M18.3,9.6c0.4-0.2,0.4,0.1,0.7-0.2C19.3,9.7,18.4,9.9,18.3,9.6 M13.9,13.7
			c0,0.1,0,0.1-0.1,0.1C13.8,13.8,13.9,13.7,13.9,13.7 M12.3,17.7c0.2-0.1,0.3,0,0.4,0.2l-0.3,0.2C12.3,17.9,12.4,17.8,12.3,17.7
			 M9.1,18.7c0,0.1,0,0.2,0.1,0.1C9.3,19,9,19.1,8.9,19C8.9,18.7,9,18.7,9.1,18.7C9,18.7,9,18.7,9.1,18.7 M8.1,20.1
			c0.1,0,0.1,0,0.1-0.1c0,0.2-0.2,0.3-0.3,0.3C7.9,20.2,8,20.1,8.1,20.1 M6.2,23.3C6.2,23.3,6.2,23.3,6.2,23.3
			C6.2,23.4,6.2,23.4,6.2,23.3C6.2,23.3,6.2,23.3,6.2,23.3 M3.6,31.4C3.6,31.3,3.6,31.3,3.6,31.4C3.6,31.3,3.6,31.3,3.6,31.4
			C3.6,31.3,3.6,31.4,3.6,31.4C3.6,31.4,3.6,31.4,3.6,31.4 M3.4,39.8c0,0.1,0,0.2,0,0.3c0,0,0,0.1,0,0.1C3.4,40,3.3,39.8,3.4,39.8
			 M0.6,44L0.6,44c0-0.1,0-0.1,0-0.1c0.1,0,0.2,0,0.3,0C1,44,0.8,44.1,0.6,44.1C0.6,44.1,0.6,44,0.6,44 M3.1,49c0.1,0,0.2,0,0.4-0.1
			c-0.1,0.2-0.1,0.4-0.3,0.6C3.1,49.4,3.2,49.2,3.1,49 M3.7,51.1C3.7,51.2,3.7,51.2,3.7,51.1c0,0.1,0,0.2,0,0.2
			C3.7,51.4,3.7,51.3,3.7,51.1 M3.2,57.6C3.1,57.6,3,57.5,3,57.3c0.1-0.1,0.2,0,0.3,0.1C3.2,57.5,3.2,57.5,3.2,57.6 M20.8,82
			c0.2,0,0.4,0.2,0.5,0.5C21.1,82.5,20.9,82.3,20.8,82 M31.9,87.2C31.9,87.2,31.9,87.2,31.9,87.2L31.9,87.2
			C31.9,87.2,31.9,87.2,31.9,87.2 M36.7,86.1C36.8,86.1,36.8,86.1,36.7,86.1c0.4-0.1,0.5-0.1,0.6,0c0.1,0.1,0.2,0.2,0.3,0.1
			C37.6,86.6,36.8,86.4,36.7,86.1 M47.2,87C47.2,87,47.2,87,47.2,87c0-0.2,0.2-0.3,0.2-0.3c0,0,0.1,0,0.1,0c0,0,0,0,0.1,0
			c0,0,0,0.1,0.1,0.1C47.4,87.1,47.3,87.1,47.2,87 M49.8,86.8c0.1,0,0.1,0,0.2,0c0.1,0.2,0.1,0.4,0.3,0.3
			C50.2,87.5,49.8,87.1,49.8,86.8 M52.1,86.6c-0.1,0-0.2,0-0.3,0C51.9,86.6,52,86.6,52.1,86.6c-0.1-0.1,0-0.1,0-0.1c0,0,0,0,0,0
			C52.2,86.5,52.2,86.6,52.1,86.6 M69.1,79.6c-0.1,0.1-0.2-0.1-0.3-0.2l0.3-0.2C69.2,79.4,69.1,79.5,69.1,79.6 M76.3,76.8
			C76.3,76.8,76.2,76.8,76.3,76.8c0-0.1,0-0.1,0-0.2c0.1,0,0.1,0,0.2,0.1C76.4,76.7,76.3,76.8,76.3,76.8 M79.4,73.2L79.4,73.2
			c0,0-0.1,0.1-0.1,0.1c-0.1,0-0.1,0.1-0.2,0.1c0-0.1,0.2-0.3,0.4-0.4l0,0C79.4,73.1,79.4,73.1,79.4,73.2 M80.3,67.5
			c0,0,0-0.1,0-0.1L80.3,67.5L80.3,67.5z M88.3,55.4c0,0.1,0,0.1,0,0.1c0,0-0.1,0.1-0.1,0.1C88.1,55.6,88.2,55.4,88.3,55.4
			 M86.8,48.2L86.7,48c0.1,0,0.1-0.1,0-0.2C86.9,47.7,87.2,48.2,86.8,48.2 M89.1,44.4l-0.2,0.1l-0.1-0.2l0.2-0.1L89.1,44.4z
			 M81.3,23.5c-0.6,0.5-0.7,0.7-0.1,1.4c0.4,0.5,0.2,0.2,0.3,0.6c0.2,0.5,0.8,1.5,1,1.8c0,0,0.3,0,0.3,0c0.1,0.1-0.2,0.1-0.1,0.2
			c0,0.3,1.3,1.2,0.5,1.3c0.1,0.2,0.4-0.1,0.5,0.2l-0.3,0.2c0.3,0.3,0.2,0.4,0.6,0.6c-0.1,0.3-0.2,0.6-0.1,1c0.4-0.1,0.7,0,1,0.4
			c-0.6,0.2-0.3,0.8,0.1,1.1c-0.4,0.5-0.2,1-0.3,1.4c0.1,0.1,0.2,0,0.4-0.1c0,0.1,0,0.3-0.2,0.4c0.4-0.1,0.7,0.3,1,0.5
			c-0.3,0.4-0.1,0.9-0.3,1.3c0.2,0.2,0.5,0.2,0.7,0.5l-0.6,0.3c0.2,0.5-0.2,1.8,0.7,1.6c0.1,0.2,0,0.4,0.2,0.7
			c-0.5,0.2-0.2,0.7-0.3,1.3c0.3-0.1,0.4,0.5,0.5,0.8c-1,0.3-0.3,1.3,0.2,1.5c-0.1,0.3-0.2,0.4-0.5,0.3c-0.1,0.2-0.1,0.5,0,0.8
			c0.1,0.1,0.2,0,0.4-0.1c-0.4,0.7,0.3,1.6-0.3,2.2c0.2,0.5,0.5,0.5,0.5,0.9c-0.2,0.1-0.4-0.1-0.6,0.1c-0.2,0.4,0.1,0.3,0.1,0.7
			c-0.4,0.1-0.2,0.9-0.3,1.4c0.2,0.2,0.2-0.3,0.5-0.1c-0.1,0.2,0.3,0.5-0.1,0.6c0-0.6-0.9,0.9-0.3,1.1c-0.2,0.3-0.1,0.6-0.5,0.8
			c0.2,0.3,0.3,0,0.4,0.4c-0.5-0.2-0.6,1-0.3,1.6c-0.6-0.2-0.5,0.4-0.6,0.9c0.2,0.3,0.5,0.4,0.6,0.8c-0.2,0.1-0.3-0.3-0.4-0.3
			c-0.2,0.7-1.2,1.6-0.7,2.3c-0.7,0.1-0.3,1.1-0.8,1.6c0.2,0.4,0.6,0.2,0.8,0.5c-0.1,0.1-0.2,0.2-0.1,0.3c-0.3-0.1-0.7,0.2-0.9,0
			C83.7,59.4,83.6,60,84,60c-0.2,0.4-1.5,1.4-0.6,1.4c-0.2,0.3-0.9,0.9-0.5,1.2c-0.1,0.1-0.4,0.8-0.6,0.3c-0.3,1-0.9,2-1.6,3
			c0.1,0.1,0.3,0,0.4,0c0,0.4-0.7,0.5-0.9,0.8c0,0,0,0-0.1,0c-0.4,0.3-0.4,0.7-0.3,0.9c0,0.1,0,0.1,0.1,0.1c0,0.1,0,0.2-0.2-0.1
			c0.1,0.4-0.2,0.7-0.7,0.9c-0.1,0.1,0.2,0.3,0.1,0.6c-0.7,0-1.3,0.9-1,1.7c-0.1,0-0.5,0-0.2,0.3c-0.2,0.2-0.6-0.3-0.4,0.2
			c-0.1,0.1-0.2-0.1-0.3-0.2c-0.2,0.6-1.6,1.1-0.8,2.2c-0.3,0.1-0.7-0.2-0.6-0.6c-0.8,0.5-0.8,1.2-1.2,1.4c0.2,0.5-0.2,1.2-0.6,1
			c-0.1,0.1-0.1,0.2,0,0.4c-0.2,0-0.5,0-0.6-0.3c-1.2,1-2.1,1.8-2.9,2.8c-0.4-0.2-1.9,0.9-1.8,1.1c-0.5,0.1-0.8,0.3-1,0.7
			c-0.2,0-1,0-0.8,0.5c-0.5,0-1.4,0.4-0.9,0.8c0.2,0.2-0.5,0.2-0.3,0.4c-0.2,0-0.4-0.1-0.5-0.4c-0.6,0.3-1.5,0.6-1.3,1.4
			c-0.1,0.1-0.2,0-0.4,0.1c-0.2-0.8-1.3-0.2-1.6,0.5c-0.1-0.2,0-0.3-0.1-0.5c0,0.4-1.5,0.3-1.2,1.2c-0.2,0-0.3,0-0.5,0.1
			c-0.2-0.5-0.5-0.6-0.8-0.3c-0.1,0-0.2,0-0.3,0c-0.1,0-0.2,0.2-0.1,0.3c0,0.1,0.2,0.2,0.3,0.1c0,0,0,0,0,0c0,0.2-0.4,0.4-0.5,0.4
			c0-0.8-1-0.1-1.5-0.1c0.1,0.2,0.2,0.4,0.4,0.2c-0.3,0.9-1.2,0-1.5,0.6c-0.9-0.6-2.3,0.3-3,0.4c0.1,0.1,0.2,0.2,0.3,0.1
			c-0.1,0.6-0.5,0.1-0.9-0.1c-0.1-0.2-0.3-0.2-0.5-0.2c-0.2,0.1-0.3,0.1-0.5,0.2c-0.1,0.1-0.2,0.2-0.2,0.3c-0.4,0.2-0.9-0.1-1.1,0.2
			c-0.1,0-0.2,0-0.3,0c0,0,0,0,0,0c0,0,0-0.1,0-0.2c-0.5,0.1-1.3-0.1-1.6,0.2c0,0,0-0.1-0.1-0.1c0,0,0,0-0.1-0.1c0,0,0,0,0,0
			c-0.2-0.1-0.4-0.2-0.6-0.1c-0.3,0.1-0.5,0.3-0.6,0.5c0,0,0,0,0,0c-0.4,0.1,0.1,0.4-0.3,0.4c0-0.7-1-0.3-0.6-0.6
			c-0.4-0.2-0.3,0.4-0.6,0.5l-0.3-0.5c-0.1-0.1-0.6,0-0.5,0.1C43.9,86,43,87,42.6,86.3c-0.1,0.2-0.3,0.4-0.5,0.6
			c-0.5-0.9-1.4-0.4-2-0.7c-0.3,0.3-0.2,0.7-0.8,0.9c0-0.3-0.1-0.6,0.2-0.8c-0.5-0.3-1.1-0.4-1.7-0.4c-0.3-0.4-0.8-0.3-1-0.2
			c0,0-0.1,0-0.1,0c-0.7-0.4-2-0.7-2.1-0.1c-0.2-0.2-0.5-0.3-0.2-0.6c-1-0.3-1.9-0.7-2.9-0.9c-0.2,0.3,0.4,0.3,0.3,0.7
			c-0.5,0-0.9-0.3-1.3-0.4c0.5-0.1,0.1-0.4,0.2-0.5c-0.7,0.1-0.7-0.2-1.4,0c0-0.2,0.1-0.3,0.3-0.4c-0.3-0.4-1-0.2-1.3-0.3
			c-0.2-0.1-0.2-0.2-0.3-0.3c-0.6-0.5-1.4-0.5-1.9-1l-0.4,0.2c-0.2-0.7-0.9-0.8-1.2-0.7l0-0.1c0,0,0,0,0,0c0-0.2-0.2-0.3-0.3-0.2
			c-0.1,0.2,0,0.2,0.2,0.2c-0.1,0-0.1,0.1,0,0.2l0,0c-0.1,0-0.2,0-0.2-0.1c-0.2,0.1,0.1,0.3-0.2,0.4c-0.3-0.2-0.3-0.4-0.2-0.7
			c0.1,0,0.1-0.1,0.2,0c0.1,0,0.1,0,0.2,0c0,0,0.1,0,0.1-0.1c0-0.1,0-0.2-0.1-0.2c-0.1,0-0.2,0-0.4,0c-0.2-0.3-0.8-0.9-1.3-0.6
			c-0.2-0.9-1.2-1.2-1.9-1.7c0-0.1,0-0.1,0-0.2c0-0.1-0.1-0.2-0.2-0.2c-0.1,0-0.2,0.1-0.1,0.2c0,0,0,0.1,0,0.1l-0.4,0.2
			c-0.1-0.2-0.2-0.2-0.3-0.3c0.1-0.2,0.3-0.3,0.5-0.3c-0.1-0.3-0.3-0.2-0.4-0.4c-0.4,0.5-0.4,0-0.8,0.2c0.2-0.2-0.2-0.6-0.1-0.9
			c-0.7-0.3-1.3-1.3-2-1.8c-0.1-0.2-0.5,0.4-0.7,0c-0.3,0.1-0.1,0.3-0.1,0.5c-0.4-0.3-0.3-0.8-0.1-1c-0.1-0.1-0.2-0.2-0.3-0.1
			c-0.2-0.9-1.3-2.1-2.1-2.5c-0.6-0.8-0.7-1.9-1.7-1.3c0-0.1,0-0.2,0.1-0.2c0.2-0.3-0.3,0-0.3-0.3c0.1,0,0.3-0.2,0.4-0.1
			c-0.1-1.2-1.8-2.7-2.2-3.8c-0.5-0.4-1.2-0.6-1.2-1.2c0.2-0.1,0.2,0.2,0.4,0C8.2,64,8,62.6,7,62.4c-0.1-0.2,0.4-0.3,0.4-0.5
			C7,61.6,7.2,61,6.8,61.2c-0.4-2.4-1.9-4.5-2-6.7c-0.1-0.2-0.4,0.1-0.5,0c0-0.3-0.1-0.5,0-0.8c0.2-0.1,0.3,0.1,0.4,0
			c-0.2-0.4-0.1-1-0.2-1.3c-0.1-0.1-0.4-0.2-0.4-0.2c0-0.3,0.1-0.4,0.2-0.7c0.1-0.1,0.1-0.1,0.1-0.2c0-0.1,0-0.2,0-0.3
			c0-0.1,0-0.2,0-0.3c0-0.1-0.1-0.2-0.2-0.3c0,0-0.1-0.1-0.1,0c0.1-0.9,0.3-2.4-0.5-2.9c0.1-0.1,0.1-0.3,0.3-0.3
			c-0.6-0.7,0.2-1.2,0-1.8c-0.2-0.2-0.5,0-0.6-0.4c0.2-0.2,0.3-0.5,0.6-0.2c0.1-0.8,0.2-1.6-0.2-2.3c0.1-0.1,0.2-0.1,0.4-0.1
			c0-0.7,0.2-1.3,0.2-1.9c0.1,0,0.1-0.1,0.1-0.1c0.1-0.2,0.1-0.4,0-0.5c0,0,0-0.1,0-0.1c0-0.1,0-0.2-0.1-0.3
			c0.2-0.7,0.4-1.4,0.2-2.2c0.4-0.3,0.2-0.7,0.5-1.1c-0.6-1.7,0.9-2.3,1-3.8c-0.1-0.1-0.1-0.1-0.3,0c-0.1-0.1,0.2-0.3,0-0.3
			c0.4-0.2,0.6-0.7,0.8-1.2c-0.3,0-0.4-0.2-0.4-0.5C6.4,30.8,7,29,7,28.8c0-0.2-0.6,0-0.2,0.1c-0.6-0.3,0.1-0.3,0-0.8
			c0.4-0.3,0.1,0.2,0.2,0.3c0.5-0.4,0.6-0.9,0.9-1.3c-0.1-0.2-0.2-0.2-0.3-0.3c0.2-0.1,0.3-0.2,0.4,0c0-0.3,0.1-0.5-0.1-0.9
			c0.2-0.2,0.5-0.3,0.6-0.1c0.2-0.8,1-1.3,0.9-2.1c0.6-0.3,1-1.3,1.4-1.9c-0.1-0.1-0.2,0-0.4,0.1c0.2-0.5,1.2-0.5,1.1-1.4
			c0.5-0.2,0.8-0.5,0.8-0.9c-0.1-0.2-0.2,0.3-0.4,0c-0.1-0.5,0.1-0.7,0.5-1c0,0,0.1,0,0.1,0l0.1,0.2c0.2-0.2,0.1-0.2,0-0.3l0.3-0.2
			c0,0,0.1,0,0.1-0.1c0.3-0.1,0.5,0,0.6-0.4c-0.3-0.2-0.3-0.3-0.3-0.6c0.2,0,0.3,0,0.2-0.3c0.4,0.3,0.5-0.2,1-0.1
			c0.4-0.2,0.3-0.6,0.3-1c0.2-0.1,0.2,0.2,0.3,0.3c0.6-0.6,1.7-1.4,1.6-1.9c0.3-0.1,1.4-0.6,1.3-1.3c0.3-0.3,0.5-0.1,0.7-0.1
			c0.2-0.3,0.8-0.5,0.6-0.9c0.3,0,0.3-0.2,0.6-0.1c0.5-0.6,2-1.1,2-1.8c0.7,0.4,0.6-1,1.7-1.3c0.1,0.2,0.4,0,0.4,0.3
			c1.3-0.8,3-1.5,4-2.1c0.1,0,0.1-0.1-0.1-0.1c0.2-0.1,2.3-0.6,2-0.9c0.5,0.1,1.2-0.4,1.8-0.4c0.2-0.1,0.1-0.3,0-0.5
			C32.2,5.7,33,5.5,33.1,5c1,0.4,1.4-0.5,2.5-0.4c0-0.1-0.2-0.4,0-0.7c0.5,0,0.7,0.8,1.3,0.4c0.2-0.1-0.1-0.3,0.2-0.4
			c0.1,0.1,0.2,0.2,0.3,0.1c0,0,0,0,0,0.1c0.2,0.2,0.5,0.2,0.8,0.1c0,0,0,0,0,0c0.1,0,0.1-0.1,0.1-0.1c0.2,0,0.4-0.1,0.7-0.3
			c1.1,0.2,2.4-0.2,3.6-0.5c0,0,0,0,0-0.1c0,0.1,0,0.1,0,0.1c0,0.3,0.2,0.4,0.5,0.4c0.1,0,0.3,0,0.4-0.1c0,0,0.1,0,0.1,0
			c0.1-0.1,0.2-0.2,0.2-0.3c0.6,0,1.2,0.2,1.6-0.2c0.1,0.3,1.2,0.5,1.5,0.1c0.2,0.4,0.8,0,1.3,0.3c0.2-0.2-0.3-0.2,0-0.4
			c0.2-0.1,0.3-0.1,0.4,0c0,0,0,0,0,0l0,0.3c0,0,0,0,0,0c-0.1,0-0.1,0-0.2,0.1c0.1,0,0.2,0,0.2,0.1c0.1,0.1,0.2,0.2,0.3,0.2
			c0.1,0,0.1,0,0.1,0c0,0,0.1,0,0.1,0c0.1,0,0.2,0,0.3-0.1c0.1,0,0.1-0.1,0.2-0.1l0.1-0.1l0-0.1c0-0.1,0-0.2,0-0.2c0,0,0,0,0,0
			c0.1,0,0.3,0,0.5,0c-0.2,0.3-0.1,0.5,0.2,0.7c0.3-1,1.5,1,2.1-0.1c0.5,0.6,1,0.9,1.8,0.3c0.1,0,0.1,0.1,0.2,0.1l0.1,0.2
			c0.1,0.1,0.2,0.1,0.3,0.1C55,4.5,55,4.4,55,4.3c0.4,0.2,0.8,0.3,1.1,0.8c0.1-0.1,0.6-0.2,0.4-0.4c0.2,0.2,1.1,0.4,0.8,0.6
			c1.2,0.3,2.2,1.3,3.5,0.8c0.4,0.6,0.8,1.2,1.4,0.8C62.8,7.2,63,8,63.6,8.1c0.1,0,0.3-0.2,0.4-0.2c0.2,0,0.4,0.5,0.6,0.1
			c0.2,0.2-0.1,0.3-0.1,0.5c0.2,0.1,0.6,0.3,0.8,0.4c0,0,0,0,0,0l0.1,0.1c0.1,0.1,0.2,0.2,0.3,0.3c0.1,0.1,0.2,0.1,0.4,0.1
			c0.5,0.6,1.4,1.1,1.9,0.6c0.3,0.7,0.8,1.4,1.2,0.9c0,0.2,0,0.3-0.2,0.4c0.9,0.8,1.9,1.4,2.9,2.2c0.5-0.3,0.4-0.3,0.9-0.5
			c0.1,0.2,0.1,0.3,0.1,0.4c0,0-0.1,0-0.1,0l-0.2,0.1c-0.2,0.1-0.2,0.3-0.1,0.5c0.1,0.2,0.3,0.2,0.5,0.1l0.1-0.1
			c0,0.1,0,0.1,0.2,0.3c0.1,0.2,0.1-0.1,0.3-0.2c0.1,0.2,0.2,0.4,0.4,0.2c0,0.2-0.3,0.4-0.2,0.6c0.6,0.3,1.7,0.4,1.3,1.4
			c0.1,0.2,0.2-0.3,0.5-0.3c0.2,0.4-0.1,0.4-0.4,0.5l0.2,0.4c0.7,0,1.2,0,1.5,0.7l-0.4,0.2c0.3,0.2,0.8,0.7,1.1,1c0,0.1,0,0.2,0,0.2
			c0,0.1,0.1,0.1,0.1,0.2c0.1,0.2,0.2,0.4,0.4,0.5c0.2,0.6,0.9,0.9,1.1,1.6c0.4-0.1,0.3-0.1,0.5,0.1c0.1,0.1,0.1,0.3,0.2,0.4
			c-0.1,0-0.1,0.1-0.1,0.2l0,0.1c0,0.1,0,0.2,0,0.3c0,0.2,0.1,0.3,0.3,0.3c0.1,0,0.1,0,0.2,0c0.1,0,0.1-0.1,0.2-0.2
			c0.1,0.1,0.1,0.2,0.2,0.2c0.2-0.1-0.1-0.3,0.2-0.4C80.9,22.8,80.5,23.5,81.3,23.5 M75.7,13.3c-0.1-0.2,0-0.4,0.1-0.5
			c0.1,0.1,0.3,0.2,0.4,0.3l0,0C76,13.2,75.8,13.3,75.7,13.3 M86,27.4C86,27.5,85.9,27.5,86,27.4c-0.1,0.1-0.1,0.2-0.2,0.2
			c0,0,0,0,0,0C85.6,27.7,85.8,27.5,86,27.4"/>
	</g>
	<g>
		<path fill="#D30000" d="M9.1,48.1c-0.3,0.3-0.8-0.2-0.6,0.4C8.6,48.5,9.2,48.4,9.1,48.1"/>
		
			<rect x="52.1" y="60" transform="matrix(-0.8656 0.5007 -0.5007 -0.8656 127.6412 86.0742)" fill="#D30000" width="0.2" height="0.2"/>
		<path fill="#D30000" d="M52.4,74.1c-0.2,0.1-0.3-0.1-0.5,0l0.2,0.3l0.2-0.1C52.4,74.2,52.4,74.2,52.4,74.1"/>
		<path fill="#D30000" d="M14.9,41.5c0.2,0.1,0.4,0.1,0.6,0c0,0,0.1,0,0.1,0c0.2-0.2,0.7-0.6,0.5-1.3c0,0,0,0,0,0
			c0.1-0.2,0.1-0.5,0-0.7c0,0,0-0.1-0.1-0.1c0-0.2,0.1-0.4,0.2-0.6c0,0,0,0,0,0c0,0,0.1,0,0.1-0.1c0.3-0.3,0.2-0.6,0.2-0.8
			c0-0.1,0-0.1-0.1-0.2c0.1-0.3,0.1-0.5,0.1-0.9c0,0,0,0,0,0c0.1,0,0.1-0.1,0.2-0.1c0.1-0.1,0.2-0.2,0.2-0.4l0.1-0.1l0-0.2
			c0-0.2-0.1-0.4-0.2-0.5c0.1,0,0.2,0,0.3-0.1c-0.1-0.6,0.6-1.1,0.7-1.6c0-0.2-0.2-0.3-0.1-0.5c0.1-0.1,0.4,0,0.4-0.2
			c0-0.2-0.5-0.4-0.2-0.6c0.2,0.1,0.3,0.1,0.6,0c0-0.5-0.1-1.3,0.5-1.3c-0.1-0.2-0.2-0.5-0.1-0.7c0.3,0.1,0.4,0.3,0.7-0.1
			c-0.2-0.3-0.4-0.5-0.4-0.6c0.2,0,0.4-0.2,0.8-0.2c0.2-0.2,0.3-0.6,0.2-0.8c0.1-0.1,0.1-0.2,0.2-0.3l0,0c0-0.1,0-0.1,0-0.2
			c0.1,0,0.2,0,0.4,0c-0.3-0.6,0.3-0.6,0.7-0.8c0.2-0.3-0.4-0.5-0.2-0.6c0.3-0.2,0.6-0.1,0.9-0.2c0,0,0-0.1,0-0.1c0,0,0.1,0,0.1,0
			c0,0,0,0,0,0c0.3-0.2,0.4-0.6,0.4-0.9c0,0,0,0,0,0c0.2-0.2,0.4-0.3,0.7-0.5c0.2,0.1,0.4,0.1,0.5,0c0.1,0,0.1-0.1,0.2-0.1
			c0.1-0.1,0.2-0.2,0.3-0.3c0.2-0.1,0.3-0.4,0.2-0.7c1-1,2.5-1.9,3.1-3c0.1,0.1,0.1,0.2,0.2,0.2c-0.1-0.2,0-0.3,0-0.3
			c0.1,0,0.1,0,0.2,0c0.1,0,0.1,0,0.2-0.1c0.2-0.1,0.3-0.3,0.3-0.4l0.1,0.2c0.5-0.1,0.6-0.6,0.9-0.5c0.1-0.3-0.4-0.3,0.1-0.6
			c0.2-0.1,0.4,0.2,0.6,0.2l1.4-0.8c-0.1-0.4-0.6-0.4-0.3-0.7c0.2,0.2,0.5,0,0.7,0.5c0.7-0.2,1.3-0.8,1.8-1.1
			c0.1,0.2,0.2,0.2,0.4,0.2c0.3-0.4,1-0.4,1.3-0.5c0.5-0.1,1-0.6,1.5-0.7c0,0,0.1,0.2,0.1,0.2c0.6-0.1,1.4-0.4,1.7-0.7c0,0,0,0,0,0
			c0,0.2,0.2,0.4,0.4,0.4c0.1,0,0.3,0,0.4-0.1c0.1-0.1,0.2-0.2,0.3-0.4c0,0,0,0,0,0c0,0,0,0,0,0c0,0,0.1-0.1,0.1-0.1
			c0,0,0.1,0,0.1-0.1l0,0c0,0,0,0,0,0c0,0.1,0,0.1,0.1,0.2c0.4-0.3,0.6,0.1,1.1-0.3c-0.1-0.2-0.2-0.4,0-0.4c0.2,0,0.3,0.3,0.5,0.4
			c0,0-0.1-0.3,0-0.3c0.2,0.1,0.2,0.4,0.5,0.4c0.5,0.1,1.1-0.3,1.7-0.1c-0.4-0.5,0.3-0.6,0.7-0.5l0.3,0.5c0.4-0.2,0.8,0.2,1.3,0.1
			c0.2,0,0.4-0.3,0.7-0.3c0.5,0,1.4,0.9,1.7,0.2c0.7,0.7,1.5,0.4,2.2,0.3c0.9,0.9,2.4,1,3.1,0.8c-0.1,0.5,2,1.1,2.1,1.1
			c0,0-0.1-0.2,0-0.3c0.2-0.2,0.9-0.4,0.6-1c-1.1-0.5-2.5-0.9-3.9-1.2c-0.3-0.1-0.5-0.4-0.8-0.4c-0.2,0-0.4,0.1-0.7,0.1
			c-0.2,0-0.3-0.3-0.5-0.3c-0.5,0-1.3,0.5-1.2,0c-0.4,0-0.9,0.3-1.2-0.3c-1.2,0.4-2.3-0.8-3.3,0.2c-0.7-0.5-1.3-0.2-2.1,0.2
			c-0.4-0.6-1.3-0.6-1.7-0.2c-0.3-0.3-0.7-0.2-1.1,0.1c-0.1,0.1,0,0.2,0.1,0.3c-0.1-0.1-0.2-0.1-0.3-0.1l-0.1,0c0,0,0,0-0.1-0.1
			c0,0-0.1-0.1-0.1-0.1l-0.1-0.1l-0.1,0c-0.1,0-0.2-0.1-0.4,0l0,0l0,0c0,0-0.1,0.1-0.1,0.1c-0.2,0-0.3,0.1-0.4,0.2
			c-0.1,0.1-0.1,0.1-0.1,0.2c0,0,0,0,0,0c-0.1,0.1-0.2,0.2-0.2,0.3c-0.1-0.1-0.3-0.2-0.4-0.2c0.1,0.1,0.2,0.3,0.1,0.4
			c-0.3,0,0-0.4-0.4-0.4c0,0.2-0.3,0.3-0.2,0.6c-0.3-0.1-0.7,0.2-0.8-0.4c-0.6,0.4-1,0.5-1.5,0.6c-0.1,0.2,0.2,0.4-0.1,0.5
			c-0.5,0.3-0.8-0.4-1,0.3c0-0.2,0-0.3-0.2-0.4c-1.6,0.7-2.6,1.4-3.5,1.6c0,0.2,0,0.3,0,0.5l-0.1-0.2c-1.2,0.7-1.7,0.8-1.9,1.5
			c-0.1,0-0.2,0.1-0.3,0.2c0,0.1-0.1,0.1-0.1,0.1c0,0,0,0.1-0.1,0.1c0,0-0.1,0-0.1,0.1c-0.1-0.1-0.2-0.1-0.3-0.3l-0.6,0.4
			c0.1,0.1,0.2,0.3,0.1,0.4c-0.5-0.3-0.5,0.5-0.8,0.8c0,0-0.1-0.1-0.1-0.1c-0.1,0-0.3,0-0.4-0.1l0,0c-0.2,0-0.4,0.1-0.4,0.3
			c0,0.2,0.1,0.4,0.3,0.4c0,0,0.1,0,0.1,0c0.1,0,0.2,0,0.3,0c0,0,0,0,0,0c0,0.2-0.5,0.1-0.6,0.4c-0.3-0.2-0.1-0.4-0.6-0.2
			c0.1,0.7-0.8,0.7-1.2,1.1c-0.1,0-0.3,0-0.4,0.1l-0.1,0c-0.1,0.1-0.3,0.2-0.4,0.3c-0.2,0.2-0.2,0.4-0.1,0.6
			c-0.1,0.2-0.2,0.4-0.3,0.6c0,0-0.2-0.3-0.2-0.2c0,0,0.2,0.4,0.1,0.5c-0.1,0.4-1.4-0.5-0.3,0.3c0.1,0,0.2,0,0.2,0.1
			c0,0,0,0.1,0,0.1c0,0.1,0,0.1,0,0.2c-0.2-0.2-0.3-0.2-0.6-0.4c-0.5,0.5-1.3,1.2-0.9,1.7c-0.1,0.4-0.5,0.3-0.8,0.3
			c0,0.4,0.1,0.5,0.2,0.7c0,0,0,0.1-0.1,0.1l0,0c0,0.1-0.1,0.2-0.1,0.2c-0.2-0.1-0.3-0.2-0.2-0.4c-0.6,0.4-0.5,1-1,1.5
			c-0.1,0.2,0.1,0.2,0.2,0.3c0,0-0.1,0-0.1,0c-0.1,0-0.2,0-0.3,0.1c-0.2,0.1-0.3,0.3-0.2,0.5c0.1,0.1,0.2,0.2,0.3,0.2
			c-0.4,0.6-1.4,0.9-1.5,1.8c0,0.4,0.7,0.2,0.4,0.5c-0.2,0.1-0.2-0.2-0.4,0c-0.5,0.9-0.7,1.9-1.1,2.8c0.1,0,0.2,0,0.3,0.1l0,0.1
			c0,0,0,0.1,0.1,0.1c0,0,0,0,0,0.1c0,0,0,0,0,0c-0.2,0-0.3,0-0.5,0c0.1,0.5-0.3,0.9-0.3,1.4c-0.2,0.1-0.3,0.3-0.3,0.6l0.1,0.3
			c0,0,0,0.1,0.1,0.1c-0.1,0.1-0.1,0.2-0.1,0.4c-0.1,0-0.1,0.1-0.2,0.2c-0.1,0.2-0.3,0.5-0.2,0.9c0,0.1,0.1,0.2,0.2,0.3
			c-0.1,0.4,0,0.7-0.2,1C14.4,41.5,14.7,41.6,14.9,41.5 M16.5,34.5l0.2-0.1l0.1,0.2l-0.2,0.1L16.5,34.5z M15.7,38
			C15.7,38,15.7,38,15.7,38L15.7,38C15.7,37.9,15.7,37.9,15.7,38C15.7,37.9,15.7,37.9,15.7,38C15.8,37.9,15.7,37.9,15.7,38
			 M15.2,39.8c0,0,0-0.1,0.1-0.2c0.1,0,0.1,0.1,0.2,0.1c0,0.1,0,0.2,0,0.2c-0.1,0-0.1,0-0.2,0c0,0,0,0-0.1,0c0,0,0,0-0.1,0
			C15.2,39.9,15.2,39.9,15.2,39.8"/>
		<path fill="#D30000" d="M43.6,65c0,0.1,0,0.2,0,0.3C43.8,65,43.8,64.9,43.6,65"/>
		<path fill="#D30000" d="M13.3,45.2l0.2,0.3c0.4-0.2,2-0.7,2.2-1.4c0.4,0.1,0.9-0.2,1.1-0.6c0.1,0,0.1,0,0.2,0.1
			c0.1,0,0.1,0.1,0.2,0.1c0.2,0.1,0.5,0.1,0.7,0c0.1-0.1,0.2-0.2,0.3-0.3c0,0,0,0,0,0l0,0c0.1-0.1,0.3-0.2,0.4-0.3
			c0-0.1,0.1-0.1,0.1-0.2c0.4-0.2,0.7-0.4,0.6-0.8c0.3-0.1,0.3,0,0.3,0.3c0.7-0.7,2.6-1,2.4-2.1c0,0,0,0,0,0
			c0.1-0.1,0.2-0.2,0.2-0.2l0,0c0,0,0.1,0,0.2,0c0,0.1,0,0.2,0.1,0.3c0,0,0,0.1,0,0.1c-0.1,0.1-0.1,0.2,0,0.3c0.1,0.1,0.2,0.1,0.3,0
			c0,0,0,0,0,0c0.1-0.1,0.2-0.2,0.2-0.3l0.3-0.2c0-0.1,0-0.2,0-0.2c0,0,0,0,0,0c0,0,0,0,0,0c0.1,0.1,0.1,0.1,0.2,0.1
			c0.3,0.1,0.7,0,1-0.2c0.2-0.1,0.4-0.3,0.6-0.5l0.1-0.2l0-0.3c0.5-0.1,1.1-0.5,1.7-0.8c-0.1-0.1-0.1-0.2-0.1-0.3c0.1,0,0.1,0,0.2,0
			c0.1,0,0.2-0.1,0.3-0.1c0,0,0,0,0,0c0,0,0.1,0,0.1-0.1c0.4,0.1,0.9-0.3,0.9-0.6c0.1,0.1,0.2,0.2,0.3,0.1c0.1,0,0.1-0.1,0.1-0.2
			c0,0,0,0,0.1,0c0,0,0.1,0,0.1-0.1c0.1-0.1,0.3-0.3,0.4-0.4c0,0,0.1,0,0.1-0.1c0.1,0,0.1,0.1,0.2,0.2c0.7-0.2,0.3-0.6,0.7-0.8
			c0.3,0.1,0.7,0,1-0.2c0.1,0,0.2,0,0.2,0l0,0c0,0,0.1,0,0.1,0c0.1,0,0.2,0,0.3-0.1c0.1-0.1,0.2-0.1,0.3-0.3c0,0,0-0.1,0-0.1
			c1-0.5,1.6-0.9,2.8-1.5l-0.1-0.1c0.1-0.1,0.2-0.2,0.2-0.3c0.1,0,0.2,0,0.4-0.1c0.1,0.1,0.2,0.1,0.3,0l0.3-0.1c0.1,0,0.1,0,0.2-0.1
			c0.1-0.1,0.2-0.2,0.3-0.4c0.5-0.2,1.1-0.5,1.6-0.8c0.1,0.1,0.3,0.1,0.5,0c0,0,0.1-0.1,0.1-0.1l0.1-0.1c0.1-0.1,0.1-0.1,0.2-0.2
			c0,0,0.1,0,0.1,0c0.2-0.1,0.4-0.4,0.5-0.6c0-0.1,0.1-0.1,0.1-0.2c0,0,0,0,0-0.1c0.4,0.4,0.8-0.6,1.4-0.5c-0.2-0.2-0.3-0.2-0.4-0.3
			c0,0,0,0,0.1-0.1c0,0,0.1-0.1,0.1-0.1c0,0,0,0,0,0l0.2,0.2l0.2,0c0.2,0,0.3-0.1,0.4-0.1c0.2-0.1,0.3-0.3,0.5-0.4
			c0.2-0.2,0.3-0.3,0.4-0.3c0,0,0.1,0,0.1,0c0,0.1,0,0.1,0,0.2l1.9-1.1c0,0,0.1,0,0.1,0c0,0,0,0,0.1-0.1l0.1,0l0,0c0,0,0,0,0-0.1
			c0-0.1,0.1-0.1,0.3-0.2c0.1-0.1,0.3-0.2,0.4-0.3c0,0,0,0,0,0c0.1,0,0.1-0.1,0.2-0.2c0,0,0,0,0.1,0l0.1,0c0.1,0,0.1,0,0.2,0.1
			c0.1,0.1,0.2,0.1,0.3,0c0,0,0.1-0.1,0.1-0.1c0.1-0.2,0-0.4-0.1-0.4c-0.1-0.1-0.2-0.1-0.3-0.1l0,0c0-0.1-0.1-0.2-0.2-0.4
			c-0.2-0.1-0.5,0.2-0.8,0.3c0.1,0.1,0.2,0.2,0.1,0.3c-0.1,0-0.2,0-0.3,0.1c0,0.1-0.1,0.1-0.2,0.2c-0.1,0.1-0.3,0.2-0.4,0.4
			c-0.1,0-0.2,0-0.2,0c-0.1,0.2,0.2,0.4-0.1,0.5c0.1-0.4,0-0.5-0.4-0.5c0,0.2,0.4,0.5,0.2,0.6c-0.3-0.1-0.1-0.4-0.5-0.4
			c0,0.2-0.4,0.4-0.6,0.5c0,0,0,0-0.1,0c-0.5,0-0.8,0.3-1,0.6c-0.1,0.1-0.2,0.2-0.2,0.2c-0.1-0.1-0.3-0.1-0.5-0.1
			c-0.3,0-0.6,0.2-0.8,0.5c-0.1,0.1-0.1,0.2-0.1,0.3l-0.8,0.5c0,0.1,0,0.1,0,0.2c0,0-0.1,0.1-0.1,0.1c0-0.1-0.1-0.2-0.2-0.2
			c-0.2-0.1-0.5,0-0.6,0.2c0,0.1-0.1,0.1-0.1,0.2c0,0-0.1,0-0.1,0l-0.1,0c-0.1,0.1-0.2,0.2-0.2,0.3c-0.3,0.2-0.6,0.5-1.1,0.6
			c0.1,0.1,0.2,0.3,0.1,0.4L36,31.4c-0.1,0.2-0.4,0.3-0.4,0.5c0,0,0,0,0,0L35.3,32c-0.1,0-0.2,0.1-0.3,0.2c0,0,0,0,0,0
			c-0.1,0.2-0.4,0.3-0.5,0.5c-0.1,0-0.1,0.1-0.1,0.1c-0.1,0.1-0.1,0.2-0.2,0.3c0,0-0.1,0.1-0.1,0.1c-0.2,0.1-0.3,0.2-0.2-0.2
			c-0.6,0-0.2,0.5-0.7,0.7c-0.1-0.2-0.2-0.3-0.4-0.4c-0.9,0.3-1.1,1.1-1.6,1.2l0.2,0.3c0,0-0.1,0.1-0.1,0.1c0,0,0,0-0.1,0.1
			C31,35,31,35,30.9,35c0-0.2,0.2-0.4-0.1-0.5c-0.6,0.3-1.5,0.6-2,1.1c-0.1,0-0.3,0-0.4,0.1c-0.2,0.1-0.3,0.3-0.5,0.4
			c-0.1,0-0.3,0.1-0.5,0.2c-0.1,0.3,0.3,0.2,0.1,0.4c-0.2,0-0.4,0-0.5,0.1c-0.1-0.1-0.3-0.1-0.5,0c-0.1,0-0.1,0-0.2,0.1
			c-0.2,0.1-0.3,0.2-0.3,0.4c-0.6,0.2-1,0.7-1.6,1.2c-0.3,0-0.5,0.2-0.5,0.5c-0.1,0.1-0.3,0.2-0.4,0.2c0,0-0.1,0-0.1,0
			c-0.1-0.1-0.1-0.3-0.3-0.2c0.1,0.1,0,0.2,0,0.2c0,0-0.1,0-0.1,0c-0.2-0.1-0.4,0.1-0.5,0.3c0,0,0,0.1-0.1,0.2c0,0,0,0,0,0
			c-0.1-0.1-0.1-0.1-0.1,0c-0.2,0-0.3,0-0.4,0c-0.1,0-0.1,0.1-0.1,0.1l0,0c-0.1,0.1-0.2,0.2-0.2,0.3c0,0,0,0.1-0.1,0.1
			c-1.1,0.4-1.9,1.2-3,1.6c0,0.2,0.1,0.5,0,0.7c-0.1-0.2-0.3-0.4-0.5-0.3c-0.2,0-0.3,0.2-0.5,0.3c0,0,0,0-0.1,0
			c-0.4-0.2-0.8,0-0.9,0.4c0,0.1,0,0.1,0,0.2c-0.1,0-0.1,0.1-0.2,0.1c0,0.2,0.2,0.5-0.2,0.7c-0.9-0.3-1.1,0.9-1.8,0.4
			c-0.1,0.6-0.8,0.5-1.5,0.9c0,0.5-0.2,0.7,0.1,1.1C13,45.8,13.4,45.6,13.3,45.2"/>
		<path fill="#D30000" d="M51,24l0.3-0.2c0.1,0,0.1,0,0.2,0c0.3-0.1,0.6-0.2,0.8-0.3c0.2-0.1,0.4-0.3,0.5-0.5c0-0.1,0.1-0.2,0.1-0.3
			c0.1-0.1,0.1-0.2,0.1-0.3c0,0,0.2-0.1,0.2-0.1l0.1,0c0,0,0,0,0,0c0.1,0.1,0.2,0.2,0.4,0.1c0-0.1,0.1-0.2,0.2-0.3c0,0,0,0,0.1,0
			c0.3,0,0.5,0,0.6-0.1c0.2-0.1,0.3-0.2,0.4-0.3c0.1-0.1,0.2-0.2,0.3-0.2c0.1,0,0.1,0,0.1-0.1c0.2,0,0.5-0.3,0.8-0.4
			c-0.4-0.5-0.3-0.7-0.7-0.9c-0.3,0.2-0.4,0.4-0.5,0.6c-0.3,0.1-0.5,0.3-0.7,0.4c-0.2,0.2-0.3,0.2-0.4,0.2c-0.1,0-0.1,0-0.2,0
			c-0.1-0.1-0.2-0.2-0.3-0.2c-0.2,0.1-0.3,0.1-0.3,0.2c-0.1,0-0.2,0-0.3,0l-0.1,0c-0.2,0.1-0.6,0.2-0.8,0.6c-0.1,0-0.1,0-0.2,0
			l-0.2,0l-0.1,0.1c-0.2,0.2-0.2,0.4-0.2,0.5c0,0,0,0,0,0c-0.1,0-0.2,0.1-0.2,0.2c-0.2,0-0.4,0-0.5,0c-0.2,0-0.4,0.1-0.5,0.3
			c0,0.1-0.2,0.2-0.3,0.2c-0.1,0-0.1,0.1-0.2,0.1c-0.1,0-0.1-0.1-0.2-0.1l-0.1,0l-0.1,0c-0.4,0-0.5,0.3-0.6,0.4c0,0,0,0.1-0.1,0.1
			c0,0-0.1,0.1-0.1,0.1c-0.1,0-0.1,0-0.2,0.1c0,0.1,0.1,0.2,0.2,0.2c0,0,0,0.1,0.1,0.1c-0.2,0.1-0.4,0.2-0.5-0.2
			c-0.3,0.2-0.3,0.4-0.4,0.7c-0.2,0-0.3,0-0.5,0.1c-0.1,0-0.1,0.1-0.2,0.1c-0.1,0-0.1,0-0.2,0.1c-0.3,0-0.7,0.1-0.8,0.4
			c0.1,0.2,0.2,0.2,0.3,0.3c0,0,0,0,0,0c0,0.1,0,0.2,0,0.4c0,0.1,0.2,0.2,0.3,0.1c0,0,0,0,0,0c0.1-0.1,0.1-0.2,0.1-0.3c0,0,0,0,0,0
			c0.1-0.1,0.2-0.3,0.2-0.5c0.1,0,0.2-0.1,0.3-0.1c0.1,0,0.1-0.1,0.2-0.1l0.1,0.3c0.4,0,0.8-0.3,1.2-0.6c0.1,0.1,0.2,0.1,0.4,0.1
			c0.2,0,0.3-0.1,0.5-0.2c0.2-0.1,0.4-0.3,0.5-0.6l0-0.1l0,0l0,0c0.2-0.1,0.5-0.3,0.7-0.5C51,23.9,51,24,51,24 M52.1,22.9
			c0,0,0.1,0,0.1,0c0,0-0.1,0.1-0.1,0.1C52,23,52.1,23,52.1,22.9C52.1,22.9,52.1,22.9,52.1,22.9"/>
		<path fill="#D30000" d="M8.6,47.8c0,0.5,0.3,0.2,0.3,0c0,0,0,0,0,0c0.1,0,0.1,0,0.2,0.1l0.1,0.1c0.3-0.1,0.7-0.2,0.9-0.4
			c0,0,0.1,0,0.1,0c0.1,0,0.1-0.1,0.2-0.1c0-0.1,0.1-0.1,0.1-0.2c0-0.1,0.1-0.2,0.1-0.2c0,0,0.1,0,0.1,0c0.1,0,0.1,0.1,0.1,0.2
			c0.1-0.1,0.2-0.1,0.3-0.2c0,0,0,0,0,0c0.2,0.1,0.3,0,0.5,0c0.1-0.1,0.2-0.1,0.2-0.2c0-0.1,0.1-0.2,0.2-0.2
			c0.3-0.1,0.5-0.3,0.4-0.6c-0.1-0.3-0.3-0.5-0.6-0.4c-0.4,0.1-0.7,0.3-0.9,0.6c0,0,0,0,0,0l0,0l0,0c-0.1,0-0.1-0.1-0.2-0.1
			c-0.6-0.1-0.9,0.4-1,0.7c0,0-0.1,0.1-0.1,0.1c0,0,0,0.1-0.1,0.1c-0.1,0-0.2,0-0.3,0.1c-0.2-0.1-0.4-0.2-0.7,0
			c-0.2,0.1-0.2,0.3-0.1,0.5C8.4,47.8,8.5,47.8,8.6,47.8"/>
		<path fill="#D30000" d="M81.1,42.1c-0.1,0.1-0.1,0.1-0.1,0.2c-4.1,2.7-8.9,5.2-13.2,7.8C67.7,50,67.6,50,67.4,50
			c-0.2,0.1-0.5,0.2-0.6,0.4c-0.1,0.1-0.1,0.2-0.1,0.3l-4.5,2.6c-0.1-0.1-0.3-0.1-0.5-0.1c-0.2,0.1-0.4,0.2-0.6,0.4
			c-0.1,0.1-0.1,0.2-0.1,0.3c0,0,0,0,0,0c-0.5-0.1-0.8,0.2-1,0.4c-0.1,0.1-0.2,0.2-0.3,0.2c0,0-0.1,0-0.1,0.1c-0.1,0-0.1,0-0.2,0
			c-0.2,0.1-0.4,0.2-0.6,0.4c-0.1,0.1-0.2,0.3-0.2,0.4c-0.2,0.1-0.4,0.2-0.5,0.2c-0.1-0.1-0.2-0.1-0.4,0c-0.3,0.1-0.6,0.3-0.9,0.5
			c-0.1,0.1-0.2,0.3-0.2,0.4l0,0c0,0,0,0,0,0c-0.2-0.1-0.7-0.2-1.1,0.5c0,0,0,0.1,0,0.1l-3,1.7c-0.1-0.1-0.3-0.1-0.5-0.1
			c-0.4,0.1-0.7,0.3-1,0.6c-0.1,0.1-0.2,0.3-0.2,0.4c-0.3,0.1-0.5,0.2-0.8,0.3c0.2,0.2,0.4,0.2,0.4,0.3l0,0c-0.1,0-0.2,0.1-0.3,0.1
			c0,0-0.1,0-0.1,0.1c-0.1-0.2,0-0.4-0.3-0.3c-1.8,1.3-3.2,1.9-5,3c-0.1-0.1-0.3-0.1-0.5,0c-0.2,0.1-0.4,0.2-0.6,0.4
			c-0.1,0.1-0.2,0.3-0.2,0.4l-2.8,1.6c-0.1-0.1-0.3-0.1-0.4-0.1c-0.3,0.1-0.6,0.3-0.9,0.5c-0.1,0.1-0.2,0.3-0.2,0.4
			c-3.5,2-8.2,4.8-12.4,7.2c-1.1,0.6-2.3,1.1-3.1,1.9c0.5,0.6,0.9-0.3,1.3,0.4l0.1-0.1c0.1,0,0.1,0.1,0.2,0c0.2,0,0.4-0.1,0.5-0.2
			c0.2-0.1,0.3-0.2,0.4-0.4c0.1-0.1,0.1-0.1,0.1-0.2c0.3-0.2,0.5-0.5,0.9-0.5c0.3-0.3-0.1-0.7,0.3-0.9c0.3,0.1,0.4,0.6,0.7,0.3
			c0.6-0.1,0.1-0.5,0.5-0.7c0.6,0.6,1.4-0.6,1.3-1c0.3,0.2,0.6,0.3,1,0.2c0.4-0.6,1.5-0.7,2.3-1.3c-0.1-0.2-0.4-0.5,0-0.6
			c0.1,0.4,0.3-0.1,0.4,0.4c0-0.5,1.6-0.4,1.4-1.3c0.2,0.3,0.3,0.2,0.5,0.1c0.1,0.1,0.3,0.2,0.5,0.1c0.1,0,0.1-0.1,0.2-0.1
			c0.2-0.1,0.3-0.3,0.5-0.4c0.1-0.1,0.1-0.2,0.1-0.2c0.4-0.2,0.6-0.6,0.9-0.9c0.1,0.5,0.8,0,0.9-0.2c0.3-0.2-0.6-0.1-0.2-0.4
			c0.3,0,0.6,0,0.7,0.3c0.5-0.2,0.9-0.5,1.1-0.8c0-0.1,0-0.2,0-0.3c0.1-0.1,0.1-0.1,0.2-0.1c0,0.1,0.1,0.2,0.1,0.2
			c0.9-0.3,2.5-1.7,3-1.9c0.1-0.2,0.2-0.3,0.3-0.5c0.1,0,0.3,0,0.4,0c0,0,0.1,0,0.1-0.1c0,0,0.1-0.1,0.2-0.1c0,0,0.1,0,0.1-0.1
			c0,0,0.1,0.1,0.1,0.2c0.3-0.3,0.4-0.6,0.7-0.8c0.2,0.3,0.4,0.3,0.7,0.2c1.5-1.1,2.5-1.4,3.8-2.4c0.1,0.1,0.3,0.1,0.4,0
			c0.1,0,0.2-0.1,0.2-0.1l0.1,0c0,0,0.1,0,0.1,0c0.1-0.1,0.2-0.2,0.2-0.3c0.4-0.2,0.9-0.5,0.8-0.8c-0.2,0.2-0.2,0.1-0.2,0
			c0.2-0.2,0.4-0.3,0.7-0.4c0,0,0,0,0.1,0c0,0.1,0,0.1,0,0.2c0,0.1,0.2,0.2,0.3,0.1c0,0,0,0,0,0c0.1,0,0.1-0.2,0.1-0.2
			c0,0,0-0.1,0-0.1c0.1-0.1,0.1-0.3,0.3-0.3c0.5,0.4,1.4-0.4,1.7-0.8c0.5,0.3,1.2-0.5,1.4-0.6c0-0.2-0.1-0.3-0.2-0.4c0,0,0,0,0,0
			c0,0,0.1-0.1,0.1-0.1c0.1-0.2,0.2-0.2,0.2-0.2c0,0,0,0,0,0c0,0,0.1,0,0.1,0l0.3,0.6l0.8-0.4c0-0.2,0-0.3,0-0.4c0,0,0,0,0,0
			c0.1-0.1,0.2-0.2,0.4-0.2l0.1,0.1c0.5-0.3,0.9-0.1,1.4-0.5c0-0.2,0-0.3,0-0.4c0,0,0.1,0,0.1-0.1c0,0,0.1-0.1,0.2-0.1
			c0.1,0,0.3-0.1,0.4-0.1c0.2-0.1,0.2-0.2,0.2-0.4c0.1-0.1,0.2-0.1,0.3-0.2c0.2-0.2,0.3-0.2,0.3-0.2c0,0,0.1,0,0.1,0
			c-0.1,0.2-0.1,0.2,0.2,0.4c0.5-0.2,0.9-0.5,1.1-0.8c0-0.1-0.1-0.2-0.2-0.2c0,0,0,0,0,0c0.1,0,0.2-0.2,0.3-0.3
			c0.1,0.1,0.3,0.2,0.4,0.2c0.2,0.1,1.1-0.4,1.1-0.9c1.1-0.1,3-0.9,3.3-2.1c0,0,0.1,0,0.1,0c0,0,0.1-0.1,0.1-0.1
			c0,0,0.1-0.1,0.1-0.1c-0.1,0.1-0.3,0.2-0.1,0.4c0.5-0.3,0.8-0.4,1.2-0.4c0-0.3-0.2-0.6,0.3-0.7c0.2-0.1,0.3,0.3,0.5,0.3
			c0.6-0.8,1.2-1.2,2-1.7c0.6,0.7,1.7-0.6,2.6-0.9c0.1-0.2,0-0.4,0.1-0.6c0.5,0,0.6-0.5,1-0.7c0.1-0.1,0.2,0.2,0.2,0.2
			c0.2-0.1,0.8-0.7,0.8-0.2c0.4-0.2,0.2-0.6,0.7-0.8c0.1,0.2,0.3,0.2,0.4,0.4l1.3-0.7c-0.1-0.2-0.3-0.4-0.1-0.5
			c0.4-0.1,0.7,0,1.1-0.1c0.7-0.5,1-0.8,1.5-1c0.1,0.2,0.4,0.3,0.6,0.1c0,0,0.1,0,0.1-0.1c0.2-0.1,0.3-0.2,0.4-0.4l0.1-0.2l0-0.2
			c0-0.3-0.2-0.6-0.4-0.8C81.7,41.9,81.4,41.9,81.1,42.1 M25.6,75.2C25.6,75.2,25.6,75.2,25.6,75.2C25.6,75.2,25.6,75.2,25.6,75.2"
			/>
		<path fill="#D30000" d="M75,50c0,0,0-0.1-0.1-0.1c-0.1-0.2-0.4-0.3-0.5-0.1c-0.2,0.1-0.3,0.4-0.1,0.5c0,0,0,0.1,0,0.1
			c0,0,0,0,0,0.1c-0.1,0.1-0.1,0.2,0,0.4l0.1,0.3c0,0,0,0.1,0,0.1c-0.2,0.1-0.4,0.2-0.6,0.4c0.6,0.1,0,0.7,0.6,1
			c-0.2,0.7-0.6,0.1-0.9,0.4c-0.7,0.5,0.7,1.5,0,2c-0.2,0.1-0.3-0.5-0.6-0.2c-0.1,0.3,0.2,0.7-0.1,0.9c-0.6,0.1-0.5,1.2-0.6,1.8
			c-0.3-0.3-0.7,0.4-0.6,0.8c0.1,0.2,0.1-0.2,0.3,0c0.2,0.8-1.2,0.6-1,1.3c0.3-0.1,0.6,0,0.8,0.4c-0.7,0-0.8,0.2-1.4,0.6
			c0.1,0.2,0.3,0.2,0.2,0.3c-0.8,0.6-0.8,1-1.6,1.8c0.1,0.3,0.2,0.5,0.2,0.7c0,0,0,0,0,0c-0.1,0-0.1,0-0.2,0
			c-0.1-0.1-0.3-0.1-0.4-0.1c0,0,0-0.1,0-0.2c-0.3,0.1-0.4,0.3-0.4,0.4c-0.1,0.1-0.1,0.2-0.1,0.3c-0.1,0-0.2,0.1-0.3,0.1
			c0,0,0,0,0,0c0,0,0,0,0,0c-0.1,0.1-0.1,0.1-0.1,0.2c0,0.1-0.1,0.2-0.1,0.2c0,0.1-0.1,0.1-0.1,0.2c-0.1,0.1-0.2,0.1-0.4,0.3
			c0.4,0.5-0.2,0.7-0.3,1c-0.1-0.2-0.2-0.3-0.4-0.4c-0.5,0.3-0.6,0.6-0.9,0.9c0.3,0.3,0.2,0.5,0.1,0.7c0,0-0.1,0-0.1-0.1
			c-0.1-0.1-0.2-0.1-0.3-0.2c-0.1,0-0.1,0-0.2,0c-0.2-0.1-0.4,0-0.5,0.2l-0.2,0.2c-0.1,0.1-0.1,0.2-0.1,0.3c-0.5,0.3-1,0.6-1.4,1
			c-0.1,0-0.3,0-0.4,0.1c-0.1,0.1-0.1,0.1-0.2,0.2L62.3,69c-0.1,0.1-0.1,0.1-0.1,0.2c-1.2,0.7-2.2,1.7-3.6,2.2
			c-0.5,1.1-1.8,0.2-2.7,1.4c0.2-0.1,0.2,0.1,0.1,0.2c0,0,0,0,0,0c-0.1,0-0.2-0.1-0.3-0.2c0,0,0-0.1-0.1-0.1c0,0,0,0,0,0
			c-0.2-0.2-0.5-0.2-0.7,0c0,0-0.1,0.1-0.1,0.1c-0.2,0.1-0.2,0.3-0.2,0.5c-0.2,0.2-0.4,0.6-0.4,0.8c-0.2-0.2-0.6,0-0.9-0.1
			c0.1-0.3-0.4-0.6-0.9-0.2c0.1,0.1,0.2,0.3,0.1,0.4l-0.4,0.3c-0.1-0.3-0.4-0.2-0.5-0.6c-0.4,0.2-0.6,0.1-1,0.5
			c0.1,0.1,0.2,0.2,0.2,0.3c-0.1,0-0.1,0.1-0.2,0.2c0,0.1-0.1,0.1-0.1,0.1c-0.1,0-0.3-0.1-0.5-0.3c-0.1-0.1-0.2-0.1-0.3-0.1
			c-0.2-0.2-0.4-0.1-0.6,0.3c-0.1-0.1,0.1-0.2-0.1-0.4c-0.2,0.2-0.3,0-0.5,0.1c0,0,0,0,0,0c-0.1-0.1-0.4-0.1-0.5-0.1
			c-0.1-0.1-0.2-0.1-0.4-0.1c-0.2,0-0.4,0.1-0.6,0.1c-0.2,0.1-0.3,0.2-0.4,0.4c-0.1,0.1-0.1,0.1-0.2,0.2c0.2-0.8-2.1-0.3-1.2,0
			c-0.6,0.3-0.9,0-1.2-0.3c-0.6,0.5-0.8-0.3-1.2,0.2c-0.1-0.2-0.2-0.3-0.4-0.4c-0.3,0.2-0.1,0.5-0.4,0.6c-1.1-1.5-2.9-0.1-3.8-1.3
			c-0.2,0.2-0.5,0.4-0.8,0.4c-0.1,0-0.1-0.3-0.2-0.3c-0.1-0.1-0.2,0.2-0.4,0.1C37,74,37.7,73.9,37.1,74c-0.3,0,0.1,0.1-0.3,0.3
			c-0.4-0.5-0.8-0.9-1.4-0.5c-0.1-0.2,0.2-0.4,0.1-0.6c-0.3,0-0.6-0.2-1,0.2c-0.1-0.2-0.6-0.5-0.5-0.1c0.4,0.1-0.3,0.6-0.1,0.9
			c0.3,0.1,0.7-0.2,1-0.2l0.1,0.2c0,0,0,0.1-0.1,0.1c-0.1,0.1-0.1,0.2,0,0.3c0.1,0.1,0.2,0.1,0.3,0c0,0,0,0,0,0
			c0.1,0,0.1-0.1,0.1-0.2c0.2,0.1,0.2,0.2,0.2,0.4c0.2-0.1,0.5-0.2,0.7-0.1c0.4,0.9,1.8,0.4,2.6,1c0.3-0.2,0.2-0.4,0.5-0.6
			c0.1,1.2,1.3,0.5,1.8,1c0.2-0.1,0.1-0.3,0.2-0.4c0.7,0.4,1.5,0.6,2.3,0.7c0.3-0.3,0.8-0.6,1.2-0.4c-0.2,0.1-0.4,0.2-0.4,0.4
			c0.5-0.2,1.5,0.3,1.4-0.5l0.3,0.5c0.4-0.1,0.8-0.2,1.2-0.2c0.1-0.2,0-0.3-0.1-0.4c0.1,0,0.1,0,0.2,0c0,0,0,0,0,0c0,0,0,0.1,0,0.2
			c0.6,0,1.1,0.2,1.7,0c-0.2-0.2-0.1-0.4,0.2-0.5c0,0,0,0,0,0c0.2,0.2,0.7,0.6,1.2,0.5c0.1,0,0.2,0,0.4-0.1c0.1-0.1,0.2-0.1,0.3-0.2
			c0,0,0,0.1,0.1,0.1c0.7-0.2,1.6-0.2,1.7-1c0.7,0.5,1.4,0.2,2.3-0.3c0.1-0.1-0.1-0.3-0.1-0.4c0.1,0,0.1,0,0.2-0.1c0,0,0,0,0,0
			c0,0,0,0,0.1,0c0.1,0,0.2,0.1,0.3,0.1c0.1,0.1,0.2,0,0.3,0c0.2,0.1,0.3,0.1,0.5,0.1c0.6-0.4,0.5-0.8,1.1-0.5
			c0.1-0.2-0.2-0.4,0.1-0.5c0.1,0.2,0.2,0.4,0.4,0.2c-0.1-0.1-0.2-0.3-0.1-0.4c0.4,0.2,0.1,0,0.4-0.2l0.3,0.4
			c0.7-0.5,1.6-0.8,2.2-1.2c0.1-0.1,0.1-0.3,0.2-0.4c0,0,0.2,0.2,0.2,0.2c0,0,0-0.3,0.1-0.3c0,0,0.1,0.2,0.1,0.2
			c1.2-0.8,1.6-1.3,3-2.2c-0.1-0.2-0.3-0.4-0.1-0.5c0.3,0.2,0.7,0.1,0.9-0.2c0.1,0,0.1,0,0.2,0c0,0,0,0,0.1,0
			c0.2-0.2,0.3-0.4,0.3-0.6c0.7-0.2,0.5-0.8,0.9-1.3c0.1,0.1,0.2,0.3,0.3,0.3c0.2-0.4,1.5-1.2,1.5-2c0.1,0,0.2,0.1,0.3,0.1
			c0.1,0,0.2,0,0.3-0.1c0.2-0.1,0.3-0.3,0.3-0.6c0-0.1,0-0.2-0.1-0.3c0,0,0,0,0,0c0.5,0,0.7-1,1.1-1.3c0-0.2-0.1-0.5,0.1-0.6
			c1-0.8,1.2-1.8,1.9-2.7c-0.2-0.4-0.3-0.7-0.1-0.9c0.8-0.1,0.2-0.5,1-0.8c-0.3-0.3-0.1-0.2-0.4-0.6c0.9-0.2,1-1.4,1.3-2.3
			c0,0,0.1,0,0.1,0c0,0,0,0,0.1,0c0.3-0.3,0.3-0.7,0.3-0.9c0,0,0-0.1,0-0.1c0-0.1,0-0.2-0.1-0.3c0.2-0.5,0.4-1.1,0.4-1.7
			c0.2-0.1,0.2-0.3,0.2-0.5c0.2-0.2,0.2-0.4,0.1-0.7C75.4,50.1,75.2,50,75,50 M48.2,75C48.2,75,48.2,75,48.2,75L48.2,75
			C48.2,75,48.2,75,48.2,75 M63.1,69.5c-0.1,0-0.1,0-0.2,0l0,0c0.1-0.1,0.1-0.2,0.2-0.2c0,0,0,0,0,0c0,0,0,0,0,0
			C63.3,69.3,63.1,69.3,63.1,69.5 M65.3,67.9c-0.1,0-0.1-0.1-0.1-0.2l0.1-0.1c0,0,0.1,0.1,0.1,0.1l0,0
			C65.4,67.8,65.4,67.9,65.3,67.9 M68.4,64.6C68.4,64.6,68.4,64.6,68.4,64.6L68.4,64.6C68.4,64.6,68.4,64.6,68.4,64.6"/>
		<path fill="#D30000" d="M57.1,19.2C57.1,19.3,57,19.3,57.1,19.2c-0.1,0.1-0.2,0.2-0.3,0.2c-0.1,0-0.1,0.1-0.2,0.1
			c-0.2,0.2-0.2,0.4-0.2,0.6c0,0,0,0-0.1,0c0,0-0.1,0-0.1,0c-0.1-0.2-0.3-0.3-0.5-0.1c0,0.1,0,0.2,0.1,0.4c-0.1,0.2,0,0.4,0.2,0.5
			c0.1,0,0.2,0.1,0.2,0.1l0.1,0.1l0.2,0c0.1,0,0.2-0.1,0.3-0.1c0.1-0.1,0.2-0.2,0.3-0.2l0.1-0.2l-0.1-0.2c0-0.1-0.1-0.2-0.1-0.2
			c0,0,0,0,0,0c0,0,0,0,0-0.1l0.2,0.3c0.3-0.2,0.6-0.3,0.7-0.5c0,0,0,0,0,0c0.1,0.1,0.2,0.1,0.4,0c0,0,0.1,0,0.1-0.1
			c0-0.1,0.1-0.1,0.1-0.2c0.4-0.2,0.9-0.6,1.4-0.9c0.1,0.1,0.3,0.2,0.5,0.1c0.2-0.1,0.3-0.1,0.5-0.2c0.2-0.1,0.3-0.2,0.4-0.3
			c0.1-0.1,0.2-0.3,0.2-0.4c1.5-0.9,3.2-1.9,4.6-2.7c-0.2-0.3-0.4-0.9-0.7-0.9c-0.2,0.3,0,0.5-0.5,0.9c-0.2-0.3,0.1-0.3-0.2-0.4
			c-0.7,0.3-1.1,0.7-1.2,1.2c-0.9,0.3-1.4,0.2-2.6,0.9c0.1,0.2,0,0.3,0,0.5c-0.1,0-0.2,0.1-0.3,0.1c-0.1,0.1-0.3,0.2-0.4,0.2
			c0,0,0,0-0.1,0c-0.1-0.1-0.1-0.1-0.2-0.2c-0.4,0.3-0.6,0.1-0.9,0.4c0,0.5-0.2,0.6-0.4,0.8c0,0,0,0,0,0c-0.1-0.1-0.2-0.1-0.3,0
			c0,0,0,0.1-0.1,0.1c0,0,0,0,0-0.1l-0.1-0.1l-0.2,0C57.7,18.8,57.3,18.9,57.1,19.2 M57.7,19.5C57.7,19.5,57.8,19.5,57.7,19.5
			c0.1,0,0.1,0,0.1,0.1C57.8,19.6,57.8,19.6,57.7,19.5"/>
	</g>
	<g>
		<path fill="#D30000" d="M36.3,55.9l1.5,3.9l-14.9,8.6l-6.2-10.7l1.8-1l1.1,1.9l11.2-6.5l-2.5-4.4l-12.9,7.5l-0.9-1.6L29,45
			l4.4,7.6l-13,7.5l3.2,5.6l11.6-6.7l-1-2.5L36.3,55.9z"/>
		<path fill="#D30000" d="M56.9,48.7l-6,3.5l-2.8-4.8l-3.6,2.1L43,56.8l-2,0.9l1.3-6.9L38.5,53l-0.9-1.6l15.7-9.1l0.9,1.6L50,46.3
			l1.8,3.2l4.1-2.4L56.9,48.7z M36.4,44.9l-1.8,1l-1.7-3l7.1-4.1l-0.6-0.5l1.6-1.4l0.8,0.8l6.4-3.7l1.7,3l-1.8,1.1l-0.8-1.4
			l-11.7,6.8L36.4,44.9z M35.7,47.1l14.8-8.5l0.9,1.6l-14.8,8.5L35.7,47.1z"/>
		<path fill="#D30000" d="M54.5,32.5l1.8,3.1l4.9-2.9l5.3,9.3l-3.4,2l-0.9-1.6l1.6-0.9l-3.5-6.1l-3.1,1.8l2,3.6l2,5.4l-2.1,0
			L57.6,42l-5.8-10.1l12.6-7.3l0.9,1.6L54.5,32.5z M69.4,35.5l6.3,1.4l-1.1,1.6l-6.3-1.2l-8.1-10.4l1.4-1.6L69.4,35.5z M69.9,41.3
			l-1.8-0.8l0.5-13.2l1.9,0.8L69.9,41.3z M65.8,22.9l3,1.7l-0.3,2l-3-1.7L65.8,22.9z"/>
	</g>
</g>
</svg>
