<?xml version="1.0" encoding="utf-8"?>
<!-- Generator: Adobe Illustrator 18.1.1, SVG Export Plug-In . SVG Version: 6.00 Build 0)  -->
<svg version="1.1" baseProfile="tiny" id="图层_1"
	 xmlns="http://www.w3.org/2000/svg" xmlns:xlink="http://www.w3.org/1999/xlink" x="0px" y="0px" viewBox="0 0 26 26"
	 xml:space="preserve">
<path fill="#FF9641" d="M24.4,15.3c0,0.8-0.2,1.5-0.6,2.3c-0.4,0.7-0.9,1.5-1.5,2.2c-0.6,0.7-1.3,1.4-2.1,2
	c-0.8,0.6-1.6,1.2-2.4,1.7c-0.8,0.5-1.6,0.9-2.4,1.2c-0.8,0.3-1.4,0.5-2,0.7l-0.3,0l-0.3,0c-0.6-0.1-1.3-0.3-2.1-0.7
	c-0.8-0.3-1.6-0.7-2.4-1.2c-0.8-0.5-1.7-1-2.5-1.7c-0.8-0.6-1.5-1.3-2.2-2c-0.6-0.7-1.2-1.4-1.5-2.2c-0.4-0.7-0.6-1.5-0.6-2.3V5.6
	c0-1.7,1.2-3.1,2.9-3.4L13,0.6l8.4,1.5c1.7,0.3,2.9,1.7,2.9,3.4V15.3z M13,2.5l-0.1,0L5.4,3.7C4.5,3.9,3.9,4.6,3.9,5.4v6.5H13V2.5
	L13,2.5L13,2.5L13,2.5z M13,11.9v11.3c0.6-0.1,1.2-0.3,1.9-0.6c0.7-0.3,1.4-0.6,2-1c0.7-0.4,1.3-0.8,1.9-1.2
	c0.6-0.5,1.2-0.9,1.6-1.5c0.5-0.5,0.9-1.1,1.1-1.6c0.3-0.6,0.4-1.1,0.4-1.7v-3.7H13z M22.1,11.9"/>
</svg>
