<?xml version="1.0" encoding="utf-8"?>
<!-- Generator: Adobe Illustrator 21.0.0, SVG Export Plug-In . SVG Version: 6.00 Build 0)  -->
<svg version="1.1" id="图层_1" xmlns="http://www.w3.org/2000/svg" xmlns:xlink="http://www.w3.org/1999/xlink" x="0px" y="0px"
	 viewBox="0 0 34 34" style="enable-background:new 0 0 34 34;" xml:space="preserve">
<style type="text/css">
	.st0{fill:#338EFF;}
</style>
<g>
	<path class="st0" d="M17,2.2c0.1,0,0.2,0.1,0.2,0.1l3.8,8.2c0.3,0.7,0.9,1.1,1.7,1.2l8.8,1.4c0.1,0,0.2,0.1,0.2,0.2
		c0,0.1,0,0.2-0.1,0.3l-6.5,6.7c-0.5,0.5-0.7,1.2-0.6,1.9l1.5,9.3c0,0.1,0,0.2-0.1,0.3c-0.1,0-0.1,0-0.1,0c0,0-0.1,0-0.1,0l-7.7-4.3
		c-0.3-0.2-0.7-0.3-1.1-0.3s-0.7,0.1-1.1,0.3l-7.7,4.3c0,0-0.1,0-0.1,0c0,0-0.1,0-0.1,0c-0.1-0.1-0.1-0.2-0.1-0.3l1.5-9.3
		c0.1-0.7-0.1-1.4-0.6-1.9l-6.5-6.7c-0.1-0.1-0.1-0.2-0.1-0.3c0-0.1,0.1-0.2,0.2-0.2l8.8-1.4c0.7-0.1,1.3-0.6,1.7-1.2l3.8-8.2
		C16.8,2.3,16.9,2.2,17,2.2 M17,0c-1,0-1.8,0.6-2.2,1.4l-3.8,8.2L2.1,11c-0.9,0.1-1.7,0.8-2,1.7c-0.3,0.9-0.1,1.8,0.6,2.5l6.5,6.7
		l-1.5,9.3c-0.2,0.9,0.2,1.9,1,2.4C7.1,33.8,7.6,34,8.1,34c0.4,0,0.8-0.1,1.2-0.3l7.7-4.3l7.7,4.3c0.4,0.2,0.8,0.3,1.2,0.3
		c0.5,0,1-0.2,1.4-0.5c0.8-0.5,1.2-1.5,1-2.4l-1.5-9.3l6.5-6.7c0.6-0.7,0.9-1.6,0.6-2.5c-0.3-0.9-1-1.5-2-1.7l-8.8-1.4l-3.8-8.2
		C18.8,0.6,18,0,17,0L17,0z"/>
</g>
</svg>
