<?xml version="1.0" encoding="utf-8"?>
<!-- Generator: Adobe Illustrator 18.1.1, SVG Export Plug-In . SVG Version: 6.00 Build 0)  -->
<svg version="1.2" baseProfile="tiny" id="图层_1"
	 xmlns="http://www.w3.org/2000/svg" xmlns:xlink="http://www.w3.org/1999/xlink" x="0px" y="0px" viewBox="0 0 34 34"
	 xml:space="preserve">
<g>
	<path fill="#808080" d="M18.3,12.6h-7.7l3-3c0.1-0.1,0.1-0.4,0-0.5c-0.1-0.1-0.4-0.1-0.5,0l-3.5,3.5c-0.1,0.1-0.1,0.4,0,0.5
		l3.5,3.5c0.1,0.1,0.4,0.1,0.5,0c0.1-0.1,0.1-0.4,0-0.5l-2.8-2.8h7.5c3,0,5.5,2.5,5.5,5.5c0,3-2.5,5.5-5.5,5.5H9.8V25h8.5
		c3.4,0,6.2-2.8,6.2-6.2S21.7,12.6,18.3,12.6L18.3,12.6z M18.3,12.6"/>
	<path fill="#808080" d="M18.3,25.3H9.6V24h8.7c2.9,0,5.2-2.3,5.2-5.2s-2.3-5.2-5.2-5.2h-6.9l2.4,2.4c0.1,0.1,0.2,0.3,0.2,0.4
		s-0.1,0.3-0.2,0.4c-0.2,0.2-0.6,0.2-0.9,0l-3.6-3.5c-0.1-0.1-0.2-0.3-0.2-0.4c0-0.2,0.1-0.3,0.2-0.4L13,8.9c0.2-0.2,0.6-0.2,0.9,0
		C13.9,9,14,9.2,14,9.3c0,0.2-0.1,0.3-0.2,0.4l-2.6,2.6h7.1c3.6,0,6.5,2.9,6.5,6.4C24.8,22.4,21.9,25.3,18.3,25.3z M10.1,24.8h8.2
		c3.3,0,6-2.7,6-5.9s-2.7-5.9-6-5.9H10l3.5-3.5c0,0,0,0,0-0.1c0,0,0-0.1,0-0.1c0,0-0.1,0-0.1,0l-3.5,3.5c0,0,0,0,0,0.1
		c0,0,0,0.1,0,0.1l3.6,3.5c0,0,0.1,0,0.1,0c0,0,0,0,0-0.1s0-0.1,0-0.1l-3.3-3.3h8.1c3.2,0,5.7,2.6,5.7,5.7s-2.6,5.7-5.7,5.7h-8.2
		V24.8z"/>
</g>
</svg>
