<?xml version="1.0" encoding="utf-8"?>
<!-- Generator: Adobe Illustrator 18.1.1, SVG Export Plug-In . SVG Version: 6.00 Build 0)  -->
<svg version="1.1" id="图层_1" xmlns="http://www.w3.org/2000/svg" xmlns:xlink="http://www.w3.org/1999/xlink" x="0px" y="0px"
	 viewBox="0 0 34.9 22.8" enable-background="new 0 0 34.9 22.8" xml:space="preserve">
<path fill="#FFFFFF" d="M23.5,10.2H4.3l7.9-8c0.5-0.5,0.5-1.3,0-1.8c-0.5-0.5-1.3-0.5-1.8,0L0.4,10.5c-0.5,0.5-0.5,1.3,0,1.8
	l10.1,10.2c0.2,0.2,0.6,0.4,0.9,0.4s0.6-0.1,0.9-0.4c0.5-0.5,0.5-1.3,0-1.8l-7.9-8h19.2c4.9,0,8.8,4,8.8,8.9c0,0.7,0.6,1.3,1.3,1.3
	s1.3-0.6,1.3-1.3C34.9,15.3,29.8,10.2,23.5,10.2z"/>
</svg>
