<?xml version="1.0" encoding="utf-8"?>
<!-- Generator: Adobe Illustrator 18.1.1, SVG Export Plug-In . SVG Version: 6.00 Build 0)  -->
<svg version="1.1" id="图层_1" xmlns="http://www.w3.org/2000/svg" xmlns:xlink="http://www.w3.org/1999/xlink" x="0px" y="0px"
	 viewBox="0 0 39 44" enable-background="new 0 0 39 44" xml:space="preserve">
<g>
	<path fill="#FFFFFF" d="M19.5,25.7c-7.2,0-13-5.8-13-12.8C6.5,5.8,12.3,0,19.5,0c7.2,0,13,5.8,13,12.8
		C32.5,19.9,26.6,25.7,19.5,25.7z M19.5,2c-6,0-11,4.9-11,10.8c0,6,4.9,10.8,11,10.8c6,0,11-4.9,11-10.8C30.4,6.9,25.5,2,19.5,2z"/>
	<path fill="#FFFFFF" d="M38,44c-0.6,0-1-0.4-1-1c0-5.3-2.4-10.3-6.6-13.6c-0.4-0.3-0.5-1-0.2-1.4c0.3-0.4,1-0.5,1.4-0.2
		C36.3,31.5,39,37.1,39,43C39,43.6,38.5,44,38,44z"/>
	<path fill="#FFFFFF" d="M1,44c-0.6,0-1-0.4-1-1c0-10.6,8.7-19.3,19.5-19.3c0.6,0,1,0.4,1,1s-0.5,1-1,1C9.9,25.7,2,33.5,2,43
		C2,43.6,1.6,44,1,44z"/>
</g>
</svg>
