<?xml version="1.0" encoding="utf-8"?>
<!-- Generator: Adobe Illustrator 18.1.1, SVG Export Plug-In . SVG Version: 6.00 Build 0)  -->
<svg version="1.1" baseProfile="tiny" id="图层_1"
	 xmlns="http://www.w3.org/2000/svg" xmlns:xlink="http://www.w3.org/1999/xlink" x="0px" y="0px" viewBox="0 0 18 18"
	 xml:space="preserve">
<g>
	<path fill="#FFFFFF" d="M15,18H3c-0.3,0-0.5-0.2-0.5-0.5S2.7,17,3,17h12c0.8,0,1.5-0.7,1.5-1.5v-13C16.5,2.2,16.7,2,17,2
		s0.5,0.2,0.5,0.5v13C17.5,16.9,16.4,18,15,18z"/>
	<path fill="#FFFFFF" d="M13,16H3c-1.4,0-2.5-1.1-2.5-2.5v-11C0.5,1.1,1.6,0,3,0h10c1.4,0,2.5,1.1,2.5,2.5v11
		C15.5,14.9,14.4,16,13,16z M3,1C2.2,1,1.5,1.7,1.5,2.5v11C1.5,14.3,2.2,15,3,15h10c0.8,0,1.5-0.7,1.5-1.5v-11C14.5,1.7,13.8,1,13,1
		H3z"/>
</g>
</svg>
