<?xml version="1.0" encoding="utf-8"?>
<!-- Generator: Adobe Illustrator 18.1.1, SVG Export Plug-In . SVG Version: 6.00 Build 0)  -->
<svg version="1.1" id="图层_1" xmlns="http://www.w3.org/2000/svg" xmlns:xlink="http://www.w3.org/1999/xlink" x="0px" y="0px"
	 viewBox="0 0 100 100" enable-background="new 0 0 100 100" xml:space="preserve">
<path fill-rule="evenodd" clip-rule="evenodd" fill="#FF9641" d="M50.5,10C70,10,76.9,25.1,76.9,37.3c1.7,1.3,3.5,5.6,2.4,9.7
	c1.3,1.5,3,3.8,3.8,5c0.8,1.1,2.9,5.3,3.3,8.5c0.7,5.6-0.6,11.2-1.9,11.2c-2.9,0-4.6-4.4-6.1-5.9c-1.2,4.3-3.7,8.6-5.7,10.9
	c4.7,1.2,3.7,4.3,3.5,5c0.7-0.1,2.2,1.9,1.2,3.8c-3.5,6.6-21.2,5.2-24,0.7c-1.6,0-4.6,0-6.6,0c-3,4-15.2,5.5-22.1,1.2
	c-3.7-2.3-1.8-5.5-0.7-5.9c-0.9-1.3,0-4,3.3-4.7c-1.3-1.2-3.6-4.1-5.7-10c-2.5,3.1-4.9,6-6.6,5.2c-1.5-0.7-1.8-7.1-1-10.6
	c0.9-4,2.9-7.7,4.5-10c1-1.2,2-2.4,3.1-3.6c-0.3-1.5-0.8-6.5,1.2-6.2c-0.4-2.2-0.1-4.5,1.9-4.5C24.6,33.8,24.2,10,50.5,10z"/>
</svg>
